<?xml version="1.0" encoding="UTF-8" ?>
<!DOCTYPE svg PUBLIC "-//W3C//DTD SVG 1.1//EN" "http://www.w3.org/Graphics/SVG/1.1/DTD/svg11.dtd">
<svg width="54pt" height="54pt" viewBox="0 0 54 54" version="1.1" xmlns="http://www.w3.org/2000/svg">
<g id="#14b587ff">
<path fill="#14b587" opacity="1.00" d=" M 25.41 0.00 L 28.49 0.00 C 41.65 0.55 53.01 11.75 54.00 24.84 L 54.00 27.69 C 53.92 41.36 42.13 53.45 28.50 54.00 L 25.45 54.00 C 12.13 53.41 0.60 41.87 0.00 28.55 L 0.00 25.48 C 0.58 12.17 12.09 0.62 25.41 0.00 M 23.36 15.56 C 19.51 16.81 16.35 20.09 15.37 24.04 C 13.37 30.89 18.81 38.48 25.88 38.94 C 33.06 39.87 39.83 33.11 38.95 25.94 C 38.54 18.55 30.35 13.09 23.36 15.56 Z" />
<path fill="#14b587" opacity="1.00" d=" M 28.28 17.39 C 28.78 17.53 29.77 17.82 30.27 17.97 C 29.89 19.50 28.76 21.27 27.27 19.55 C 27.57 18.81 27.90 18.09 28.28 17.39 Z" />
<path fill="#14b587" opacity="1.00" d=" M 25.06 24.82 C 26.02 24.46 27.92 23.75 28.87 23.39 C 28.44 26.97 27.52 30.48 27.25 34.08 C 27.74 34.31 28.72 34.79 29.22 35.03 C 27.01 34.95 24.81 34.93 22.60 34.89 C 23.23 34.73 24.48 34.42 25.10 34.26 C 25.69 31.35 26.29 28.43 26.83 25.51 C 26.39 25.34 25.51 24.99 25.06 24.82 Z" />
</g>
<g id="#ffffffff">
<path fill="#ffffff" opacity="1.00" d=" M 23.36 15.56 C 30.35 13.09 38.54 18.55 38.95 25.94 C 39.83 33.11 33.06 39.87 25.88 38.94 C 18.81 38.48 13.37 30.89 15.37 24.04 C 16.35 20.09 19.51 16.81 23.36 15.56 M 28.28 17.39 C 27.90 18.09 27.57 18.81 27.27 19.55 C 28.76 21.27 29.89 19.50 30.27 17.97 C 29.77 17.82 28.78 17.53 28.28 17.39 M 25.06 24.82 C 25.51 24.99 26.39 25.34 26.83 25.51 C 26.29 28.43 25.69 31.35 25.10 34.26 C 24.48 34.42 23.23 34.73 22.60 34.89 C 24.81 34.93 27.01 34.95 29.22 35.03 C 28.72 34.79 27.74 34.31 27.25 34.08 C 27.52 30.48 28.44 26.97 28.87 23.39 C 27.92 23.75 26.02 24.46 25.06 24.82 Z" />
</g>
</svg>
