<?xml version="1.0" encoding="UTF-8" ?>
<!DOCTYPE svg PUBLIC "-//W3C//DTD SVG 1.1//EN" "http://www.w3.org/Graphics/SVG/1.1/DTD/svg11.dtd">
<svg width="54pt" height="54pt" viewBox="0 0 54 54" version="1.1" xmlns="http://www.w3.org/2000/svg">
<g id="#33b8ccff">
<path fill="#33b8cc" opacity="1.00" d=" M 25.58 0.00 L 28.29 0.00 C 41.66 0.43 53.29 11.94 54.00 25.28 L 54.00 28.45 C 53.47 41.77 41.98 53.34 28.67 54.00 L 25.70 54.00 C 12.23 53.57 0.50 41.85 0.00 28.40 L 0.00 25.72 C 0.43 12.26 12.12 0.51 25.58 0.00 M 23.40 15.55 C 19.49 16.80 16.29 20.13 15.35 24.14 C 13.42 30.97 18.86 38.49 25.89 38.95 C 33.06 39.86 39.83 33.11 38.95 25.94 C 38.54 18.56 30.39 13.11 23.40 15.55 Z" />
<path fill="#33b8cc" opacity="1.00" d=" M 27.84 18.15 C 29.47 17.43 30.06 17.90 29.60 19.55 C 27.99 20.27 27.40 19.80 27.84 18.15 Z" />
<path fill="#33b8cc" opacity="1.00" d=" M 26.37 24.12 C 27.00 23.96 28.25 23.64 28.88 23.48 C 28.58 27.33 26.84 31.14 27.68 35.01 C 26.01 34.99 24.34 34.98 22.67 35.04 C 23.25 34.82 24.40 34.37 24.98 34.15 C 25.97 30.93 26.79 27.51 26.37 24.12 Z" />
</g>
<g id="#ffffffff">
<path fill="#ffffff" opacity="1.00" d=" M 23.40 15.55 C 30.39 13.11 38.54 18.56 38.95 25.94 C 39.83 33.11 33.06 39.86 25.89 38.95 C 18.86 38.49 13.42 30.97 15.35 24.14 C 16.29 20.13 19.49 16.80 23.40 15.55 M 27.84 18.15 C 27.40 19.80 27.99 20.27 29.60 19.55 C 30.06 17.90 29.47 17.43 27.84 18.15 M 26.37 24.12 C 26.79 27.51 25.97 30.93 24.98 34.15 C 24.40 34.37 23.25 34.82 22.67 35.04 C 24.34 34.98 26.01 34.99 27.68 35.01 C 26.84 31.14 28.58 27.33 28.88 23.48 C 28.25 23.64 27.00 23.96 26.37 24.12 Z" />
</g>
</svg>
