<?xml version="1.0" encoding="UTF-8" ?>
<!DOCTYPE svg PUBLIC "-//W3C//DTD SVG 1.1//EN" "http://www.w3.org/Graphics/SVG/1.1/DTD/svg11.dtd">
<svg width="54pt" height="54pt" viewBox="0 0 54 54" version="1.1" xmlns="http://www.w3.org/2000/svg">
<g id="#33b8ccff">
<path fill="#33b8cc" opacity="1.00" d=" M 25.51 0.00 L 28.36 0.00 C 41.64 0.48 53.15 11.83 54.00 25.06 L 54.00 28.64 C 53.35 41.82 42.06 53.19 28.90 54.00 L 25.60 54.00 C 12.18 53.51 0.54 41.86 0.00 28.45 L 0.00 25.66 C 0.47 12.24 12.09 0.56 25.51 0.00 M 24.35 14.18 C 22.98 18.52 26.32 22.25 29.00 25.22 C 31.66 22.26 35.02 18.55 33.67 14.23 C 32.33 10.04 25.73 10.01 24.35 14.18 M 12.00 14.01 C 12.00 21.67 12.00 29.33 12.00 37.00 C 15.33 38.67 18.67 40.34 22.00 42.00 C 25.33 40.33 28.67 38.67 32.00 37.00 C 35.34 38.00 38.67 39.00 42.00 40.00 C 42.00 32.00 42.00 23.99 42.00 15.99 C 39.84 15.56 37.68 15.15 35.51 14.79 C 35.78 17.17 38.16 17.22 39.96 17.78 C 40.03 24.29 39.99 30.80 40.00 37.32 C 37.67 36.61 35.34 35.91 33.00 35.21 C 33.00 31.37 33.00 27.53 32.95 23.69 C 32.30 24.43 31.64 25.17 31.00 25.92 C 30.99 29.03 31.01 32.15 31.00 35.26 C 28.34 36.60 25.67 37.92 23.01 39.26 C 22.97 32.67 23.08 26.07 22.92 19.48 C 19.29 17.64 15.65 15.82 12.00 14.01 M 34.03 34.49 C 35.68 34.99 37.34 35.48 39.00 35.96 C 39.00 30.11 39.02 24.27 38.98 18.43 C 38.21 18.28 36.67 17.99 35.89 17.85 C 33.11 22.98 34.13 28.91 34.03 34.49 Z" />
<path fill="#33b8cc" opacity="1.00" d=" M 28.22 14.09 C 30.64 13.13 32.21 16.98 29.75 17.88 C 27.33 18.86 25.85 15.09 28.22 14.09 Z" />
<path fill="#33b8cc" opacity="1.00" d=" M 14.00 17.23 C 16.33 18.41 18.67 19.57 21.00 20.74 C 21.00 26.91 21.01 33.09 20.99 39.26 C 18.66 38.09 16.33 36.93 14.00 35.77 C 14.00 29.59 14.00 23.41 14.00 17.23 M 15.00 18.87 C 15.00 24.29 15.00 29.72 15.00 35.14 C 16.66 35.98 18.33 36.81 19.99 37.65 C 20.00 32.21 20.01 26.77 19.99 21.34 C 18.33 20.51 16.67 19.69 15.00 18.87 Z" />
</g>
<g id="#ffffffff">
<path fill="#ffffff" opacity="1.00" d=" M 24.35 14.18 C 25.73 10.01 32.33 10.04 33.67 14.23 C 35.02 18.55 31.66 22.26 29.00 25.22 C 26.32 22.25 22.98 18.52 24.35 14.18 M 28.22 14.09 C 25.85 15.09 27.33 18.86 29.75 17.88 C 32.21 16.98 30.64 13.13 28.22 14.09 Z" />
<path fill="#ffffff" opacity="1.00" d=" M 12.00 14.01 C 15.65 15.82 19.29 17.64 22.92 19.48 C 23.08 26.07 22.97 32.67 23.01 39.26 C 25.67 37.92 28.34 36.60 31.00 35.26 C 31.01 32.15 30.99 29.03 31.00 25.92 C 31.64 25.17 32.30 24.43 32.95 23.69 C 33.00 27.53 33.00 31.37 33.00 35.21 C 35.34 35.91 37.67 36.61 40.00 37.32 C 39.99 30.80 40.03 24.29 39.96 17.78 C 38.16 17.22 35.78 17.17 35.51 14.79 C 37.68 15.15 39.84 15.56 42.00 15.99 C 42.00 23.99 42.00 32.00 42.00 40.00 C 38.67 39.00 35.34 38.00 32.00 37.00 C 28.67 38.67 25.33 40.33 22.00 42.00 C 18.67 40.34 15.33 38.67 12.00 37.00 C 12.00 29.33 12.00 21.67 12.00 14.01 M 14.00 17.23 C 14.00 23.41 14.00 29.59 14.00 35.77 C 16.33 36.93 18.66 38.09 20.99 39.26 C 21.01 33.09 21.00 26.91 21.00 20.74 C 18.67 19.57 16.33 18.41 14.00 17.23 Z" />
<path fill="#ffffff" opacity="1.00" d=" M 34.03 34.49 C 34.13 28.91 33.11 22.98 35.89 17.85 C 36.67 17.99 38.21 18.28 38.98 18.43 C 39.02 24.27 39.00 30.11 39.00 35.96 C 37.34 35.48 35.68 34.99 34.03 34.49 Z" />
<path fill="#ffffff" opacity="1.00" d=" M 15.00 18.87 C 16.67 19.69 18.33 20.51 19.99 21.34 C 20.01 26.77 20.00 32.21 19.99 37.65 C 18.33 36.81 16.66 35.98 15.00 35.14 C 15.00 29.72 15.00 24.29 15.00 18.87 Z" />
</g>
</svg>
