<?xml version="1.0" encoding="UTF-8" ?>
<!DOCTYPE svg PUBLIC "-//W3C//DTD SVG 1.1//EN" "http://www.w3.org/Graphics/SVG/1.1/DTD/svg11.dtd">
<svg width="54pt" height="54pt" viewBox="0 0 54 54" version="1.1" xmlns="http://www.w3.org/2000/svg">
<g id="#14b587ff">
<path fill="#14b587" opacity="1.00" d=" M 25.38 0.00 L 28.62 0.00 C 41.69 0.63 52.91 11.71 54.00 24.70 L 54.00 27.80 C 53.86 41.39 42.16 53.37 28.61 54.00 L 25.38 54.00 C 12.10 53.37 0.63 41.87 0.00 28.59 L 0.00 25.39 C 0.64 12.12 12.10 0.64 25.38 0.00 M 13.06 10.17 C 12.97 13.11 13.03 16.05 12.98 19.00 C 12.50 19.00 11.53 19.00 11.05 19.00 C 11.03 17.15 10.96 15.30 10.79 13.45 C 9.78 15.13 10.01 17.10 9.92 18.97 C 9.44 18.99 8.48 19.02 8.00 19.04 C 8.00 26.36 8.00 33.68 8.00 41.00 C 11.00 41.00 14.00 41.00 17.00 41.00 C 17.00 40.50 17.00 39.50 17.00 39.00 C 14.67 39.00 12.33 39.00 10.00 39.00 C 10.00 33.00 10.00 27.00 10.00 21.00 C 12.33 21.00 14.67 21.00 17.00 21.00 C 17.00 20.51 17.00 19.53 17.00 19.04 C 16.50 19.02 15.51 18.98 15.01 18.96 C 14.98 16.03 15.03 13.10 14.94 10.17 C 14.47 10.17 13.53 10.17 13.06 10.17 M 18.00 10.00 C 18.00 20.33 18.00 30.67 18.00 41.00 C 25.33 41.00 32.67 41.00 40.00 41.00 C 40.00 30.67 40.00 20.33 40.00 10.00 C 32.67 10.00 25.33 10.00 18.00 10.00 M 12.00 23.00 C 12.00 24.33 12.00 25.67 12.00 27.00 C 13.33 27.00 14.67 27.00 16.00 27.00 C 16.00 25.67 16.00 24.33 16.00 23.00 C 14.67 23.00 13.33 23.00 12.00 23.00 M 12.00 28.00 C 12.00 29.33 12.00 30.67 12.00 32.00 C 13.33 32.00 14.67 32.00 16.00 32.00 C 16.00 30.66 16.00 29.33 16.00 28.00 C 14.67 28.00 13.33 28.00 12.00 28.00 M 12.00 33.00 C 12.00 34.33 12.00 35.67 12.00 37.00 C 13.33 37.00 14.67 37.00 16.00 37.00 C 16.00 35.67 16.00 34.33 16.00 33.00 C 14.67 33.00 13.33 33.00 12.00 33.00 Z" />
<path fill="#14b587" opacity="1.00" d=" M 20.00 12.00 C 26.00 12.00 32.00 12.00 38.00 12.00 C 38.00 21.00 38.00 30.00 38.00 39.00 C 35.67 39.00 33.33 39.00 31.00 39.00 C 31.00 36.67 31.00 34.33 31.00 32.00 C 29.66 32.00 28.33 32.00 27.00 32.00 C 27.00 34.33 27.00 36.67 27.00 39.00 C 24.67 39.00 22.33 39.00 20.00 39.00 C 20.00 30.00 20.00 21.00 20.00 12.00 M 22.00 14.00 C 22.00 15.33 22.00 16.67 22.00 18.00 C 23.33 18.00 24.67 18.00 26.00 18.00 C 26.00 16.67 26.00 15.33 26.00 14.00 C 24.67 14.00 23.33 14.00 22.00 14.00 M 27.00 14.00 C 27.00 15.33 27.00 16.67 27.00 18.00 C 28.33 18.00 29.67 18.00 31.00 18.00 C 31.00 16.67 31.00 15.33 31.00 14.00 C 29.67 14.00 28.33 14.00 27.00 14.00 M 32.00 14.00 C 32.00 15.33 32.00 16.67 32.00 18.00 C 33.33 18.00 34.67 18.00 36.00 18.00 C 36.00 16.67 36.00 15.33 36.00 14.00 C 34.67 14.00 33.33 14.00 32.00 14.00 M 22.00 20.00 C 22.00 21.33 22.00 22.67 22.00 24.00 C 23.33 24.00 24.67 24.00 26.00 24.00 C 26.00 22.67 26.00 21.33 26.00 20.00 C 24.67 20.00 23.33 20.00 22.00 20.00 M 27.00 20.00 C 27.00 21.33 27.00 22.67 27.00 24.00 C 28.33 24.00 29.67 24.00 31.00 24.00 C 31.00 22.67 31.00 21.33 31.00 20.00 C 29.67 20.00 28.33 20.00 27.00 20.00 M 32.00 20.00 C 32.00 21.33 32.00 22.67 32.00 24.00 C 33.33 24.00 34.67 24.00 36.00 24.00 C 36.00 22.67 36.00 21.33 36.00 20.00 C 34.67 20.00 33.33 20.00 32.00 20.00 M 22.00 26.00 C 22.00 27.33 22.00 28.67 22.00 30.00 C 23.33 30.00 24.67 30.00 26.00 30.00 C 26.00 28.67 26.00 27.33 26.00 26.00 C 24.67 26.00 23.33 26.00 22.00 26.00 M 27.00 26.00 C 27.00 27.33 27.00 28.67 27.00 30.00 C 28.33 30.00 29.67 30.00 31.00 30.00 C 31.00 28.67 31.00 27.33 31.00 26.00 C 29.67 26.00 28.33 26.00 27.00 26.00 M 32.00 26.00 C 32.00 27.33 32.00 28.67 32.00 30.00 C 33.33 30.00 34.67 30.00 36.00 30.00 C 36.00 28.67 36.00 27.33 36.00 26.00 C 34.67 26.00 33.33 26.00 32.00 26.00 M 22.00 32.00 C 22.00 33.33 22.00 34.67 22.00 36.00 C 23.33 36.00 24.67 36.00 26.00 36.00 C 26.00 34.67 26.00 33.33 26.00 32.00 C 24.67 32.00 23.33 32.00 22.00 32.00 M 32.00 32.00 C 32.00 33.33 32.00 34.67 32.00 36.00 C 33.33 36.00 34.67 36.00 36.00 36.00 C 36.00 34.67 36.00 33.33 36.00 32.00 C 34.67 32.00 33.33 32.00 32.00 32.00 Z" />
</g>
<g id="#ffffffff">
<path fill="#ffffff" opacity="1.00" d=" M 13.06 10.17 C 13.53 10.17 14.47 10.17 14.94 10.17 C 15.03 13.10 14.98 16.03 15.01 18.96 C 15.51 18.98 16.50 19.02 17.00 19.04 C 17.00 19.53 17.00 20.51 17.00 21.00 C 14.67 21.00 12.33 21.00 10.00 21.00 C 10.00 27.00 10.00 33.00 10.00 39.00 C 12.33 39.00 14.67 39.00 17.00 39.00 C 17.00 39.50 17.00 40.50 17.00 41.00 C 14.00 41.00 11.00 41.00 8.00 41.00 C 8.00 33.68 8.00 26.36 8.00 19.04 C 8.48 19.02 9.44 18.99 9.92 18.97 C 10.01 17.10 9.78 15.13 10.79 13.45 C 10.96 15.30 11.03 17.15 11.05 19.00 C 11.53 19.00 12.50 19.00 12.98 19.00 C 13.03 16.05 12.97 13.11 13.06 10.17 Z" />
<path fill="#ffffff" opacity="1.00" d=" M 18.00 10.00 C 25.33 10.00 32.67 10.00 40.00 10.00 C 40.00 20.33 40.00 30.67 40.00 41.00 C 32.67 41.00 25.33 41.00 18.00 41.00 C 18.00 30.67 18.00 20.33 18.00 10.00 M 20.00 12.00 C 20.00 21.00 20.00 30.00 20.00 39.00 C 22.33 39.00 24.67 39.00 27.00 39.00 C 27.00 36.67 27.00 34.33 27.00 32.00 C 28.33 32.00 29.66 32.00 31.00 32.00 C 31.00 34.33 31.00 36.67 31.00 39.00 C 33.33 39.00 35.67 39.00 38.00 39.00 C 38.00 30.00 38.00 21.00 38.00 12.00 C 32.00 12.00 26.00 12.00 20.00 12.00 Z" />
<path fill="#ffffff" opacity="1.00" d=" M 22.00 14.00 C 23.33 14.00 24.67 14.00 26.00 14.00 C 26.00 15.33 26.00 16.67 26.00 18.00 C 24.67 18.00 23.33 18.00 22.00 18.00 C 22.00 16.67 22.00 15.33 22.00 14.00 Z" />
<path fill="#ffffff" opacity="1.00" d=" M 27.00 14.00 C 28.33 14.00 29.67 14.00 31.00 14.00 C 31.00 15.33 31.00 16.67 31.00 18.00 C 29.67 18.00 28.33 18.00 27.00 18.00 C 27.00 16.67 27.00 15.33 27.00 14.00 Z" />
<path fill="#ffffff" opacity="1.00" d=" M 32.00 14.00 C 33.33 14.00 34.67 14.00 36.00 14.00 C 36.00 15.33 36.00 16.67 36.00 18.00 C 34.67 18.00 33.33 18.00 32.00 18.00 C 32.00 16.67 32.00 15.33 32.00 14.00 Z" />
<path fill="#ffffff" opacity="1.00" d=" M 22.00 20.00 C 23.33 20.00 24.67 20.00 26.00 20.00 C 26.00 21.33 26.00 22.67 26.00 24.00 C 24.67 24.00 23.33 24.00 22.00 24.00 C 22.00 22.67 22.00 21.33 22.00 20.00 Z" />
<path fill="#ffffff" opacity="1.00" d=" M 27.00 20.00 C 28.33 20.00 29.67 20.00 31.00 20.00 C 31.00 21.33 31.00 22.67 31.00 24.00 C 29.67 24.00 28.33 24.00 27.00 24.00 C 27.00 22.67 27.00 21.33 27.00 20.00 Z" />
<path fill="#ffffff" opacity="1.00" d=" M 32.00 20.00 C 33.33 20.00 34.67 20.00 36.00 20.00 C 36.00 21.33 36.00 22.67 36.00 24.00 C 34.67 24.00 33.33 24.00 32.00 24.00 C 32.00 22.67 32.00 21.33 32.00 20.00 Z" />
<path fill="#ffffff" opacity="1.00" d=" M 12.00 23.00 C 13.33 23.00 14.67 23.00 16.00 23.00 C 16.00 24.33 16.00 25.67 16.00 27.00 C 14.67 27.00 13.33 27.00 12.00 27.00 C 12.00 25.67 12.00 24.33 12.00 23.00 Z" />
<path fill="#ffffff" opacity="1.00" d=" M 22.00 26.00 C 23.33 26.00 24.67 26.00 26.00 26.00 C 26.00 27.33 26.00 28.67 26.00 30.00 C 24.67 30.00 23.33 30.00 22.00 30.00 C 22.00 28.67 22.00 27.33 22.00 26.00 Z" />
<path fill="#ffffff" opacity="1.00" d=" M 27.00 26.00 C 28.33 26.00 29.67 26.00 31.00 26.00 C 31.00 27.33 31.00 28.67 31.00 30.00 C 29.67 30.00 28.33 30.00 27.00 30.00 C 27.00 28.67 27.00 27.33 27.00 26.00 Z" />
<path fill="#ffffff" opacity="1.00" d=" M 32.00 26.00 C 33.33 26.00 34.67 26.00 36.00 26.00 C 36.00 27.33 36.00 28.67 36.00 30.00 C 34.67 30.00 33.33 30.00 32.00 30.00 C 32.00 28.67 32.00 27.33 32.00 26.00 Z" />
<path fill="#ffffff" opacity="1.00" d=" M 12.00 28.00 C 13.33 28.00 14.67 28.00 16.00 28.00 C 16.00 29.33 16.00 30.66 16.00 32.00 C 14.67 32.00 13.33 32.00 12.00 32.00 C 12.00 30.67 12.00 29.33 12.00 28.00 Z" />
<path fill="#ffffff" opacity="1.00" d=" M 22.00 32.00 C 23.33 32.00 24.67 32.00 26.00 32.00 C 26.00 33.33 26.00 34.67 26.00 36.00 C 24.67 36.00 23.33 36.00 22.00 36.00 C 22.00 34.67 22.00 33.33 22.00 32.00 Z" />
<path fill="#ffffff" opacity="1.00" d=" M 32.00 32.00 C 33.33 32.00 34.67 32.00 36.00 32.00 C 36.00 33.33 36.00 34.67 36.00 36.00 C 34.67 36.00 33.33 36.00 32.00 36.00 C 32.00 34.67 32.00 33.33 32.00 32.00 Z" />
<path fill="#ffffff" opacity="1.00" d=" M 12.00 33.00 C 13.33 33.00 14.67 33.00 16.00 33.00 C 16.00 34.33 16.00 35.67 16.00 37.00 C 14.67 37.00 13.33 37.00 12.00 37.00 C 12.00 35.67 12.00 34.33 12.00 33.00 Z" />
</g>
</svg>
