<?xml version="1.0" encoding="UTF-8" ?>
<!DOCTYPE svg PUBLIC "-//W3C//DTD SVG 1.1//EN" "http://www.w3.org/Graphics/SVG/1.1/DTD/svg11.dtd">
<svg width="54pt" height="54pt" viewBox="0 0 54 54" version="1.1" xmlns="http://www.w3.org/2000/svg">
<g id="#33b8ccff">
<path fill="#33b8cc" opacity="1.00" d=" M 25.56 0.00 L 28.33 0.00 C 41.67 0.46 53.26 11.93 54.00 25.23 L 54.00 28.53 C 53.42 41.80 42.00 53.29 28.75 54.00 L 25.63 54.00 C 12.19 53.53 0.52 41.84 0.00 28.41 L 0.00 25.70 C 0.45 12.25 12.11 0.53 25.56 0.00 M 14.88 15.65 C 11.94 15.96 11.76 18.61 11.90 20.99 C 21.97 21.00 32.03 21.01 42.10 20.99 C 42.24 18.63 42.06 15.95 39.12 15.65 C 38.89 14.01 39.43 11.00 36.96 11.01 C 33.79 10.27 33.87 13.91 33.90 16.00 L 33.10 16.00 C 33.14 13.90 33.19 10.24 30.01 11.01 C 27.41 11.09 28.16 14.28 27.88 16.00 C 27.44 16.00 26.56 16.00 26.12 16.00 C 26.11 13.95 26.24 10.31 23.10 11.00 C 20.43 10.99 21.14 14.25 20.90 16.00 L 20.10 16.00 C 19.85 14.29 20.57 11.05 17.98 11.01 C 15.00 10.26 14.83 13.61 14.88 15.65 M 14.00 22.00 C 14.04 27.38 13.93 32.75 14.01 38.13 C 13.82 39.38 14.45 41.11 16.00 40.93 C 22.35 41.13 28.70 40.92 35.05 41.03 C 36.64 40.83 38.74 41.49 39.83 39.93 C 40.25 33.97 39.88 27.98 40.00 22.00 C 31.33 22.00 22.67 22.00 14.00 22.00 Z" />
<path fill="#33b8cc" opacity="1.00" d=" M 16.05 12.11 C 16.77 12.09 18.20 12.06 18.92 12.05 C 18.92 14.01 18.92 15.98 18.93 17.94 C 18.22 17.93 16.79 17.92 16.07 17.91 C 16.07 15.98 16.07 14.04 16.05 12.11 Z" />
<path fill="#33b8cc" opacity="1.00" d=" M 22.07 12.09 C 22.78 12.08 24.22 12.07 24.93 12.07 C 24.92 14.03 24.92 16.00 24.92 17.96 C 24.20 17.94 22.77 17.91 22.05 17.89 C 22.07 15.95 22.07 14.02 22.07 12.09 Z" />
<path fill="#33b8cc" opacity="1.00" d=" M 29.09 12.05 C 29.80 12.06 31.22 12.07 31.93 12.07 C 31.92 14.03 31.92 15.99 31.92 17.95 C 31.21 17.94 29.77 17.92 29.06 17.91 C 29.08 15.96 29.08 14.01 29.09 12.05 Z" />
<path fill="#33b8cc" opacity="1.00" d=" M 35.07 12.07 C 35.78 12.07 37.21 12.07 37.93 12.07 C 37.92 14.02 37.92 15.97 37.93 17.92 C 37.22 17.93 35.81 17.95 35.10 17.96 C 35.09 16.00 35.08 14.03 35.07 12.07 Z" />
<path fill="#33b8cc" opacity="1.00" d=" M 16.00 24.00 C 17.33 24.00 18.67 24.00 20.00 24.00 C 20.00 24.75 20.00 26.25 20.00 27.00 C 18.67 27.00 17.33 27.00 16.00 27.00 C 16.00 26.25 16.00 24.75 16.00 24.00 Z" />
<path fill="#33b8cc" opacity="1.00" d=" M 22.00 24.00 C 23.33 24.00 24.67 24.00 26.00 24.00 C 26.00 24.75 26.00 26.25 26.00 27.00 C 24.67 27.00 23.33 27.00 22.00 27.00 C 22.00 26.25 22.00 24.75 22.00 24.00 Z" />
<path fill="#33b8cc" opacity="1.00" d=" M 28.00 24.00 C 29.33 24.00 30.67 24.00 32.00 24.00 C 32.00 24.75 32.00 26.25 32.00 27.00 C 30.67 27.00 29.33 27.00 28.00 27.00 C 28.00 26.25 28.00 24.75 28.00 24.00 Z" />
<path fill="#33b8cc" opacity="1.00" d=" M 34.00 24.00 C 35.33 24.00 36.67 24.00 38.00 24.00 C 38.00 24.75 38.00 26.25 38.00 27.00 C 36.67 27.00 35.33 27.00 34.00 27.00 C 34.00 26.25 34.00 24.75 34.00 24.00 Z" />
<path fill="#33b8cc" opacity="1.00" d=" M 16.00 29.00 C 17.33 29.00 18.67 29.00 20.00 29.00 C 20.00 29.75 20.00 31.25 20.00 32.00 C 18.67 32.00 17.33 32.00 16.00 32.00 C 16.00 31.25 16.00 29.75 16.00 29.00 Z" />
<path fill="#33b8cc" opacity="1.00" d=" M 22.00 29.00 C 23.33 29.00 24.67 29.00 26.00 29.00 C 26.00 29.75 26.00 31.25 26.00 32.00 C 24.67 32.00 23.33 32.00 22.00 32.00 C 22.00 31.25 22.00 29.75 22.00 29.00 Z" />
<path fill="#33b8cc" opacity="1.00" d=" M 28.00 29.00 C 29.33 29.00 30.67 29.00 32.00 29.00 C 32.00 29.75 32.00 31.25 32.00 32.00 C 30.67 32.00 29.33 32.00 28.00 32.00 C 28.00 31.25 28.00 29.75 28.00 29.00 Z" />
<path fill="#33b8cc" opacity="1.00" d=" M 34.00 29.00 C 35.33 29.00 36.67 29.00 38.00 29.00 C 38.00 29.75 38.00 31.25 38.00 32.00 C 36.67 32.00 35.33 32.00 34.00 32.00 C 34.00 31.25 34.00 29.75 34.00 29.00 Z" />
<path fill="#33b8cc" opacity="1.00" d=" M 16.00 34.00 C 17.33 34.00 18.67 34.00 20.00 34.00 C 20.00 34.75 20.00 36.25 20.00 37.00 C 18.67 37.00 17.33 37.00 16.00 37.00 C 16.00 36.25 16.00 34.75 16.00 34.00 Z" />
<path fill="#33b8cc" opacity="1.00" d=" M 22.00 34.00 C 23.33 34.00 24.67 34.00 26.00 34.00 C 26.00 34.75 26.00 36.25 26.00 37.00 C 24.67 37.00 23.33 37.00 22.00 37.00 C 22.00 36.25 22.00 34.75 22.00 34.00 Z" />
<path fill="#33b8cc" opacity="1.00" d=" M 28.00 34.00 C 29.33 34.00 30.67 34.00 32.00 34.00 C 32.00 34.75 32.00 36.25 32.00 37.00 C 30.67 37.00 29.33 37.00 28.00 37.00 C 28.00 36.25 28.00 34.75 28.00 34.00 Z" />
<path fill="#33b8cc" opacity="1.00" d=" M 34.00 34.00 C 35.33 34.00 36.67 34.00 38.00 34.00 C 38.00 34.75 38.00 36.25 38.00 37.00 C 36.67 37.00 35.33 37.00 34.00 37.00 C 34.00 36.25 34.00 34.75 34.00 34.00 Z" />
</g>
<g id="#ffffffff">
<path fill="#ffffff" opacity="1.00" d=" M 14.88 15.65 C 14.83 13.61 15.00 10.26 17.98 11.01 C 20.57 11.05 19.85 14.29 20.10 16.00 L 20.90 16.00 C 21.14 14.25 20.43 10.99 23.10 11.00 C 26.24 10.31 26.11 13.95 26.12 16.00 C 26.56 16.00 27.44 16.00 27.88 16.00 C 28.16 14.28 27.41 11.09 30.01 11.01 C 33.19 10.24 33.14 13.90 33.10 16.00 L 33.90 16.00 C 33.87 13.91 33.79 10.27 36.96 11.01 C 39.43 11.00 38.89 14.01 39.12 15.65 C 42.06 15.95 42.24 18.63 42.10 20.99 C 32.03 21.01 21.97 21.00 11.90 20.99 C 11.76 18.61 11.94 15.96 14.88 15.65 M 16.05 12.11 C 16.07 14.04 16.07 15.98 16.07 17.91 C 16.79 17.92 18.22 17.93 18.93 17.94 C 18.92 15.98 18.92 14.01 18.92 12.05 C 18.20 12.06 16.77 12.09 16.05 12.11 M 22.07 12.09 C 22.07 14.02 22.07 15.95 22.05 17.89 C 22.77 17.91 24.20 17.94 24.92 17.96 C 24.92 16.00 24.92 14.03 24.93 12.07 C 24.22 12.07 22.78 12.08 22.07 12.09 M 29.09 12.05 C 29.08 14.01 29.08 15.96 29.06 17.91 C 29.77 17.92 31.21 17.94 31.92 17.95 C 31.92 15.99 31.92 14.03 31.93 12.07 C 31.22 12.07 29.80 12.06 29.09 12.05 M 35.07 12.07 C 35.08 14.03 35.09 16.00 35.10 17.96 C 35.81 17.95 37.22 17.93 37.93 17.92 C 37.92 15.97 37.92 14.02 37.93 12.07 C 37.21 12.07 35.78 12.07 35.07 12.07 Z" />
<path fill="#ffffff" opacity="1.00" d=" M 14.00 22.00 C 22.67 22.00 31.33 22.00 40.00 22.00 C 39.88 27.98 40.25 33.97 39.83 39.93 C 38.74 41.49 36.64 40.83 35.05 41.03 C 28.70 40.92 22.35 41.13 16.00 40.93 C 14.45 41.11 13.82 39.38 14.01 38.13 C 13.93 32.75 14.04 27.38 14.00 22.00 M 16.00 24.00 C 16.00 24.75 16.00 26.25 16.00 27.00 C 17.33 27.00 18.67 27.00 20.00 27.00 C 20.00 26.25 20.00 24.75 20.00 24.00 C 18.67 24.00 17.33 24.00 16.00 24.00 M 22.00 24.00 C 22.00 24.75 22.00 26.25 22.00 27.00 C 23.33 27.00 24.67 27.00 26.00 27.00 C 26.00 26.25 26.00 24.75 26.00 24.00 C 24.67 24.00 23.33 24.00 22.00 24.00 M 28.00 24.00 C 28.00 24.75 28.00 26.25 28.00 27.00 C 29.33 27.00 30.67 27.00 32.00 27.00 C 32.00 26.25 32.00 24.75 32.00 24.00 C 30.67 24.00 29.33 24.00 28.00 24.00 M 34.00 24.00 C 34.00 24.75 34.00 26.25 34.00 27.00 C 35.33 27.00 36.67 27.00 38.00 27.00 C 38.00 26.25 38.00 24.75 38.00 24.00 C 36.67 24.00 35.33 24.00 34.00 24.00 M 16.00 29.00 C 16.00 29.75 16.00 31.25 16.00 32.00 C 17.33 32.00 18.67 32.00 20.00 32.00 C 20.00 31.25 20.00 29.75 20.00 29.00 C 18.67 29.00 17.33 29.00 16.00 29.00 M 22.00 29.00 C 22.00 29.75 22.00 31.25 22.00 32.00 C 23.33 32.00 24.67 32.00 26.00 32.00 C 26.00 31.25 26.00 29.75 26.00 29.00 C 24.67 29.00 23.33 29.00 22.00 29.00 M 28.00 29.00 C 28.00 29.75 28.00 31.25 28.00 32.00 C 29.33 32.00 30.67 32.00 32.00 32.00 C 32.00 31.25 32.00 29.75 32.00 29.00 C 30.67 29.00 29.33 29.00 28.00 29.00 M 34.00 29.00 C 34.00 29.75 34.00 31.25 34.00 32.00 C 35.33 32.00 36.67 32.00 38.00 32.00 C 38.00 31.25 38.00 29.75 38.00 29.00 C 36.67 29.00 35.33 29.00 34.00 29.00 M 16.00 34.00 C 16.00 34.75 16.00 36.25 16.00 37.00 C 17.33 37.00 18.67 37.00 20.00 37.00 C 20.00 36.25 20.00 34.75 20.00 34.00 C 18.67 34.00 17.33 34.00 16.00 34.00 M 22.00 34.00 C 22.00 34.75 22.00 36.25 22.00 37.00 C 23.33 37.00 24.67 37.00 26.00 37.00 C 26.00 36.25 26.00 34.75 26.00 34.00 C 24.67 34.00 23.33 34.00 22.00 34.00 M 28.00 34.00 C 28.00 34.75 28.00 36.25 28.00 37.00 C 29.33 37.00 30.67 37.00 32.00 37.00 C 32.00 36.25 32.00 34.75 32.00 34.00 C 30.67 34.00 29.33 34.00 28.00 34.00 M 34.00 34.00 C 34.00 34.75 34.00 36.25 34.00 37.00 C 35.33 37.00 36.67 37.00 38.00 37.00 C 38.00 36.25 38.00 34.75 38.00 34.00 C 36.67 34.00 35.33 34.00 34.00 34.00 Z" />
</g>
</svg>
