<?xml version="1.0" encoding="UTF-8" ?>
<!DOCTYPE svg PUBLIC "-//W3C//DTD SVG 1.1//EN" "http://www.w3.org/Graphics/SVG/1.1/DTD/svg11.dtd">
<svg width="54pt" height="54pt" viewBox="0 0 54 54" version="1.1" xmlns="http://www.w3.org/2000/svg">
<g id="#33b8ccff">
<path fill="#33b8cc" opacity="1.00" d=" M 25.60 0.00 L 28.25 0.00 C 41.61 0.41 53.24 11.88 54.00 25.20 L 54.00 28.44 C 53.47 41.73 42.05 53.27 28.78 54.00 L 25.70 54.00 C 12.22 53.57 0.49 41.84 0.00 28.38 L 0.00 25.76 C 0.41 12.27 12.11 0.50 25.60 0.00 M 18.29 11.00 C 18.18 11.67 17.98 13.00 17.87 13.66 C 16.68 14.43 14.90 15.19 15.07 16.93 C 14.90 23.66 15.02 30.40 15.01 37.13 C 14.74 38.87 15.89 41.03 17.86 40.93 C 23.95 41.06 30.05 41.06 36.14 40.93 C 38.11 41.04 39.26 38.90 38.99 37.15 C 38.98 30.39 39.10 23.62 38.93 16.86 C 39.10 15.13 37.28 14.44 36.12 13.66 C 36.02 13.00 35.82 11.68 35.72 11.01 C 35.10 11.02 33.86 11.04 33.24 11.05 C 33.15 11.79 32.98 13.26 32.90 14.00 C 32.45 14.00 31.55 14.00 31.10 14.00 C 31.02 13.26 30.85 11.78 30.76 11.04 C 30.14 11.04 28.89 11.03 28.26 11.02 C 28.17 11.77 27.98 13.26 27.89 14.00 C 27.44 14.00 26.55 14.00 26.11 14.00 C 26.02 13.26 25.84 11.78 25.75 11.04 C 25.12 11.04 23.87 11.04 23.24 11.04 C 23.15 11.78 22.98 13.26 22.89 14.00 C 22.45 14.00 21.55 14.00 21.10 14.00 C 21.02 13.27 20.85 11.80 20.77 11.06 C 20.15 11.05 18.91 11.02 18.29 11.00 Z" />
<path fill="#33b8cc" opacity="1.00" d=" M 18.19 19.04 C 22.73 18.98 27.26 18.98 31.80 19.04 C 31.80 19.52 31.81 20.48 31.81 20.96 C 27.27 21.02 22.73 21.02 18.20 20.96 C 18.19 20.48 18.19 19.52 18.19 19.04 Z" />
<path fill="#33b8cc" opacity="1.00" d=" M 18.20 24.03 C 23.40 23.98 28.60 23.98 33.80 24.03 C 33.80 24.52 33.81 25.48 33.81 25.96 C 28.61 26.02 23.40 26.02 18.20 25.97 C 18.20 25.49 18.20 24.52 18.20 24.03 Z" />
<path fill="#33b8cc" opacity="1.00" d=" M 18.19 29.04 C 22.73 28.98 27.26 28.98 31.80 29.03 C 31.80 29.52 31.80 30.48 31.81 30.97 C 27.27 31.02 22.73 31.02 18.19 30.96 C 18.19 30.48 18.19 29.52 18.19 29.04 Z" />
<path fill="#33b8cc" opacity="1.00" d=" M 18.19 34.04 C 24.06 33.98 29.93 33.98 35.80 34.03 C 35.80 34.52 35.81 35.48 35.82 35.96 C 29.94 36.03 24.07 36.02 18.19 35.96 C 18.19 35.48 18.19 34.52 18.19 34.04 Z" />
</g>
<g id="#ffffffff">
<path fill="#ffffff" opacity="1.00" d=" M 18.29 11.00 C 18.91 11.02 20.15 11.05 20.77 11.06 C 20.85 11.80 21.02 13.27 21.10 14.00 C 21.55 14.00 22.45 14.00 22.89 14.00 C 22.98 13.26 23.15 11.78 23.24 11.04 C 23.87 11.04 25.12 11.04 25.75 11.04 C 25.84 11.78 26.02 13.26 26.11 14.00 C 26.55 14.00 27.44 14.00 27.89 14.00 C 27.98 13.26 28.17 11.77 28.26 11.02 C 28.89 11.03 30.14 11.04 30.76 11.04 C 30.85 11.78 31.02 13.26 31.10 14.00 C 31.55 14.00 32.45 14.00 32.90 14.00 C 32.98 13.26 33.15 11.79 33.24 11.05 C 33.86 11.04 35.10 11.02 35.72 11.01 C 35.82 11.68 36.02 13.00 36.12 13.66 C 37.28 14.44 39.10 15.13 38.93 16.86 C 39.10 23.62 38.98 30.39 38.99 37.15 C 39.26 38.90 38.11 41.04 36.14 40.93 C 30.05 41.06 23.95 41.06 17.86 40.93 C 15.89 41.03 14.74 38.87 15.01 37.13 C 15.02 30.40 14.90 23.66 15.07 16.93 C 14.90 15.19 16.68 14.43 17.87 13.66 C 17.98 13.00 18.18 11.67 18.29 11.00 M 18.19 19.04 C 18.19 19.52 18.19 20.48 18.20 20.96 C 22.73 21.02 27.27 21.02 31.81 20.96 C 31.81 20.48 31.80 19.52 31.80 19.04 C 27.26 18.98 22.73 18.98 18.19 19.04 M 18.20 24.03 C 18.20 24.52 18.20 25.49 18.20 25.97 C 23.40 26.02 28.61 26.02 33.81 25.96 C 33.81 25.48 33.80 24.52 33.80 24.03 C 28.60 23.98 23.40 23.98 18.20 24.03 M 18.19 29.04 C 18.19 29.52 18.19 30.48 18.19 30.96 C 22.73 31.02 27.27 31.02 31.81 30.97 C 31.80 30.48 31.80 29.52 31.80 29.03 C 27.26 28.98 22.73 28.98 18.19 29.04 M 18.19 34.04 C 18.19 34.52 18.19 35.48 18.19 35.96 C 24.07 36.02 29.94 36.03 35.82 35.96 C 35.81 35.48 35.80 34.52 35.80 34.03 C 29.93 33.98 24.06 33.98 18.19 34.04 Z" />
</g>
</svg>
