<?xml version="1.0" encoding="UTF-8" ?>
<!DOCTYPE svg PUBLIC "-//W3C//DTD SVG 1.1//EN" "http://www.w3.org/Graphics/SVG/1.1/DTD/svg11.dtd">
<svg width="54pt" height="54pt" viewBox="0 0 54 54" version="1.1" xmlns="http://www.w3.org/2000/svg">
<g id="#14b587ff">
<path fill="#14b587" opacity="1.00" d=" M 25.40 0.00 L 28.55 0.00 C 41.67 0.59 52.98 11.74 54.00 24.79 L 54.00 27.71 C 53.91 41.37 42.14 53.43 28.52 54.00 L 25.00 54.00 C 11.88 53.12 0.65 41.77 0.00 28.63 L 0.00 25.04 C 0.87 11.90 12.22 0.62 25.40 0.00 M 13.02 10.18 C 13.08 13.12 12.92 16.06 13.01 19.00 C 12.52 19.00 11.55 19.00 11.07 19.00 C 10.95 17.13 11.37 15.05 10.13 13.45 C 10.05 15.28 10.00 17.12 9.97 18.96 C 9.48 18.98 8.49 19.02 8.00 19.04 C 8.00 26.36 8.00 33.68 8.00 41.00 C 11.00 41.00 14.00 40.99 17.00 41.00 C 17.00 40.50 17.00 39.50 17.00 39.00 C 14.67 38.99 12.33 39.01 10.00 39.00 C 10.00 33.00 10.00 27.00 10.00 21.00 C 12.33 20.99 14.67 21.01 17.00 21.00 C 17.00 20.51 17.00 19.53 17.00 19.04 C 16.50 19.02 15.50 18.98 14.99 18.96 C 15.05 16.04 14.94 13.12 14.99 10.20 C 14.49 10.20 13.51 10.19 13.02 10.18 M 18.00 10.00 C 18.00 20.33 18.00 30.67 18.00 41.00 C 25.33 41.00 32.67 41.00 40.00 41.00 C 40.00 30.67 40.00 20.33 40.00 10.00 C 32.67 10.00 25.33 10.00 18.00 10.00 M 46.39 15.40 C 45.68 15.91 44.31 17.79 45.89 18.11 C 48.08 19.96 49.03 14.23 46.39 15.40 M 42.64 22.84 C 43.14 23.02 44.14 23.39 44.64 23.57 C 44.07 26.37 43.62 29.20 43.04 32.00 C 42.41 32.25 41.13 32.74 40.49 32.99 C 42.61 32.99 44.73 32.89 46.84 33.08 C 46.51 32.65 45.85 31.77 45.52 31.33 C 45.76 27.92 46.61 24.58 47.07 21.20 C 45.60 21.77 44.12 22.31 42.64 22.84 M 12.00 23.00 C 12.00 24.33 12.00 25.67 12.00 27.00 C 13.33 27.00 14.67 27.00 16.00 27.00 C 16.00 25.66 16.00 24.33 16.00 23.00 C 14.67 23.00 13.33 23.00 12.00 23.00 M 12.00 28.00 C 12.00 29.33 12.00 30.67 12.00 32.00 C 13.33 32.00 14.67 32.00 16.00 32.00 C 16.00 30.66 16.00 29.33 16.00 28.00 C 14.67 28.00 13.33 28.00 12.00 28.00 M 12.00 33.00 C 12.00 34.34 12.00 35.67 12.00 37.00 C 13.33 37.00 14.67 37.00 16.00 37.00 C 16.00 35.67 16.00 34.33 16.00 33.00 C 14.67 33.00 13.33 33.00 12.00 33.00 Z" />
<path fill="#14b587" opacity="1.00" d=" M 20.00 12.00 C 26.00 12.00 32.00 12.00 38.00 12.00 C 38.00 21.00 38.00 30.00 38.00 39.01 C 35.67 38.99 33.34 38.99 31.00 39.01 C 30.99 36.67 31.01 34.34 31.00 32.00 C 29.66 32.00 28.33 32.00 27.00 32.00 C 26.99 34.34 27.01 36.67 27.00 39.01 C 24.66 38.99 22.33 38.99 20.00 39.01 C 20.00 30.00 20.00 21.00 20.00 12.00 M 22.00 14.00 C 22.00 15.33 22.00 16.67 22.00 18.00 C 23.33 18.00 24.67 18.00 26.00 18.00 C 26.00 16.67 26.00 15.33 26.00 14.00 C 24.66 14.00 23.33 14.00 22.00 14.00 M 27.00 14.00 C 27.00 15.33 27.00 16.67 27.00 18.00 C 28.33 18.00 29.67 18.00 31.00 18.00 C 31.00 16.67 31.00 15.33 31.00 14.00 C 29.66 14.00 28.33 14.00 27.00 14.00 M 32.00 14.00 C 32.00 15.33 32.00 16.67 32.00 18.00 C 33.33 18.00 34.67 18.00 36.00 18.00 C 36.00 16.67 36.00 15.33 36.00 14.00 C 34.67 14.00 33.33 14.00 32.00 14.00 M 22.00 20.00 C 22.00 21.33 22.00 22.67 22.00 24.00 C 23.33 24.00 24.66 24.00 26.00 24.00 C 26.00 22.67 26.00 21.33 26.00 20.00 C 24.67 20.00 23.33 20.00 22.00 20.00 M 27.00 20.00 C 27.00 21.33 27.00 22.67 27.00 24.00 C 28.33 24.00 29.67 24.00 31.00 24.00 C 31.00 22.67 31.00 21.33 31.00 20.00 C 29.67 20.00 28.33 20.00 27.00 20.00 M 32.00 20.00 C 32.00 21.33 32.00 22.66 32.00 24.00 C 33.33 24.00 34.67 24.00 36.00 24.00 C 36.00 22.67 36.00 21.33 36.00 20.00 C 34.67 20.00 33.33 20.00 32.00 20.00 M 22.00 26.00 C 22.00 27.33 22.00 28.67 22.00 30.00 C 23.33 30.00 24.67 30.00 26.00 30.00 C 26.00 28.67 26.00 27.33 26.00 26.00 C 24.66 26.00 23.33 26.00 22.00 26.00 M 27.00 26.00 C 27.00 27.33 27.00 28.67 27.00 30.00 C 28.33 30.00 29.67 30.00 31.00 30.00 C 31.00 28.67 31.00 27.33 31.00 26.00 C 29.67 26.00 28.33 26.00 27.00 26.00 M 32.00 26.00 C 32.00 27.33 32.00 28.67 32.00 30.00 C 33.33 30.00 34.67 30.00 36.00 30.00 C 36.00 28.67 36.00 27.33 36.00 26.00 C 34.67 26.00 33.33 26.00 32.00 26.00 M 22.00 32.00 C 22.00 33.33 22.00 34.67 22.00 36.00 C 23.33 36.00 24.67 36.00 26.00 36.00 C 26.00 34.67 26.00 33.33 26.00 32.00 C 24.67 32.00 23.33 32.00 22.00 32.00 M 32.00 32.00 C 32.00 33.33 32.00 34.67 32.00 36.00 C 33.33 36.00 34.67 36.00 36.00 36.00 C 36.00 34.67 36.00 33.33 36.00 32.00 C 34.67 32.00 33.33 32.00 32.00 32.00 Z" />
</g>
<g id="#ffffffff">
<path fill="#ffffff" opacity="1.00" d=" M 13.02 10.18 C 13.51 10.19 14.49 10.20 14.99 10.20 C 14.94 13.12 15.05 16.04 14.99 18.96 C 15.50 18.98 16.50 19.02 17.00 19.04 C 17.00 19.53 17.00 20.51 17.00 21.00 C 14.67 21.01 12.33 20.99 10.00 21.00 C 10.00 27.00 10.00 33.00 10.00 39.00 C 12.33 39.01 14.67 38.99 17.00 39.00 C 17.00 39.50 17.00 40.50 17.00 41.00 C 14.00 40.99 11.00 41.00 8.00 41.00 C 8.00 33.68 8.00 26.36 8.00 19.04 C 8.49 19.02 9.48 18.98 9.97 18.96 C 10.00 17.12 10.05 15.28 10.13 13.45 C 11.37 15.05 10.95 17.13 11.07 19.00 C 11.55 19.00 12.52 19.00 13.01 19.00 C 12.92 16.06 13.08 13.12 13.02 10.18 Z" />
<path fill="#ffffff" opacity="1.00" d=" M 18.00 10.00 C 25.33 10.00 32.67 10.00 40.00 10.00 C 40.00 20.33 40.00 30.67 40.00 41.00 C 32.67 41.00 25.33 41.00 18.00 41.00 C 18.00 30.67 18.00 20.33 18.00 10.00 M 20.00 12.00 C 20.00 21.00 20.00 30.00 20.00 39.01 C 22.33 38.99 24.66 38.99 27.00 39.01 C 27.01 36.67 26.99 34.34 27.00 32.00 C 28.33 32.00 29.66 32.00 31.00 32.00 C 31.01 34.34 30.99 36.67 31.00 39.01 C 33.34 38.99 35.67 38.99 38.00 39.01 C 38.00 30.00 38.00 21.00 38.00 12.00 C 32.00 12.00 26.00 12.00 20.00 12.00 Z" />
<path fill="#ffffff" opacity="1.00" d=" M 22.00 14.00 C 23.33 14.00 24.66 14.00 26.00 14.00 C 26.00 15.33 26.00 16.67 26.00 18.00 C 24.67 18.00 23.33 18.00 22.00 18.00 C 22.00 16.67 22.00 15.33 22.00 14.00 Z" />
<path fill="#ffffff" opacity="1.00" d=" M 27.00 14.00 C 28.33 14.00 29.66 14.00 31.00 14.00 C 31.00 15.33 31.00 16.67 31.00 18.00 C 29.67 18.00 28.33 18.00 27.00 18.00 C 27.00 16.67 27.00 15.33 27.00 14.00 Z" />
<path fill="#ffffff" opacity="1.00" d=" M 32.00 14.00 C 33.33 14.00 34.67 14.00 36.00 14.00 C 36.00 15.33 36.00 16.67 36.00 18.00 C 34.67 18.00 33.33 18.00 32.00 18.00 C 32.00 16.67 32.00 15.33 32.00 14.00 Z" />
<path fill="#ffffff" opacity="1.00" d=" M 46.39 15.40 C 49.03 14.23 48.08 19.96 45.89 18.11 C 44.31 17.79 45.68 15.91 46.39 15.40 Z" />
<path fill="#ffffff" opacity="1.00" d=" M 22.00 20.00 C 23.33 20.00 24.67 20.00 26.00 20.00 C 26.00 21.33 26.00 22.67 26.00 24.00 C 24.66 24.00 23.33 24.00 22.00 24.00 C 22.00 22.67 22.00 21.33 22.00 20.00 Z" />
<path fill="#ffffff" opacity="1.00" d=" M 27.00 20.00 C 28.33 20.00 29.67 20.00 31.00 20.00 C 31.00 21.33 31.00 22.67 31.00 24.00 C 29.67 24.00 28.33 24.00 27.00 24.00 C 27.00 22.67 27.00 21.33 27.00 20.00 Z" />
<path fill="#ffffff" opacity="1.00" d=" M 32.00 20.00 C 33.33 20.00 34.67 20.00 36.00 20.00 C 36.00 21.33 36.00 22.67 36.00 24.00 C 34.67 24.00 33.33 24.00 32.00 24.00 C 32.00 22.66 32.00 21.33 32.00 20.00 Z" />
<path fill="#ffffff" opacity="1.00" d=" M 42.64 22.84 C 44.12 22.31 45.60 21.77 47.07 21.20 C 46.61 24.58 45.76 27.92 45.52 31.33 C 45.85 31.77 46.51 32.65 46.84 33.08 C 44.73 32.89 42.61 32.99 40.49 32.99 C 41.13 32.74 42.41 32.25 43.04 32.00 C 43.62 29.20 44.07 26.37 44.64 23.57 C 44.14 23.39 43.14 23.02 42.64 22.84 Z" />
<path fill="#ffffff" opacity="1.00" d=" M 12.00 23.00 C 13.33 23.00 14.67 23.00 16.00 23.00 C 16.00 24.33 16.00 25.66 16.00 27.00 C 14.67 27.00 13.33 27.00 12.00 27.00 C 12.00 25.67 12.00 24.33 12.00 23.00 Z" />
<path fill="#ffffff" opacity="1.00" d=" M 22.00 26.00 C 23.33 26.00 24.66 26.00 26.00 26.00 C 26.00 27.33 26.00 28.67 26.00 30.00 C 24.67 30.00 23.33 30.00 22.00 30.00 C 22.00 28.67 22.00 27.33 22.00 26.00 Z" />
<path fill="#ffffff" opacity="1.00" d=" M 27.00 26.00 C 28.33 26.00 29.67 26.00 31.00 26.00 C 31.00 27.33 31.00 28.67 31.00 30.00 C 29.67 30.00 28.33 30.00 27.00 30.00 C 27.00 28.67 27.00 27.33 27.00 26.00 Z" />
<path fill="#ffffff" opacity="1.00" d=" M 32.00 26.00 C 33.33 26.00 34.67 26.00 36.00 26.00 C 36.00 27.33 36.00 28.67 36.00 30.00 C 34.67 30.00 33.33 30.00 32.00 30.00 C 32.00 28.67 32.00 27.33 32.00 26.00 Z" />
<path fill="#ffffff" opacity="1.00" d=" M 12.00 28.00 C 13.33 28.00 14.67 28.00 16.00 28.00 C 16.00 29.33 16.00 30.66 16.00 32.00 C 14.67 32.00 13.33 32.00 12.00 32.00 C 12.00 30.67 12.00 29.33 12.00 28.00 Z" />
<path fill="#ffffff" opacity="1.00" d=" M 22.00 32.00 C 23.33 32.00 24.67 32.00 26.00 32.00 C 26.00 33.33 26.00 34.67 26.00 36.00 C 24.67 36.00 23.33 36.00 22.00 36.00 C 22.00 34.67 22.00 33.33 22.00 32.00 Z" />
<path fill="#ffffff" opacity="1.00" d=" M 32.00 32.00 C 33.33 32.00 34.67 32.00 36.00 32.00 C 36.00 33.33 36.00 34.67 36.00 36.00 C 34.67 36.00 33.33 36.00 32.00 36.00 C 32.00 34.67 32.00 33.33 32.00 32.00 Z" />
<path fill="#ffffff" opacity="1.00" d=" M 12.00 33.00 C 13.33 33.00 14.67 33.00 16.00 33.00 C 16.00 34.33 16.00 35.67 16.00 37.00 C 14.67 37.00 13.33 37.00 12.00 37.00 C 12.00 35.67 12.00 34.34 12.00 33.00 Z" />
</g>
</svg>
