<?xml version="1.0" encoding="UTF-8" ?>
<!DOCTYPE svg PUBLIC "-//W3C//DTD SVG 1.1//EN" "http://www.w3.org/Graphics/SVG/1.1/DTD/svg11.dtd">
<svg width="54pt" height="54pt" viewBox="0 0 54 54" version="1.1" xmlns="http://www.w3.org/2000/svg">
<g id="#33b8ccff">
<path fill="#33b8cc" opacity="1.00" d=" M 25.43 0.00 L 28.46 0.00 C 41.64 0.53 53.03 11.76 54.00 24.88 L 54.00 28.86 C 53.21 41.89 42.10 53.06 29.10 54.00 L 25.47 54.00 C 12.13 53.43 0.59 41.87 0.00 28.54 L 0.00 25.52 C 0.56 12.18 12.09 0.61 25.43 0.00 M 13.04 10.19 C 13.00 13.12 13.00 16.06 12.99 19.00 C 12.51 19.00 11.56 19.00 11.08 19.00 C 10.96 17.15 11.27 15.14 10.19 13.50 C 10.04 15.31 10.00 17.12 9.97 18.94 C 9.47 18.97 8.49 19.03 8.00 19.07 C 8.00 26.38 8.00 33.69 8.00 41.00 C 11.00 41.00 14.00 41.00 17.00 40.99 C 17.00 40.50 17.00 39.50 17.00 39.01 C 14.67 39.00 12.33 39.00 10.00 39.00 C 10.00 33.00 10.00 27.00 10.00 21.00 C 12.33 21.00 14.67 21.00 17.00 20.99 C 17.00 20.51 17.00 19.55 17.00 19.07 C 16.50 19.03 15.50 18.97 15.00 18.93 C 15.00 16.02 15.00 13.11 14.96 10.19 C 14.48 10.19 13.52 10.19 13.04 10.19 M 18.00 10.00 C 18.00 20.33 18.00 30.67 18.00 41.00 C 25.33 41.00 32.66 41.00 39.99 41.00 C 40.05 30.67 39.97 20.33 40.00 10.00 C 32.67 10.00 25.33 10.00 18.00 10.00 M 45.42 18.05 C 44.88 19.71 45.43 20.23 47.07 19.61 C 47.59 17.96 47.04 17.44 45.42 18.05 M 12.00 23.00 C 12.00 24.33 12.00 25.66 12.00 27.00 C 13.33 27.00 14.67 27.00 16.00 27.00 C 16.00 25.66 16.00 24.33 16.00 23.00 C 14.67 23.00 13.33 23.00 12.00 23.00 M 43.08 24.26 C 43.33 24.66 43.82 25.46 44.07 25.86 C 43.58 28.45 43.14 31.04 42.68 33.62 C 42.15 33.96 41.10 34.64 40.58 34.98 C 42.36 34.98 44.14 34.99 45.92 35.00 C 45.65 34.59 45.10 33.76 44.82 33.35 C 45.44 30.01 46.02 26.66 46.63 23.32 C 45.74 23.56 43.97 24.03 43.08 24.26 M 12.00 28.00 C 12.00 29.33 12.00 30.67 12.00 32.00 C 13.33 32.00 14.67 32.00 16.00 32.00 C 16.00 30.66 16.00 29.33 16.00 28.00 C 14.67 28.00 13.33 28.00 12.00 28.00 M 12.00 33.00 C 12.00 34.33 12.00 35.67 12.00 37.00 C 13.33 37.00 14.67 37.00 16.00 37.00 C 16.00 35.67 16.00 34.33 16.00 33.00 C 14.67 33.00 13.33 33.00 12.00 33.00 Z" />
<path fill="#33b8cc" opacity="1.00" d=" M 20.00 12.00 C 26.00 12.00 32.00 12.00 38.00 12.00 C 38.00 21.00 38.00 30.00 38.00 39.00 C 35.67 39.00 33.33 39.00 31.00 39.00 C 31.00 36.67 31.00 34.33 30.99 32.00 C 29.66 32.00 28.34 32.00 27.01 32.00 C 27.00 34.33 27.00 36.67 27.00 39.00 C 24.66 39.00 22.33 39.00 20.00 39.00 C 20.00 30.00 20.00 21.00 20.00 12.00 M 22.00 14.00 C 22.00 15.33 22.00 16.67 22.00 18.00 C 23.33 18.00 24.67 18.00 26.00 18.00 C 26.00 16.67 26.00 15.33 26.00 14.00 C 24.66 14.00 23.33 14.00 22.00 14.00 M 27.00 14.00 C 27.00 15.33 27.00 16.67 27.00 18.00 C 28.33 18.00 29.67 18.00 31.00 18.00 C 31.00 16.67 31.00 15.33 31.00 14.00 C 29.67 14.00 28.33 14.00 27.00 14.00 M 32.00 14.00 C 32.00 15.33 32.00 16.67 32.00 18.00 C 33.33 18.00 34.67 18.00 36.00 18.00 C 36.00 16.67 36.00 15.33 36.00 14.00 C 34.67 14.00 33.33 14.00 32.00 14.00 M 22.00 20.00 C 22.00 21.33 22.00 22.67 22.00 24.00 C 23.33 24.00 24.67 24.00 26.00 24.00 C 26.00 22.67 26.00 21.33 26.00 20.00 C 24.66 20.00 23.33 20.00 22.00 20.00 M 27.00 20.00 C 27.00 21.33 27.00 22.67 27.00 24.00 C 28.33 24.00 29.67 24.00 31.00 24.00 C 31.00 22.67 31.00 21.33 31.00 20.00 C 29.67 20.00 28.33 20.00 27.00 20.00 M 32.00 20.00 C 32.00 21.33 32.00 22.67 32.00 24.00 C 33.33 24.00 34.67 24.00 36.00 24.00 C 36.00 22.67 36.00 21.33 36.00 20.00 C 34.67 20.00 33.33 20.00 32.00 20.00 M 22.00 26.00 C 22.00 27.33 22.00 28.67 22.00 30.00 C 23.33 30.00 24.67 30.00 26.00 30.00 C 26.00 28.67 26.00 27.33 26.00 26.00 C 24.67 26.00 23.33 26.00 22.00 26.00 M 27.00 26.00 C 27.00 27.33 27.00 28.67 27.00 30.00 C 28.33 30.00 29.67 30.00 31.00 30.00 C 31.00 28.67 31.00 27.33 31.00 26.00 C 29.67 26.00 28.33 26.00 27.00 26.00 M 32.00 26.00 C 32.00 27.33 32.00 28.67 32.00 30.00 C 33.33 30.00 34.67 30.00 36.00 30.00 C 36.00 28.67 36.00 27.33 36.00 26.00 C 34.67 26.00 33.33 26.00 32.00 26.00 M 22.00 32.00 C 22.00 33.33 22.00 34.67 22.00 36.00 C 23.33 36.00 24.67 36.00 26.00 36.00 C 26.00 34.67 26.00 33.33 26.00 32.00 C 24.67 32.00 23.33 32.00 22.00 32.00 M 32.00 32.00 C 32.00 33.33 32.00 34.67 32.00 36.00 C 33.33 36.00 34.67 36.00 36.00 36.00 C 36.00 34.66 36.00 33.33 36.00 32.00 C 34.67 32.00 33.33 32.00 32.00 32.00 Z" />
</g>
<g id="#ffffffff">
<path fill="#ffffff" opacity="1.00" d=" M 13.04 10.19 C 13.52 10.19 14.48 10.19 14.96 10.19 C 15.00 13.11 15.00 16.02 15.00 18.93 C 15.50 18.97 16.50 19.03 17.00 19.07 C 17.00 19.55 17.00 20.51 17.00 20.99 C 14.67 21.00 12.33 21.00 10.00 21.00 C 10.00 27.00 10.00 33.00 10.00 39.00 C 12.33 39.00 14.67 39.00 17.00 39.01 C 17.00 39.50 17.00 40.50 17.00 40.99 C 14.00 41.00 11.00 41.00 8.00 41.00 C 8.00 33.69 8.00 26.38 8.00 19.07 C 8.49 19.03 9.47 18.97 9.97 18.94 C 10.00 17.12 10.04 15.31 10.19 13.50 C 11.27 15.14 10.96 17.15 11.08 19.00 C 11.56 19.00 12.51 19.00 12.99 19.00 C 13.00 16.06 13.00 13.12 13.04 10.19 Z" />
<path fill="#ffffff" opacity="1.00" d=" M 18.00 10.00 C 25.33 10.00 32.67 10.00 40.00 10.00 C 39.97 20.33 40.05 30.67 39.99 41.00 C 32.66 41.00 25.33 41.00 18.00 41.00 C 18.00 30.67 18.00 20.33 18.00 10.00 M 20.00 12.00 C 20.00 21.00 20.00 30.00 20.00 39.00 C 22.33 39.00 24.66 39.00 27.00 39.00 C 27.00 36.67 27.00 34.33 27.01 32.00 C 28.34 32.00 29.66 32.00 30.99 32.00 C 31.00 34.33 31.00 36.67 31.00 39.00 C 33.33 39.00 35.67 39.00 38.00 39.00 C 38.00 30.00 38.00 21.00 38.00 12.00 C 32.00 12.00 26.00 12.00 20.00 12.00 Z" />
<path fill="#ffffff" opacity="1.00" d=" M 22.00 14.00 C 23.33 14.00 24.66 14.00 26.00 14.00 C 26.00 15.33 26.00 16.67 26.00 18.00 C 24.67 18.00 23.33 18.00 22.00 18.00 C 22.00 16.67 22.00 15.33 22.00 14.00 Z" />
<path fill="#ffffff" opacity="1.00" d=" M 27.00 14.00 C 28.33 14.00 29.67 14.00 31.00 14.00 C 31.00 15.33 31.00 16.67 31.00 18.00 C 29.67 18.00 28.33 18.00 27.00 18.00 C 27.00 16.67 27.00 15.33 27.00 14.00 Z" />
<path fill="#ffffff" opacity="1.00" d=" M 32.00 14.00 C 33.33 14.00 34.67 14.00 36.00 14.00 C 36.00 15.33 36.00 16.67 36.00 18.00 C 34.67 18.00 33.33 18.00 32.00 18.00 C 32.00 16.67 32.00 15.33 32.00 14.00 Z" />
<path fill="#ffffff" opacity="1.00" d=" M 45.42 18.05 C 47.04 17.44 47.59 17.96 47.07 19.61 C 45.43 20.23 44.88 19.71 45.42 18.05 Z" />
<path fill="#ffffff" opacity="1.00" d=" M 22.00 20.00 C 23.33 20.00 24.66 20.00 26.00 20.00 C 26.00 21.33 26.00 22.67 26.00 24.00 C 24.67 24.00 23.33 24.00 22.00 24.00 C 22.00 22.67 22.00 21.33 22.00 20.00 Z" />
<path fill="#ffffff" opacity="1.00" d=" M 27.00 20.00 C 28.33 20.00 29.67 20.00 31.00 20.00 C 31.00 21.33 31.00 22.67 31.00 24.00 C 29.67 24.00 28.33 24.00 27.00 24.00 C 27.00 22.67 27.00 21.33 27.00 20.00 Z" />
<path fill="#ffffff" opacity="1.00" d=" M 32.00 20.00 C 33.33 20.00 34.67 20.00 36.00 20.00 C 36.00 21.33 36.00 22.67 36.00 24.00 C 34.67 24.00 33.33 24.00 32.00 24.00 C 32.00 22.67 32.00 21.33 32.00 20.00 Z" />
<path fill="#ffffff" opacity="1.00" d=" M 12.00 23.00 C 13.33 23.00 14.67 23.00 16.00 23.00 C 16.00 24.33 16.00 25.66 16.00 27.00 C 14.67 27.00 13.33 27.00 12.00 27.00 C 12.00 25.66 12.00 24.33 12.00 23.00 Z" />
<path fill="#ffffff" opacity="1.00" d=" M 43.08 24.26 C 43.97 24.03 45.74 23.56 46.63 23.32 C 46.02 26.66 45.44 30.01 44.82 33.35 C 45.10 33.76 45.65 34.59 45.92 35.00 C 44.14 34.99 42.36 34.98 40.58 34.98 C 41.10 34.64 42.15 33.96 42.68 33.62 C 43.14 31.04 43.58 28.45 44.07 25.86 C 43.82 25.46 43.33 24.66 43.08 24.26 Z" />
<path fill="#ffffff" opacity="1.00" d=" M 22.00 26.00 C 23.33 26.00 24.67 26.00 26.00 26.00 C 26.00 27.33 26.00 28.67 26.00 30.00 C 24.67 30.00 23.33 30.00 22.00 30.00 C 22.00 28.67 22.00 27.33 22.00 26.00 Z" />
<path fill="#ffffff" opacity="1.00" d=" M 27.00 26.00 C 28.33 26.00 29.67 26.00 31.00 26.00 C 31.00 27.33 31.00 28.67 31.00 30.00 C 29.67 30.00 28.33 30.00 27.00 30.00 C 27.00 28.67 27.00 27.33 27.00 26.00 Z" />
<path fill="#ffffff" opacity="1.00" d=" M 32.00 26.00 C 33.33 26.00 34.67 26.00 36.00 26.00 C 36.00 27.33 36.00 28.67 36.00 30.00 C 34.67 30.00 33.33 30.00 32.00 30.00 C 32.00 28.67 32.00 27.33 32.00 26.00 Z" />
<path fill="#ffffff" opacity="1.00" d=" M 12.00 28.00 C 13.33 28.00 14.67 28.00 16.00 28.00 C 16.00 29.33 16.00 30.66 16.00 32.00 C 14.67 32.00 13.33 32.00 12.00 32.00 C 12.00 30.67 12.00 29.33 12.00 28.00 Z" />
<path fill="#ffffff" opacity="1.00" d=" M 22.00 32.00 C 23.33 32.00 24.67 32.00 26.00 32.00 C 26.00 33.33 26.00 34.67 26.00 36.00 C 24.67 36.00 23.33 36.00 22.00 36.00 C 22.00 34.67 22.00 33.33 22.00 32.00 Z" />
<path fill="#ffffff" opacity="1.00" d=" M 32.00 32.00 C 33.33 32.00 34.67 32.00 36.00 32.00 C 36.00 33.33 36.00 34.66 36.00 36.00 C 34.67 36.00 33.33 36.00 32.00 36.00 C 32.00 34.67 32.00 33.33 32.00 32.00 Z" />
<path fill="#ffffff" opacity="1.00" d=" M 12.00 33.00 C 13.33 33.00 14.67 33.00 16.00 33.00 C 16.00 34.33 16.00 35.67 16.00 37.00 C 14.67 37.00 13.33 37.00 12.00 37.00 C 12.00 35.67 12.00 34.33 12.00 33.00 Z" />
</g>
</svg>
