<?xml version="1.0" encoding="UTF-8" ?>
<!DOCTYPE svg PUBLIC "-//W3C//DTD SVG 1.1//EN" "http://www.w3.org/Graphics/SVG/1.1/DTD/svg11.dtd">
<svg width="54pt" height="54pt" viewBox="0 0 54 54" version="1.1" xmlns="http://www.w3.org/2000/svg">
<g id="#33b8ccff">
<path fill="#33b8cc" opacity="1.00" d=" M 25.53 0.00 L 28.32 0.00 C 41.64 0.45 53.20 11.87 54.00 25.14 L 54.00 28.57 C 53.40 41.81 42.01 53.26 28.79 54.00 L 25.60 54.00 C 12.17 53.50 0.53 41.85 0.00 28.44 L 0.00 25.69 C 0.45 12.25 12.09 0.55 25.53 0.00 M 15.07 10.07 C 15.05 12.36 15.05 14.64 15.06 16.93 C 15.78 16.92 17.22 16.92 17.94 16.92 C 17.96 14.64 17.95 12.36 17.93 10.09 C 17.22 10.08 15.79 10.07 15.07 10.07 M 22.04 10.09 C 22.04 12.40 22.09 14.70 22.12 17.01 C 22.83 16.96 24.24 16.88 24.95 16.83 C 24.97 14.57 24.95 12.31 24.91 10.05 C 24.19 10.06 22.76 10.08 22.04 10.09 M 29.07 10.06 C 29.05 12.35 29.05 14.64 29.07 16.93 C 29.78 16.92 31.21 16.92 31.93 16.91 C 31.96 14.64 31.95 12.37 31.94 10.09 C 31.22 10.09 29.79 10.07 29.07 10.06 M 36.07 10.10 C 36.04 12.35 36.04 14.61 36.06 16.86 C 36.77 16.89 38.20 16.94 38.91 16.97 C 38.93 14.66 38.92 12.36 38.94 10.06 C 38.22 10.07 36.79 10.09 36.07 10.10 M 11.87 20.00 C 21.96 20.00 32.04 20.00 42.13 20.00 C 41.97 17.70 42.28 15.07 40.29 13.43 C 40.20 14.42 40.00 16.39 39.91 17.38 C 38.65 17.53 37.43 18.13 36.16 17.91 C 34.93 17.00 35.11 15.31 34.70 14.00 C 34.35 14.00 33.65 14.00 33.30 14.00 C 32.85 15.37 33.08 18.15 30.93 17.99 C 28.33 18.73 27.96 15.80 27.70 14.00 C 27.35 14.00 26.65 14.00 26.30 14.00 C 25.86 15.38 26.09 18.10 23.96 17.98 C 21.34 18.76 20.96 15.81 20.70 14.00 C 20.35 14.00 19.65 14.00 19.30 14.00 C 18.82 15.33 19.09 18.16 16.98 17.98 C 14.13 18.76 13.96 15.36 13.45 13.51 C 11.80 15.28 12.02 17.77 11.87 20.00 M 13.00 21.00 C 13.10 26.71 12.81 32.42 13.09 38.12 C 12.97 40.14 15.11 41.24 16.89 40.98 C 23.63 41.03 30.37 41.03 37.10 40.98 C 38.86 41.22 40.98 40.17 40.90 38.17 C 41.20 32.45 40.90 26.72 41.00 21.00 C 31.67 21.00 22.33 21.00 13.00 21.00 Z" />
<path fill="#33b8cc" opacity="1.00" d=" M 15.01 23.00 C 23.00 23.00 31.00 23.00 38.99 23.00 C 39.01 28.31 39.03 33.62 38.93 38.92 C 30.98 39.05 23.03 39.05 15.08 38.92 C 14.96 33.62 14.98 28.31 15.01 23.00 M 23.09 26.05 C 23.08 26.75 23.06 28.14 23.05 28.84 C 24.36 28.91 25.66 28.99 26.97 29.09 C 25.58 31.32 24.28 33.67 23.53 36.21 C 25.00 36.05 26.47 35.63 27.26 34.28 C 29.17 31.88 31.21 29.31 31.18 26.07 C 28.48 26.05 25.79 26.02 23.09 26.05 Z" />
</g>
<g id="#ffffffff">
<path fill="#ffffff" opacity="1.00" d=" M 15.07 10.07 C 15.79 10.07 17.22 10.08 17.93 10.09 C 17.95 12.36 17.96 14.64 17.94 16.92 C 17.22 16.92 15.78 16.92 15.06 16.93 C 15.05 14.64 15.05 12.36 15.07 10.07 Z" />
<path fill="#ffffff" opacity="1.00" d=" M 22.04 10.09 C 22.76 10.08 24.19 10.06 24.91 10.05 C 24.95 12.31 24.97 14.57 24.95 16.83 C 24.24 16.88 22.83 16.96 22.12 17.01 C 22.09 14.70 22.04 12.40 22.04 10.09 Z" />
<path fill="#ffffff" opacity="1.00" d=" M 29.07 10.06 C 29.79 10.07 31.22 10.09 31.94 10.09 C 31.95 12.37 31.96 14.64 31.93 16.91 C 31.21 16.92 29.78 16.92 29.07 16.93 C 29.05 14.64 29.05 12.35 29.07 10.06 Z" />
<path fill="#ffffff" opacity="1.00" d=" M 36.07 10.10 C 36.79 10.09 38.22 10.07 38.94 10.06 C 38.92 12.36 38.93 14.66 38.91 16.97 C 38.20 16.94 36.77 16.89 36.06 16.86 C 36.04 14.61 36.04 12.35 36.07 10.10 Z" />
<path fill="#ffffff" opacity="1.00" d=" M 11.87 20.00 C 12.02 17.77 11.80 15.28 13.45 13.51 C 13.96 15.36 14.13 18.76 16.98 17.98 C 19.09 18.16 18.82 15.33 19.30 14.00 C 19.65 14.00 20.35 14.00 20.70 14.00 C 20.96 15.81 21.34 18.76 23.96 17.98 C 26.09 18.10 25.86 15.38 26.30 14.00 C 26.65 14.00 27.35 14.00 27.70 14.00 C 27.96 15.80 28.33 18.73 30.93 17.99 C 33.08 18.15 32.85 15.37 33.30 14.00 C 33.65 14.00 34.35 14.00 34.70 14.00 C 35.11 15.31 34.93 17.00 36.16 17.91 C 37.43 18.13 38.65 17.53 39.91 17.38 C 40.00 16.39 40.20 14.42 40.29 13.43 C 42.28 15.07 41.97 17.70 42.13 20.00 C 32.04 20.00 21.96 20.00 11.87 20.00 Z" />
<path fill="#ffffff" opacity="1.00" d=" M 13.00 21.00 C 22.33 21.00 31.67 21.00 41.00 21.00 C 40.90 26.72 41.20 32.45 40.90 38.17 C 40.98 40.17 38.86 41.22 37.10 40.98 C 30.37 41.03 23.63 41.03 16.89 40.98 C 15.11 41.24 12.97 40.14 13.09 38.12 C 12.81 32.42 13.10 26.71 13.00 21.00 M 15.01 23.00 C 14.98 28.31 14.96 33.62 15.08 38.92 C 23.03 39.05 30.98 39.05 38.93 38.92 C 39.03 33.62 39.01 28.31 38.99 23.00 C 31.00 23.00 23.00 23.00 15.01 23.00 Z" />
<path fill="#ffffff" opacity="1.00" d=" M 23.09 26.05 C 25.79 26.02 28.48 26.05 31.18 26.07 C 31.21 29.31 29.17 31.88 27.26 34.28 C 26.47 35.63 25.00 36.05 23.53 36.21 C 24.28 33.67 25.58 31.32 26.97 29.09 C 25.66 28.99 24.36 28.91 23.05 28.84 C 23.06 28.14 23.08 26.75 23.09 26.05 Z" />
</g>
</svg>
