<?xml version="1.0" encoding="UTF-8" ?>
<!DOCTYPE svg PUBLIC "-//W3C//DTD SVG 1.1//EN" "http://www.w3.org/Graphics/SVG/1.1/DTD/svg11.dtd">
<svg width="54pt" height="54pt" viewBox="0 0 54 54" version="1.1" xmlns="http://www.w3.org/2000/svg">
<g id="#14b587ff">
<path fill="#14b587" opacity="1.00" d=" M 25.56 0.00 L 28.29 0.00 C 41.63 0.43 53.23 11.88 54.00 25.19 L 54.00 27.55 C 54.00 41.32 42.08 53.55 28.33 54.00 L 25.33 54.00 C 12.01 53.34 0.53 41.76 0.00 28.43 L 0.00 25.40 C 0.63 12.06 12.21 0.53 25.56 0.00 M 15.06 10.07 C 15.06 12.36 15.06 14.66 15.07 16.95 C 15.79 16.94 17.23 16.92 17.95 16.90 C 17.94 14.63 17.94 12.36 17.94 10.09 C 17.22 10.08 15.78 10.07 15.06 10.07 M 22.05 10.08 C 22.06 12.37 22.06 14.65 22.06 16.93 C 22.79 16.93 24.23 16.91 24.95 16.91 C 24.94 14.63 24.94 12.36 24.94 10.08 C 24.22 10.08 22.77 10.08 22.05 10.08 M 29.05 10.08 C 29.06 12.38 29.07 14.69 29.10 16.99 C 29.82 16.97 31.24 16.92 31.95 16.89 C 31.94 14.61 31.93 12.33 31.92 10.06 C 31.21 10.06 29.77 10.07 29.05 10.08 M 36.05 10.10 C 36.06 12.37 36.06 14.64 36.06 16.91 C 36.78 16.92 38.22 16.93 38.94 16.94 C 38.94 14.64 38.94 12.35 38.93 10.05 C 38.21 10.06 36.77 10.09 36.05 10.10 M 11.92 20.00 C 21.97 20.00 32.03 20.00 42.09 20.00 C 41.99 17.75 42.36 15.18 40.43 13.56 C 39.88 15.03 40.26 18.07 37.93 17.99 C 35.35 18.72 34.87 15.84 34.77 14.00 C 34.39 14.00 33.61 14.00 33.22 14.00 C 32.92 15.43 33.11 18.08 30.96 17.98 C 28.38 18.74 27.86 15.86 27.77 14.00 C 27.39 14.00 26.61 14.00 26.22 14.00 C 26.13 15.83 25.68 18.63 23.13 18.00 C 20.93 18.18 21.06 15.46 20.78 14.00 C 20.39 14.00 19.61 14.00 19.23 14.00 C 18.88 15.32 19.15 17.04 17.84 17.90 C 16.55 18.16 15.25 17.70 14.07 17.25 C 13.99 16.31 13.85 14.44 13.78 13.51 C 11.58 14.99 12.02 17.70 11.92 20.00 M 13.00 21.00 C 13.08 26.71 12.84 32.42 13.08 38.13 C 12.99 39.66 14.41 41.02 15.93 40.93 C 23.00 41.10 30.07 40.98 37.14 40.99 C 38.93 41.26 41.00 40.10 40.92 38.11 C 41.16 32.41 40.92 26.70 41.00 21.00 C 31.67 21.00 22.33 21.00 13.00 21.00 Z" />
<path fill="#14b587" opacity="1.00" d=" M 15.00 23.00 C 23.00 23.00 31.00 23.00 39.00 23.00 C 38.99 28.30 39.06 33.61 38.92 38.91 C 30.97 39.05 23.03 39.05 15.08 38.91 C 14.94 33.61 15.01 28.30 15.00 23.00 M 23.06 26.09 C 23.07 26.78 23.08 28.16 23.08 28.85 C 24.39 28.93 25.69 29.00 26.99 29.07 C 25.56 31.29 24.27 33.62 23.57 36.19 C 24.15 36.07 25.31 35.84 25.89 35.72 C 28.30 33.01 31.29 29.99 31.08 26.08 C 28.40 26.01 25.73 26.02 23.06 26.09 Z" />
</g>
<g id="#ffffffff">
<path fill="#ffffff" opacity="1.00" d=" M 15.06 10.07 C 15.78 10.07 17.22 10.08 17.94 10.09 C 17.94 12.36 17.94 14.63 17.95 16.90 C 17.23 16.92 15.79 16.94 15.07 16.95 C 15.06 14.66 15.06 12.36 15.06 10.07 Z" />
<path fill="#ffffff" opacity="1.00" d=" M 22.05 10.08 C 22.77 10.08 24.22 10.08 24.94 10.08 C 24.94 12.36 24.94 14.63 24.95 16.91 C 24.23 16.91 22.79 16.93 22.06 16.93 C 22.06 14.65 22.06 12.37 22.05 10.08 Z" />
<path fill="#ffffff" opacity="1.00" d=" M 29.05 10.08 C 29.77 10.07 31.21 10.06 31.92 10.06 C 31.93 12.33 31.94 14.61 31.95 16.89 C 31.24 16.92 29.82 16.97 29.10 16.99 C 29.07 14.69 29.06 12.38 29.05 10.08 Z" />
<path fill="#ffffff" opacity="1.00" d=" M 36.05 10.10 C 36.77 10.09 38.21 10.06 38.93 10.05 C 38.94 12.35 38.94 14.64 38.94 16.94 C 38.22 16.93 36.78 16.92 36.06 16.91 C 36.06 14.64 36.06 12.37 36.05 10.10 Z" />
<path fill="#ffffff" opacity="1.00" d=" M 11.92 20.00 C 12.02 17.70 11.58 14.99 13.78 13.51 C 13.85 14.44 13.99 16.31 14.07 17.25 C 15.25 17.70 16.55 18.16 17.84 17.90 C 19.15 17.04 18.88 15.32 19.23 14.00 C 19.61 14.00 20.39 14.00 20.78 14.00 C 21.06 15.46 20.93 18.18 23.13 18.00 C 25.68 18.63 26.13 15.83 26.22 14.00 C 26.61 14.00 27.39 14.00 27.77 14.00 C 27.86 15.86 28.38 18.74 30.96 17.98 C 33.11 18.08 32.92 15.43 33.22 14.00 C 33.61 14.00 34.39 14.00 34.77 14.00 C 34.87 15.84 35.35 18.72 37.93 17.99 C 40.26 18.07 39.88 15.03 40.43 13.56 C 42.36 15.18 41.99 17.75 42.09 20.00 C 32.03 20.00 21.97 20.00 11.92 20.00 Z" />
<path fill="#ffffff" opacity="1.00" d=" M 13.00 21.00 C 22.33 21.00 31.67 21.00 41.00 21.00 C 40.92 26.70 41.16 32.41 40.92 38.11 C 41.00 40.10 38.93 41.26 37.14 40.99 C 30.07 40.98 23.00 41.10 15.93 40.93 C 14.41 41.02 12.99 39.66 13.08 38.13 C 12.84 32.42 13.08 26.71 13.00 21.00 M 15.00 23.00 C 15.01 28.30 14.94 33.61 15.08 38.91 C 23.03 39.05 30.97 39.05 38.92 38.91 C 39.06 33.61 38.99 28.30 39.00 23.00 C 31.00 23.00 23.00 23.00 15.00 23.00 Z" />
<path fill="#ffffff" opacity="1.00" d=" M 23.06 26.09 C 25.73 26.02 28.40 26.01 31.08 26.08 C 31.29 29.99 28.30 33.01 25.89 35.72 C 25.31 35.84 24.15 36.07 23.57 36.19 C 24.27 33.62 25.56 31.29 26.99 29.07 C 25.69 29.00 24.39 28.93 23.08 28.85 C 23.08 28.16 23.07 26.78 23.06 26.09 Z" />
</g>
</svg>
