<?xml version="1.0" encoding="UTF-8" ?>
<!DOCTYPE svg PUBLIC "-//W3C//DTD SVG 1.1//EN" "http://www.w3.org/Graphics/SVG/1.1/DTD/svg11.dtd">
<svg width="54pt" height="54pt" viewBox="0 0 54 54" version="1.1" xmlns="http://www.w3.org/2000/svg">
<g id="#33b8ccff">
<path fill="#33b8cc" opacity="1.00" d=" M 25.43 0.00 L 28.40 0.00 C 41.61 0.50 53.04 11.75 54.00 24.89 L 54.00 28.83 C 53.23 41.88 42.10 53.07 29.09 54.00 L 25.51 54.00 C 12.16 53.45 0.60 41.88 0.00 28.54 L 0.00 25.55 C 0.54 12.20 12.08 0.61 25.43 0.00 M 12.18 20.59 C 12.21 20.80 12.27 21.24 12.30 21.46 C 15.99 23.69 19.93 25.52 23.87 27.29 C 26.57 28.57 29.53 27.55 32.22 26.82 C 30.05 24.36 27.11 22.97 24.11 21.82 C 23.19 19.03 28.16 17.90 29.31 20.20 C 30.44 22.32 32.00 24.13 33.92 25.58 C 36.59 24.23 39.34 23.02 41.87 21.40 C 41.82 21.19 41.72 20.75 41.68 20.53 C 36.99 18.05 32.35 14.76 27.00 14.05 C 21.63 14.87 16.96 18.16 12.18 20.59 M 16.01 24.60 C 16.03 27.69 15.76 30.80 16.24 33.86 C 17.11 35.90 19.45 36.70 21.41 37.31 C 25.97 38.38 31.03 38.35 35.31 36.25 C 39.78 34.17 37.50 28.35 37.94 24.51 C 36.63 25.29 35.28 26.03 34.00 26.88 C 34.46 29.50 34.79 32.14 35.11 34.79 C 33.74 34.82 32.37 34.84 31.00 34.85 C 30.91 32.46 31.33 30.13 32.07 27.87 C 26.43 30.53 20.91 27.24 16.01 24.60 Z" />
</g>
<g id="#ffffffff">
<path fill="#ffffff" opacity="1.00" d=" M 12.18 20.59 C 16.96 18.16 21.63 14.87 27.00 14.05 C 32.35 14.76 36.99 18.05 41.68 20.53 C 41.72 20.75 41.82 21.19 41.87 21.40 C 39.34 23.02 36.59 24.23 33.92 25.58 C 32.00 24.13 30.44 22.32 29.31 20.20 C 28.16 17.90 23.19 19.03 24.11 21.82 C 27.11 22.97 30.05 24.36 32.22 26.82 C 29.53 27.55 26.57 28.57 23.87 27.29 C 19.93 25.52 15.99 23.69 12.30 21.46 C 12.27 21.24 12.21 20.80 12.18 20.59 Z" />
<path fill="#ffffff" opacity="1.00" d=" M 16.01 24.60 C 20.91 27.24 26.43 30.53 32.07 27.87 C 31.33 30.13 30.91 32.46 31.00 34.85 C 32.37 34.84 33.74 34.82 35.11 34.79 C 34.79 32.14 34.46 29.50 34.00 26.88 C 35.28 26.03 36.63 25.29 37.94 24.51 C 37.50 28.35 39.78 34.17 35.31 36.25 C 31.03 38.35 25.97 38.38 21.41 37.31 C 19.45 36.70 17.11 35.90 16.24 33.86 C 15.76 30.80 16.03 27.69 16.01 24.60 Z" />
</g>
</svg>
