<?xml version="1.0" encoding="UTF-8" ?>
<!DOCTYPE svg PUBLIC "-//W3C//DTD SVG 1.1//EN" "http://www.w3.org/Graphics/SVG/1.1/DTD/svg11.dtd">
<svg width="1159pt" height="1159pt" viewBox="0 0 1159 1159" version="1.1" xmlns="http://www.w3.org/2000/svg">
<g id="#1ab687ff">
<path fill="#1ab687" opacity="1.00" d=" M 562.62 0.00 L 596.42 0.00 C 640.54 1.50 684.55 7.51 727.24 18.82 C 804.48 39.01 877.33 75.60 939.82 125.27 C 1015.72 185.43 1076.29 264.82 1113.89 354.10 C 1141.06 418.12 1156.11 487.12 1159.00 556.57 L 1159.00 602.53 C 1157.08 646.60 1150.56 690.51 1138.84 733.06 C 1118.42 807.96 1082.53 878.57 1034.29 939.38 C 988.88 996.76 932.53 1045.45 869.15 1082.02 C 797.09 1123.73 715.88 1149.47 632.95 1156.93 C 622.82 1157.91 612.65 1158.39 602.49 1159.00 L 556.58 1159.00 C 475.03 1155.67 394.12 1135.32 321.13 1098.70 C 221.54 1049.24 136.91 970.33 80.38 874.60 C 38.05 803.24 11.41 722.64 2.98 640.09 C 1.40 625.58 0.67 611.00 0.00 596.42 L 0.00 562.68 C 0.78 544.40 1.93 526.11 4.25 507.95 C 12.56 439.94 33.18 373.46 64.81 312.67 C 96.80 250.98 140.08 195.20 191.70 148.70 C 248.21 97.72 314.85 58.02 386.64 32.72 C 443.12 12.71 502.75 1.94 562.62 0.00 M 539.94 275.86 C 518.78 280.13 498.20 288.71 481.51 302.58 C 468.10 313.50 457.49 327.66 450.10 343.26 C 442.29 359.77 437.92 377.76 436.13 395.90 C 430.48 457.47 440.98 520.89 468.85 576.28 C 485.77 610.73 508.86 641.93 535.41 669.55 C 541.14 675.25 547.01 681.45 549.31 689.42 C 552.13 699.10 547.38 708.77 543.21 717.29 C 526.89 737.64 510.48 757.92 494.01 778.15 C 487.75 765.93 482.04 753.44 475.57 741.34 C 472.96 736.26 469.92 731.40 467.86 726.07 C 463.96 716.13 461.51 705.65 456.91 695.98 C 454.12 690.25 450.13 684.66 444.19 681.92 C 438.47 679.27 431.97 679.95 425.89 680.41 C 405.54 682.44 386.90 693.37 373.10 708.13 C 362.39 719.52 354.18 733.13 348.45 747.64 C 340.72 767.24 336.95 788.11 334.62 808.96 C 331.34 826.77 333.32 844.95 332.50 862.93 C 333.00 871.88 332.24 880.87 333.09 889.81 C 344.35 901.48 357.55 911.73 372.93 917.28 C 382.85 920.74 393.39 923.09 403.94 922.36 C 415.63 922.20 427.31 921.36 439.00 921.54 C 460.04 921.40 481.17 922.16 502.11 919.67 C 512.94 918.32 524.40 915.45 532.26 907.38 C 540.50 898.63 543.57 886.61 546.07 875.19 C 549.65 856.98 551.57 838.50 553.80 820.09 C 554.67 813.64 555.09 806.88 558.25 801.04 C 560.67 796.45 565.53 793.60 570.53 792.70 C 578.59 791.13 587.39 791.32 594.89 794.97 C 601.88 798.47 605.10 806.30 606.22 813.64 C 609.82 835.73 606.59 858.22 608.79 880.41 C 610.10 891.87 613.07 904.14 621.85 912.27 C 630.71 920.68 643.31 923.40 655.12 924.43 C 672.47 925.68 689.79 923.43 707.08 922.31 C 721.02 921.10 735.03 921.56 749.01 921.78 C 763.96 921.30 778.92 921.66 793.87 921.51 C 802.96 921.21 812.12 918.18 819.01 912.13 C 829.06 903.32 834.63 890.13 835.49 876.93 C 836.89 855.60 833.29 834.32 828.62 813.59 C 822.19 786.27 813.24 759.45 800.79 734.26 C 794.55 722.37 787.82 710.31 777.77 701.17 C 771.45 696.06 764.60 691.63 757.59 687.53 C 749.24 682.87 739.86 678.64 730.06 679.86 C 721.55 680.89 714.76 686.97 709.74 693.52 C 699.96 706.31 694.22 721.51 686.87 735.69 C 680.35 749.49 673.05 762.91 666.68 776.77 C 651.85 759.50 636.84 742.39 622.12 725.04 C 616.56 715.33 611.06 704.44 612.49 692.90 C 613.85 683.01 620.11 674.71 626.66 667.54 C 657.32 635.10 683.20 597.82 700.67 556.64 C 718.44 515.21 727.23 470.04 726.77 424.98 C 726.50 406.91 725.66 388.67 721.30 371.06 C 717.28 354.76 710.45 339.07 700.52 325.49 C 689.99 311.04 676.11 299.10 660.37 290.66 C 641.17 280.26 619.59 274.84 597.93 272.98 C 578.59 271.41 558.99 272.07 539.94 275.86 Z" />
<path fill="#1ab687" opacity="1.00" d=" M 544.41 726.96 C 544.46 727.67 544.57 729.09 544.62 729.81 C 567.84 727.38 592.11 724.16 614.66 732.08 C 610.57 741.95 610.61 753.44 604.30 762.36 C 599.03 769.71 589.51 771.81 580.97 771.87 C 572.53 771.94 563.18 770.40 557.10 764.01 C 550.68 757.23 549.10 747.66 546.85 738.96 C 546.05 734.95 544.03 731.14 544.41 726.96 Z" />
</g>
<g id="#ffffffff">
<path fill="#ffffff" opacity="1.00" d=" M 539.94 275.86 C 558.99 272.07 578.59 271.41 597.93 272.98 C 619.59 274.84 641.17 280.26 660.37 290.66 C 676.11 299.10 689.99 311.04 700.52 325.49 C 710.45 339.07 717.28 354.76 721.30 371.06 C 725.66 388.67 726.50 406.91 726.77 424.98 C 727.23 470.04 718.44 515.21 700.67 556.64 C 683.20 597.82 657.32 635.10 626.66 667.54 C 620.11 674.71 613.85 683.01 612.49 692.90 C 611.06 704.44 616.56 715.33 622.12 725.04 C 636.84 742.39 651.85 759.50 666.68 776.77 C 673.05 762.91 680.35 749.49 686.87 735.69 C 694.22 721.51 699.96 706.31 709.74 693.52 C 714.76 686.97 721.55 680.89 730.06 679.86 C 739.86 678.64 749.24 682.87 757.59 687.53 C 764.60 691.63 771.45 696.06 777.77 701.17 C 787.82 710.31 794.55 722.37 800.79 734.26 C 813.24 759.45 822.19 786.27 828.62 813.59 C 833.29 834.32 836.89 855.60 835.49 876.93 C 834.63 890.13 829.06 903.32 819.01 912.13 C 812.12 918.18 802.96 921.21 793.87 921.51 C 778.92 921.66 763.96 921.30 749.01 921.78 C 735.03 921.56 721.02 921.10 707.08 922.31 C 689.79 923.43 672.47 925.68 655.12 924.43 C 643.31 923.40 630.71 920.68 621.85 912.27 C 613.07 904.14 610.10 891.87 608.79 880.41 C 606.59 858.22 609.82 835.73 606.22 813.64 C 605.10 806.30 601.88 798.47 594.89 794.97 C 587.39 791.32 578.59 791.13 570.53 792.70 C 565.53 793.60 560.67 796.45 558.25 801.04 C 555.09 806.88 554.67 813.64 553.80 820.09 C 551.57 838.50 549.65 856.98 546.07 875.19 C 543.57 886.61 540.50 898.63 532.26 907.38 C 524.40 915.45 512.94 918.32 502.11 919.67 C 481.17 922.16 460.04 921.40 439.00 921.54 C 427.31 921.36 415.63 922.20 403.94 922.36 C 393.39 923.09 382.85 920.74 372.93 917.28 C 357.55 911.73 344.35 901.48 333.09 889.81 C 332.24 880.87 333.00 871.88 332.50 862.93 C 333.32 844.95 331.34 826.77 334.62 808.96 C 336.95 788.11 340.72 767.24 348.45 747.64 C 354.18 733.13 362.39 719.52 373.10 708.13 C 386.90 693.37 405.54 682.44 425.89 680.41 C 431.97 679.95 438.47 679.27 444.19 681.92 C 450.13 684.66 454.12 690.25 456.91 695.98 C 461.51 705.65 463.96 716.13 467.86 726.07 C 469.92 731.40 472.96 736.26 475.57 741.34 C 482.04 753.44 487.75 765.93 494.01 778.15 C 510.48 757.92 526.89 737.64 543.21 717.29 C 547.38 708.77 552.13 699.10 549.31 689.42 C 547.01 681.45 541.14 675.25 535.41 669.55 C 508.86 641.93 485.77 610.73 468.85 576.28 C 440.98 520.89 430.48 457.47 436.13 395.90 C 437.92 377.76 442.29 359.77 450.10 343.26 C 457.49 327.66 468.10 313.50 481.51 302.58 C 498.20 288.71 518.78 280.13 539.94 275.86 M 544.41 726.96 C 544.03 731.14 546.05 734.95 546.85 738.96 C 549.10 747.66 550.68 757.23 557.10 764.01 C 563.18 770.40 572.53 771.94 580.97 771.87 C 589.51 771.81 599.03 769.71 604.30 762.36 C 610.61 753.44 610.57 741.95 614.66 732.08 C 592.11 724.16 567.84 727.38 544.62 729.81 C 544.57 729.09 544.46 727.67 544.41 726.96 Z" />
</g>
</svg>
