<?xml version="1.0" encoding="UTF-8" ?>
<!DOCTYPE svg PUBLIC "-//W3C//DTD SVG 1.1//EN" "http://www.w3.org/Graphics/SVG/1.1/DTD/svg11.dtd">
<svg width="54pt" height="54pt" viewBox="0 0 54 54" version="1.1" xmlns="http://www.w3.org/2000/svg">
<g id="#14b587ff">
<path fill="#14b587" opacity="1.00" d=" M 25.42 0.00 L 28.55 0.00 C 41.66 0.59 52.97 11.73 54.00 24.77 L 54.00 27.73 C 53.90 41.37 42.14 53.42 28.54 54.00 L 25.44 54.00 C 12.13 53.41 0.62 41.89 0.00 28.59 L 0.00 25.45 C 0.60 12.15 12.10 0.61 25.42 0.00 M 23.43 11.38 C 20.93 13.08 20.48 16.50 21.09 19.25 C 21.87 22.83 23.59 26.34 26.48 28.68 C 26.44 29.36 26.35 30.70 26.31 31.38 C 26.89 31.28 28.06 31.09 28.65 30.99 C 28.47 30.52 28.12 29.59 27.95 29.12 C 32.22 24.75 35.38 17.68 32.07 11.89 C 29.52 10.38 26.01 9.41 23.43 11.38 M 38.19 19.13 C 37.59 19.98 36.99 20.83 36.39 21.67 C 36.87 24.98 39.03 27.68 42.13 28.92 C 43.52 28.55 44.69 27.83 45.00 26.33 C 43.23 26.42 41.47 26.64 39.70 26.58 C 38.57 24.82 37.54 22.61 39.67 21.13 C 39.18 20.46 38.68 19.79 38.19 19.13 M 15.74 37.21 C 15.99 37.82 16.50 39.03 16.75 39.64 C 19.52 39.68 22.29 39.68 25.06 39.68 C 25.24 37.64 25.46 35.60 25.60 33.55 C 26.38 33.58 27.94 33.63 28.73 33.66 C 28.95 35.68 29.27 37.70 29.28 39.74 C 32.29 39.12 36.71 41.08 38.66 38.18 C 38.34 34.64 37.84 30.23 33.90 28.96 C 33.23 30.54 32.58 32.18 31.35 33.42 C 29.96 32.19 28.32 32.31 26.70 32.91 C 26.26 32.57 25.37 31.89 24.93 31.54 C 24.72 32.18 24.31 33.45 24.11 34.09 C 23.31 33.65 22.53 33.19 21.75 32.72 C 21.43 31.43 21.09 30.14 20.74 28.85 C 17.12 30.08 16.16 33.82 15.74 37.21 Z" />
</g>
<g id="#ffffffff">
<path fill="#ffffff" opacity="1.00" d=" M 23.43 11.38 C 26.01 9.41 29.52 10.38 32.07 11.89 C 35.38 17.68 32.22 24.75 27.95 29.12 C 28.12 29.59 28.47 30.52 28.65 30.99 C 28.06 31.09 26.89 31.28 26.31 31.38 C 26.35 30.70 26.44 29.36 26.48 28.68 C 23.59 26.34 21.87 22.83 21.09 19.25 C 20.48 16.50 20.93 13.08 23.43 11.38 Z" />
<path fill="#ffffff" opacity="1.00" d=" M 38.19 19.13 C 38.68 19.79 39.18 20.46 39.67 21.13 C 37.54 22.61 38.57 24.82 39.70 26.58 C 41.47 26.64 43.23 26.42 45.00 26.33 C 44.69 27.83 43.52 28.55 42.13 28.92 C 39.03 27.68 36.87 24.98 36.39 21.67 C 36.99 20.83 37.59 19.98 38.19 19.13 Z" />
<path fill="#ffffff" opacity="1.00" d=" M 15.74 37.21 C 16.16 33.82 17.12 30.08 20.74 28.85 C 21.09 30.14 21.43 31.43 21.75 32.72 C 22.53 33.19 23.31 33.65 24.11 34.09 C 24.31 33.45 24.72 32.18 24.93 31.54 C 25.37 31.89 26.26 32.57 26.70 32.91 C 28.32 32.31 29.96 32.19 31.35 33.42 C 32.58 32.18 33.23 30.54 33.90 28.96 C 37.84 30.23 38.34 34.64 38.66 38.18 C 36.71 41.08 32.29 39.12 29.28 39.74 C 29.27 37.70 28.95 35.68 28.73 33.66 C 27.94 33.63 26.38 33.58 25.60 33.55 C 25.46 35.60 25.24 37.64 25.06 39.68 C 22.29 39.68 19.52 39.68 16.75 39.64 C 16.50 39.03 15.99 37.82 15.74 37.21 Z" />
</g>
</svg>
