<?xml version="1.0" encoding="UTF-8" ?>
<!DOCTYPE svg PUBLIC "-//W3C//DTD SVG 1.1//EN" "http://www.w3.org/Graphics/SVG/1.1/DTD/svg11.dtd">
<svg width="54pt" height="54pt" viewBox="0 0 54 54" version="1.1" xmlns="http://www.w3.org/2000/svg">
<g id="#14b587ff">
<path fill="#14b587" opacity="1.00" d=" M 24.91 0.00 L 28.47 0.00 C 41.66 0.54 53.06 11.79 54.00 24.92 L 54.00 27.66 C 53.94 41.35 42.12 53.47 28.46 54.00 L 25.11 54.00 C 11.92 53.20 0.59 41.75 0.00 28.54 L 0.00 25.16 C 0.78 12.13 11.89 0.94 24.91 0.00 M 19.66 14.35 C 17.48 19.78 20.39 26.05 24.50 29.76 C 24.44 30.41 24.33 31.72 24.28 32.37 C 24.87 32.28 26.05 32.09 26.64 32.00 C 26.47 31.53 26.13 30.60 25.96 30.13 C 29.55 26.39 32.15 21.14 31.33 15.85 C 30.19 10.59 22.09 9.56 19.66 14.35 M 35.69 22.56 C 37.21 22.38 38.73 22.18 40.26 21.99 C 39.37 24.38 36.89 25.75 36.95 28.58 C 37.38 28.68 38.24 28.89 38.67 29.00 C 38.67 28.27 38.65 26.81 38.65 26.09 C 39.67 25.25 40.68 24.42 41.70 23.58 C 41.69 22.97 41.68 21.74 41.67 21.13 C 40.80 20.81 39.94 20.47 39.09 20.11 C 37.94 20.91 36.82 21.74 35.69 22.56 M 13.73 38.21 C 13.99 38.82 14.50 40.04 14.76 40.65 C 17.53 40.67 20.29 40.68 23.06 40.68 C 23.27 38.64 23.43 36.59 23.61 34.54 C 24.39 34.57 25.94 34.63 26.72 34.66 C 27.00 36.68 27.16 38.71 27.33 40.74 C 30.31 40.13 34.81 42.09 36.65 39.15 C 36.40 35.56 35.75 31.26 31.86 29.91 C 31.24 31.38 30.62 32.84 30.01 34.31 C 29.30 34.06 27.90 33.54 27.19 33.29 C 26.40 33.53 25.60 33.77 24.81 34.01 C 24.34 33.64 23.40 32.90 22.93 32.53 C 22.73 33.14 22.34 34.37 22.14 34.98 C 21.59 34.77 20.50 34.34 19.96 34.13 C 19.53 32.68 19.09 31.24 18.62 29.81 C 15.18 31.25 14.12 34.80 13.73 38.21 Z" />
</g>
<g id="#ffffffff">
<path fill="#ffffff" opacity="1.00" d=" M 19.66 14.35 C 22.09 9.56 30.19 10.59 31.33 15.85 C 32.15 21.14 29.55 26.39 25.96 30.13 C 26.13 30.60 26.47 31.53 26.64 32.00 C 26.05 32.09 24.87 32.28 24.28 32.37 C 24.33 31.72 24.44 30.41 24.50 29.76 C 20.39 26.05 17.48 19.78 19.66 14.35 Z" />
<path fill="#ffffff" opacity="1.00" d=" M 35.69 22.56 C 36.82 21.74 37.94 20.91 39.09 20.11 C 39.94 20.47 40.80 20.81 41.67 21.13 C 41.68 21.74 41.69 22.97 41.70 23.58 C 40.68 24.42 39.67 25.25 38.65 26.09 C 38.65 26.81 38.67 28.27 38.67 29.00 C 38.24 28.89 37.38 28.68 36.95 28.58 C 36.89 25.75 39.37 24.38 40.26 21.99 C 38.73 22.18 37.21 22.38 35.69 22.56 Z" />
<path fill="#ffffff" opacity="1.00" d=" M 13.73 38.21 C 14.12 34.80 15.18 31.25 18.62 29.81 C 19.09 31.24 19.53 32.68 19.96 34.13 C 20.50 34.34 21.59 34.77 22.14 34.98 C 22.34 34.37 22.73 33.14 22.93 32.53 C 23.40 32.90 24.34 33.64 24.81 34.01 C 25.60 33.77 26.40 33.53 27.19 33.29 C 27.90 33.54 29.30 34.06 30.01 34.31 C 30.62 32.84 31.24 31.38 31.86 29.91 C 35.75 31.26 36.40 35.56 36.65 39.15 C 34.81 42.09 30.31 40.13 27.33 40.74 C 27.16 38.71 27.00 36.68 26.72 34.66 C 25.94 34.63 24.39 34.57 23.61 34.54 C 23.43 36.59 23.27 38.64 23.06 40.68 C 20.29 40.68 17.53 40.67 14.76 40.65 C 14.50 40.04 13.99 38.82 13.73 38.21 Z" />
</g>
</svg>
