<?xml version="1.0" encoding="UTF-8" ?>
<!DOCTYPE svg PUBLIC "-//W3C//DTD SVG 1.1//EN" "http://www.w3.org/Graphics/SVG/1.1/DTD/svg11.dtd">
<svg width="54pt" height="54pt" viewBox="0 0 54 54" version="1.1" xmlns="http://www.w3.org/2000/svg">
<g id="#33b8ccff">
<path fill="#33b8cc" opacity="1.00" d=" M 25.39 0.00 L 28.56 0.00 C 41.66 0.60 52.94 11.71 54.00 24.73 L 54.00 29.03 C 53.11 41.94 42.14 52.97 29.25 54.00 L 25.40 54.00 C 12.11 53.38 0.63 41.89 0.00 28.61 L 0.00 25.44 C 0.61 12.15 12.09 0.63 25.39 0.00 M 19.99 15.93 C 18.03 15.98 16.05 15.90 14.11 16.26 C 12.69 17.98 11.76 20.13 11.88 22.39 C 12.62 21.66 13.35 20.92 14.08 20.18 C 15.95 20.02 17.90 20.19 19.71 19.64 C 22.38 17.55 24.54 14.91 27.00 12.59 C 28.93 14.48 30.77 16.45 32.72 18.32 C 35.16 21.37 40.01 18.68 42.23 22.27 C 42.12 20.05 41.32 17.90 39.84 16.24 C 37.92 15.91 35.95 15.98 34.01 15.93 C 31.63 13.66 29.32 11.33 27.00 9.01 C 24.68 11.33 22.37 13.67 19.99 15.93 M 19.99 20.68 C 18.06 21.13 16.06 21.02 14.10 21.14 C 13.93 26.06 14.01 30.98 14.00 35.91 C 13.26 35.98 11.79 36.13 11.05 36.21 C 11.05 36.88 11.06 38.21 11.06 38.88 C 15.37 39.06 19.68 39.01 23.98 38.99 C 24.00 36.35 24.01 33.70 24.09 31.06 C 26.03 31.06 27.97 31.06 29.92 31.07 C 29.99 33.71 30.00 36.35 30.02 38.99 C 34.31 39.01 38.60 39.04 42.89 38.92 C 42.91 38.24 42.93 36.88 42.95 36.20 C 42.21 36.12 40.73 35.98 40.00 35.91 C 39.98 30.99 40.07 26.06 39.90 21.14 C 37.93 21.01 35.92 21.15 34.00 20.67 C 31.38 18.78 29.34 16.21 27.00 14.00 C 24.66 16.21 22.61 18.78 19.99 20.68 Z" />
<path fill="#33b8cc" opacity="1.00" d=" M 16.07 24.09 C 17.35 24.08 18.63 24.08 19.91 24.08 C 19.92 25.35 19.93 26.63 19.93 27.90 C 18.66 27.92 17.38 27.93 16.10 27.94 C 16.08 26.66 16.07 25.37 16.07 24.09 Z" />
<path fill="#33b8cc" opacity="1.00" d=" M 22.10 24.07 C 23.37 24.07 24.65 24.08 25.93 24.10 C 25.93 25.37 25.93 26.64 25.93 27.92 C 24.64 27.92 23.35 27.91 22.05 27.90 C 22.07 26.62 22.08 25.34 22.10 24.07 Z" />
<path fill="#33b8cc" opacity="1.00" d=" M 28.08 24.09 C 29.35 24.07 30.63 24.06 31.90 24.06 C 31.91 25.35 31.91 26.65 31.90 27.94 C 30.63 27.94 29.36 27.93 28.08 27.91 C 28.08 26.64 28.07 25.36 28.08 24.09 Z" />
<path fill="#33b8cc" opacity="1.00" d=" M 34.08 24.07 C 35.37 24.08 36.66 24.09 37.95 24.12 C 37.94 25.38 37.93 26.65 37.92 27.91 C 36.64 27.92 35.36 27.92 34.08 27.92 C 34.07 26.64 34.07 25.35 34.08 24.07 Z" />
<path fill="#33b8cc" opacity="1.00" d=" M 16.05 30.10 C 17.35 30.09 18.64 30.08 19.93 30.09 C 19.93 31.37 19.91 32.66 19.89 33.95 C 18.63 33.94 17.36 33.93 16.10 33.93 C 16.08 32.65 16.06 31.38 16.05 30.10 Z" />
<path fill="#33b8cc" opacity="1.00" d=" M 34.11 30.05 C 35.37 30.06 36.64 30.07 37.90 30.08 C 37.92 31.35 37.93 32.63 37.93 33.91 C 36.64 33.92 35.35 33.92 34.06 33.91 C 34.07 32.63 34.09 31.34 34.11 30.05 Z" />
</g>
<g id="#ffffffff">
<path fill="#ffffff" opacity="1.00" d=" M 19.99 15.93 C 22.37 13.67 24.68 11.33 27.00 9.01 C 29.32 11.33 31.63 13.66 34.01 15.93 C 35.95 15.98 37.92 15.91 39.84 16.24 C 41.32 17.90 42.12 20.05 42.23 22.27 C 40.01 18.68 35.16 21.37 32.72 18.32 C 30.77 16.45 28.93 14.48 27.00 12.59 C 24.54 14.91 22.38 17.55 19.71 19.64 C 17.90 20.19 15.95 20.02 14.08 20.18 C 13.35 20.92 12.62 21.66 11.88 22.39 C 11.76 20.13 12.69 17.98 14.11 16.26 C 16.05 15.90 18.03 15.98 19.99 15.93 Z" />
<path fill="#ffffff" opacity="1.00" d=" M 19.99 20.68 C 22.61 18.78 24.66 16.21 27.00 14.00 C 29.34 16.21 31.38 18.78 34.00 20.67 C 35.92 21.15 37.93 21.01 39.90 21.14 C 40.07 26.06 39.98 30.99 40.00 35.91 C 40.73 35.98 42.21 36.12 42.95 36.20 C 42.93 36.88 42.91 38.24 42.89 38.92 C 38.60 39.04 34.31 39.01 30.02 38.99 C 30.00 36.35 29.99 33.71 29.92 31.07 C 27.97 31.06 26.03 31.06 24.09 31.06 C 24.01 33.70 24.00 36.35 23.98 38.99 C 19.68 39.01 15.37 39.06 11.06 38.88 C 11.06 38.21 11.05 36.88 11.05 36.21 C 11.79 36.13 13.26 35.98 14.00 35.91 C 14.01 30.98 13.93 26.06 14.10 21.14 C 16.06 21.02 18.06 21.13 19.99 20.68 M 16.07 24.09 C 16.07 25.37 16.08 26.66 16.10 27.94 C 17.38 27.93 18.66 27.92 19.93 27.90 C 19.93 26.63 19.92 25.35 19.91 24.08 C 18.63 24.08 17.35 24.08 16.07 24.09 M 22.10 24.07 C 22.08 25.34 22.07 26.62 22.05 27.90 C 23.35 27.91 24.64 27.92 25.93 27.92 C 25.93 26.64 25.93 25.37 25.93 24.10 C 24.65 24.08 23.37 24.07 22.10 24.07 M 28.08 24.09 C 28.07 25.36 28.08 26.64 28.08 27.91 C 29.36 27.93 30.63 27.94 31.90 27.94 C 31.91 26.65 31.91 25.35 31.90 24.06 C 30.63 24.06 29.35 24.07 28.08 24.09 M 34.08 24.07 C 34.07 25.35 34.07 26.64 34.08 27.92 C 35.36 27.92 36.64 27.92 37.92 27.91 C 37.93 26.65 37.94 25.38 37.95 24.12 C 36.66 24.09 35.37 24.08 34.08 24.07 M 16.05 30.10 C 16.06 31.38 16.08 32.65 16.10 33.93 C 17.36 33.93 18.63 33.94 19.89 33.95 C 19.91 32.66 19.93 31.37 19.93 30.09 C 18.64 30.08 17.35 30.09 16.05 30.10 M 34.11 30.05 C 34.09 31.34 34.07 32.63 34.06 33.91 C 35.35 33.92 36.64 33.92 37.93 33.91 C 37.93 32.63 37.92 31.35 37.90 30.08 C 36.64 30.07 35.37 30.06 34.11 30.05 Z" />
</g>
</svg>
