<?xml version="1.0" encoding="UTF-8" ?>
<!DOCTYPE svg PUBLIC "-//W3C//DTD SVG 1.1//EN" "http://www.w3.org/Graphics/SVG/1.1/DTD/svg11.dtd">
<svg width="54pt" height="54pt" viewBox="0 0 54 54" version="1.1" xmlns="http://www.w3.org/2000/svg">
<g id="#33b8ccff">
<path fill="#33b8cc" opacity="1.00" d=" M 25.59 0.00 L 28.25 0.00 C 41.61 0.40 53.26 11.89 54.00 25.22 L 54.00 28.40 C 53.50 41.72 42.03 53.30 28.73 54.00 L 25.71 54.00 C 12.23 53.58 0.49 41.84 0.00 28.38 L 0.00 25.76 C 0.41 12.27 12.11 0.51 25.59 0.00 M 12.09 18.88 C 22.02 19.07 31.96 19.08 41.89 18.88 C 37.46 14.87 31.91 12.37 27.00 9.01 C 22.08 12.36 16.54 14.89 12.09 18.88 M 17.09 21.08 C 16.95 26.03 16.94 30.98 17.10 35.93 C 18.37 35.93 19.64 35.93 20.91 35.91 C 21.06 30.98 21.05 26.03 20.92 21.10 C 19.64 21.08 18.37 21.08 17.09 21.08 M 25.10 21.07 C 24.94 26.02 24.95 30.97 25.09 35.91 C 26.36 35.92 27.63 35.93 28.91 35.92 C 29.05 30.98 29.06 26.03 28.90 21.08 C 27.63 21.07 26.37 21.07 25.10 21.07 M 33.09 21.08 C 32.94 26.02 32.95 30.97 33.08 35.91 C 34.36 35.92 35.63 35.93 36.90 35.93 C 37.06 30.98 37.06 26.03 36.90 21.08 C 35.63 21.07 34.36 21.07 33.09 21.08 M 13.08 38.12 C 13.07 38.80 13.05 40.17 13.04 40.85 C 22.33 41.11 31.64 41.07 40.93 40.87 C 40.94 40.19 40.94 38.82 40.94 38.14 C 31.66 37.90 22.37 37.93 13.08 38.12 Z" />
</g>
<g id="#ffffffff">
<path fill="#ffffff" opacity="1.00" d=" M 12.09 18.88 C 16.54 14.89 22.08 12.36 27.00 9.01 C 31.91 12.37 37.46 14.87 41.89 18.88 C 31.96 19.08 22.02 19.07 12.09 18.88 Z" />
<path fill="#ffffff" opacity="1.00" d=" M 17.09 21.08 C 18.37 21.08 19.64 21.08 20.92 21.10 C 21.05 26.03 21.06 30.98 20.91 35.91 C 19.64 35.93 18.37 35.93 17.10 35.93 C 16.94 30.98 16.95 26.03 17.09 21.08 Z" />
<path fill="#ffffff" opacity="1.00" d=" M 25.10 21.07 C 26.37 21.07 27.63 21.07 28.90 21.08 C 29.06 26.03 29.05 30.98 28.91 35.92 C 27.63 35.93 26.36 35.92 25.09 35.91 C 24.95 30.97 24.94 26.02 25.10 21.07 Z" />
<path fill="#ffffff" opacity="1.00" d=" M 33.09 21.08 C 34.36 21.07 35.63 21.07 36.90 21.08 C 37.06 26.03 37.06 30.98 36.90 35.93 C 35.63 35.93 34.36 35.92 33.08 35.91 C 32.95 30.97 32.94 26.02 33.09 21.08 Z" />
<path fill="#ffffff" opacity="1.00" d=" M 13.08 38.12 C 22.37 37.93 31.66 37.90 40.94 38.14 C 40.94 38.82 40.94 40.19 40.93 40.87 C 31.64 41.07 22.33 41.11 13.04 40.85 C 13.05 40.17 13.07 38.80 13.08 38.12 Z" />
</g>
</svg>
