<?xml version="1.0" encoding="UTF-8" ?>
<!DOCTYPE svg PUBLIC "-//W3C//DTD SVG 1.1//EN" "http://www.w3.org/Graphics/SVG/1.1/DTD/svg11.dtd">
<svg width="54pt" height="54pt" viewBox="0 0 54 54" version="1.1" xmlns="http://www.w3.org/2000/svg">
<g id="#14b587ff">
<path fill="#14b587" opacity="1.00" d=" M 25.38 0.00 L 28.52 0.00 C 41.65 0.57 52.95 11.71 54.00 24.76 L 54.00 27.75 C 53.89 41.37 42.17 53.38 28.59 54.00 L 24.93 54.00 C 11.83 53.08 0.64 41.74 0.00 28.61 L 0.00 25.44 C 0.61 12.14 12.08 0.64 25.38 0.00 M 18.21 11.07 C 18.13 11.70 17.97 12.96 17.89 13.59 C 16.82 14.49 14.96 15.10 15.09 16.82 C 14.84 22.86 15.10 28.91 14.97 34.96 C 15.04 36.98 14.55 39.92 16.96 40.81 C 22.98 41.25 29.03 40.92 35.06 40.99 C 36.85 41.27 39.04 40.16 38.93 38.11 C 39.06 31.03 39.07 23.94 38.92 16.86 C 39.10 15.10 37.20 14.51 36.12 13.59 C 36.03 12.95 35.83 11.67 35.74 11.03 C 35.10 11.04 33.83 11.06 33.19 11.07 C 33.12 11.81 32.99 13.27 32.92 14.00 C 32.46 14.00 31.55 14.00 31.09 14.00 C 31.01 13.26 30.85 11.77 30.77 11.03 C 30.13 11.04 28.85 11.05 28.21 11.06 C 28.14 11.79 27.99 13.27 27.91 14.00 C 27.45 14.00 26.54 14.00 26.08 14.00 C 26.01 13.27 25.89 11.82 25.82 11.09 C 25.18 11.07 23.89 11.03 23.25 11.01 C 23.16 11.75 22.99 13.25 22.90 14.00 C 22.45 14.00 21.54 14.00 21.08 14.00 C 21.01 13.26 20.87 11.79 20.80 11.05 C 20.15 11.06 18.86 11.07 18.21 11.07 Z" />
<path fill="#14b587" opacity="1.00" d=" M 18.19 19.05 C 22.74 18.97 27.29 18.97 31.84 19.06 C 31.83 19.53 31.82 20.48 31.81 20.95 C 27.27 21.03 22.72 21.03 18.18 20.95 C 18.18 20.47 18.18 19.52 18.19 19.05 Z" />
<path fill="#14b587" opacity="1.00" d=" M 18.18 24.05 C 23.40 23.97 28.61 23.97 33.83 24.05 C 33.83 24.53 33.81 25.48 33.80 25.96 C 28.60 26.02 23.39 26.03 18.18 25.95 C 18.18 25.48 18.18 24.52 18.18 24.05 Z" />
<path fill="#14b587" opacity="1.00" d=" M 18.19 29.04 C 22.64 29.07 27.11 28.76 31.55 29.16 C 31.70 29.59 32.00 30.45 32.16 30.88 C 27.50 31.08 22.84 31.02 18.18 30.95 C 18.18 30.47 18.19 29.52 18.19 29.04 Z" />
<path fill="#14b587" opacity="1.00" d=" M 18.18 34.04 C 24.06 33.98 29.95 33.96 35.83 34.06 C 35.83 34.53 35.84 35.47 35.84 35.94 C 29.95 36.04 24.07 36.02 18.18 35.96 C 18.18 35.48 18.18 34.52 18.18 34.04 Z" />
</g>
<g id="#ffffffff">
<path fill="#ffffff" opacity="1.00" d=" M 18.21 11.07 C 18.86 11.07 20.15 11.06 20.80 11.05 C 20.87 11.79 21.01 13.26 21.08 14.00 C 21.54 14.00 22.45 14.00 22.90 14.00 C 22.99 13.25 23.16 11.75 23.25 11.01 C 23.89 11.03 25.18 11.07 25.82 11.09 C 25.89 11.82 26.01 13.27 26.08 14.00 C 26.54 14.00 27.45 14.00 27.91 14.00 C 27.99 13.27 28.14 11.79 28.21 11.06 C 28.85 11.05 30.13 11.04 30.77 11.03 C 30.85 11.77 31.01 13.26 31.09 14.00 C 31.55 14.00 32.46 14.00 32.92 14.00 C 32.99 13.27 33.12 11.81 33.19 11.07 C 33.83 11.06 35.10 11.04 35.74 11.03 C 35.83 11.67 36.03 12.95 36.12 13.59 C 37.20 14.51 39.10 15.10 38.92 16.86 C 39.07 23.94 39.06 31.03 38.93 38.11 C 39.04 40.16 36.85 41.27 35.06 40.99 C 29.03 40.92 22.98 41.25 16.96 40.81 C 14.55 39.92 15.04 36.98 14.97 34.96 C 15.10 28.91 14.84 22.86 15.09 16.82 C 14.96 15.10 16.82 14.49 17.89 13.59 C 17.97 12.96 18.13 11.70 18.21 11.07 M 18.19 19.05 C 18.18 19.52 18.18 20.47 18.18 20.95 C 22.72 21.03 27.27 21.03 31.81 20.95 C 31.82 20.48 31.83 19.53 31.84 19.06 C 27.29 18.97 22.74 18.97 18.19 19.05 M 18.18 24.05 C 18.18 24.52 18.18 25.48 18.18 25.95 C 23.39 26.03 28.60 26.02 33.80 25.96 C 33.81 25.48 33.83 24.53 33.83 24.05 C 28.61 23.97 23.40 23.97 18.18 24.05 M 18.19 29.04 C 18.19 29.52 18.18 30.47 18.18 30.95 C 22.84 31.02 27.50 31.08 32.16 30.88 C 32.00 30.45 31.70 29.59 31.55 29.16 C 27.11 28.76 22.64 29.07 18.19 29.04 M 18.18 34.04 C 18.18 34.52 18.18 35.48 18.18 35.96 C 24.07 36.02 29.95 36.04 35.84 35.94 C 35.84 35.47 35.83 34.53 35.83 34.06 C 29.95 33.96 24.06 33.98 18.18 34.04 Z" />
</g>
</svg>
