<?xml version="1.0" encoding="UTF-8" ?>
<!DOCTYPE svg PUBLIC "-//W3C//DTD SVG 1.1//EN" "http://www.w3.org/Graphics/SVG/1.1/DTD/svg11.dtd">
<svg width="54pt" height="54pt" viewBox="0 0 54 54" version="1.1" xmlns="http://www.w3.org/2000/svg">
<g id="#33b8ccff">
<path fill="#33b8cc" opacity="1.00" d=" M 25.62 0.00 L 28.22 0.00 C 41.62 0.39 53.31 11.93 54.00 25.30 L 54.00 28.30 C 53.56 41.68 42.02 53.34 28.67 54.00 L 25.78 54.00 C 12.25 53.62 0.45 41.83 0.00 28.32 L 0.00 25.83 C 0.37 12.31 12.11 0.48 25.62 0.00 M 25.24 14.17 C 20.64 14.96 16.90 19.27 17.01 23.98 C 17.10 30.26 21.08 36.76 27.01 39.05 C 32.92 36.74 36.90 30.27 36.99 24.00 C 37.21 18.00 31.08 12.96 25.24 14.17 Z" />
<path fill="#33b8cc" opacity="1.00" d=" M 25.35 20.36 C 27.87 19.08 31.15 21.25 31.01 24.05 C 31.11 27.16 27.11 29.19 24.67 27.26 C 22.18 25.65 22.60 21.45 25.35 20.36 Z" />
</g>
<g id="#ffffffff">
<path fill="#ffffff" opacity="1.00" d=" M 25.24 14.17 C 31.08 12.96 37.21 18.00 36.99 24.00 C 36.90 30.27 32.92 36.74 27.01 39.05 C 21.08 36.76 17.10 30.26 17.01 23.98 C 16.90 19.27 20.64 14.96 25.24 14.17 M 25.35 20.36 C 22.60 21.45 22.18 25.65 24.67 27.26 C 27.11 29.19 31.11 27.16 31.01 24.05 C 31.15 21.25 27.87 19.08 25.35 20.36 Z" />
</g>
</svg>
