<?xml version="1.0" encoding="UTF-8" ?>
<!DOCTYPE svg PUBLIC "-//W3C//DTD SVG 1.1//EN" "http://www.w3.org/Graphics/SVG/1.1/DTD/svg11.dtd">
<svg width="54pt" height="54pt" viewBox="0 0 54 54" version="1.1" xmlns="http://www.w3.org/2000/svg">
<g id="#33b8ccff">
<path fill="#33b8cc" opacity="1.00" d=" M 25.65 0.00 L 28.17 0.00 C 41.66 0.37 53.44 12.04 54.00 25.51 L 54.00 28.14 C 53.65 41.66 41.95 53.47 28.46 54.00 L 25.79 54.00 C 12.25 53.62 0.45 41.83 0.00 28.31 L 0.00 25.85 C 0.36 12.31 12.11 0.47 25.65 0.00 M 12.18 17.18 C 11.71 22.13 12.14 27.13 11.96 32.10 C 12.18 33.67 11.46 35.87 13.16 36.81 C 19.53 37.28 25.95 36.91 32.34 36.93 C 31.57 33.94 28.73 30.84 30.76 27.73 C 32.75 23.89 39.04 24.27 40.54 28.34 C 42.02 31.47 39.07 34.25 38.75 37.30 C 39.86 36.79 42.12 36.80 41.92 35.01 C 42.13 29.66 41.99 24.31 41.99 18.96 C 42.13 17.72 41.60 15.91 40.02 16.08 C 32.35 15.84 24.67 16.10 16.99 15.97 C 15.39 16.20 13.13 15.42 12.18 17.18 M 34.34 28.28 C 32.27 29.26 32.78 32.72 35.10 32.92 C 36.44 33.38 37.66 32.08 38.05 30.91 C 38.26 28.98 36.12 27.29 34.34 28.28 M 33.00 36.00 C 32.72 38.31 32.34 40.61 32.09 42.93 C 34.36 42.95 36.63 42.95 38.91 42.93 C 38.66 40.61 38.29 38.32 38.03 36.00 C 36.35 36.00 34.67 35.99 33.00 36.00 Z" />
<path fill="#33b8cc" opacity="1.00" d=" M 16.19 19.02 C 19.06 19.01 21.93 19.01 24.80 19.02 C 24.80 19.51 24.81 20.49 24.81 20.98 C 21.94 20.99 19.06 20.99 16.19 20.98 C 16.19 20.49 16.19 19.51 16.19 19.02 Z" />
<path fill="#33b8cc" opacity="1.00" d=" M 16.19 23.04 C 20.39 22.98 24.60 22.98 28.80 23.04 C 28.80 23.52 28.81 24.48 28.81 24.96 C 24.61 25.02 20.40 25.02 16.19 24.96 C 16.19 24.48 16.19 23.52 16.19 23.04 Z" />
</g>
<g id="#ffffffff">
<path fill="#ffffff" opacity="1.00" d=" M 12.18 17.18 C 13.13 15.42 15.39 16.20 16.99 15.97 C 24.67 16.10 32.35 15.84 40.02 16.08 C 41.60 15.91 42.13 17.72 41.99 18.96 C 41.99 24.31 42.13 29.66 41.92 35.01 C 42.12 36.80 39.86 36.79 38.75 37.30 C 39.07 34.25 42.02 31.47 40.54 28.34 C 39.04 24.27 32.75 23.89 30.76 27.73 C 28.73 30.84 31.57 33.94 32.34 36.93 C 25.95 36.91 19.53 37.28 13.16 36.81 C 11.46 35.87 12.18 33.67 11.96 32.10 C 12.14 27.13 11.71 22.13 12.18 17.18 M 16.19 19.02 C 16.19 19.51 16.19 20.49 16.19 20.98 C 19.06 20.99 21.94 20.99 24.81 20.98 C 24.81 20.49 24.80 19.51 24.80 19.02 C 21.93 19.01 19.06 19.01 16.19 19.02 M 16.19 23.04 C 16.19 23.52 16.19 24.48 16.19 24.96 C 20.40 25.02 24.61 25.02 28.81 24.96 C 28.81 24.48 28.80 23.52 28.80 23.04 C 24.60 22.98 20.39 22.98 16.19 23.04 Z" />
<path fill="#ffffff" opacity="1.00" d=" M 34.34 28.28 C 36.12 27.29 38.26 28.98 38.05 30.91 C 37.66 32.08 36.44 33.38 35.10 32.92 C 32.78 32.72 32.27 29.26 34.34 28.28 Z" />
<path fill="#ffffff" opacity="1.00" d=" M 33.00 36.00 C 34.67 35.99 36.35 36.00 38.03 36.00 C 38.29 38.32 38.66 40.61 38.91 42.93 C 36.63 42.95 34.36 42.95 32.09 42.93 C 32.34 40.61 32.72 38.31 33.00 36.00 Z" />
</g>
</svg>
