<?xml version="1.0" encoding="UTF-8" ?>
<!DOCTYPE svg PUBLIC "-//W3C//DTD SVG 1.1//EN" "http://www.w3.org/Graphics/SVG/1.1/DTD/svg11.dtd">
<svg width="54pt" height="54pt" viewBox="0 0 54 54" version="1.1" xmlns="http://www.w3.org/2000/svg">
<g id="#33b8ccff">
<path fill="#33b8cc" opacity="1.00" d=" M 25.62 0.00 L 28.21 0.00 C 41.65 0.38 53.36 11.98 54.00 25.39 L 54.00 28.29 C 53.56 41.71 41.98 53.39 28.59 54.00 L 25.73 54.00 C 12.23 53.59 0.47 41.84 0.00 28.35 L 0.00 25.79 C 0.39 12.28 12.12 0.49 25.62 0.00 M 19.22 14.04 C 19.39 17.60 16.65 20.48 17.04 24.02 C 17.49 27.43 19.49 30.51 19.47 34.00 C 19.28 35.92 17.12 38.46 19.81 39.51 C 24.61 38.70 28.81 35.97 33.34 34.29 C 36.20 32.84 39.70 32.20 41.98 29.86 C 43.40 28.37 41.33 27.07 40.05 26.71 C 35.49 25.07 35.12 19.29 31.57 16.51 C 29.97 15.09 27.82 14.70 25.86 14.05 C 24.42 11.65 20.05 10.68 19.22 14.04 M 28.37 37.76 C 29.20 39.75 31.24 41.92 33.57 40.66 C 35.94 39.70 35.51 36.92 34.88 34.97 C 32.70 35.88 30.51 36.76 28.37 37.76 Z" />
</g>
<g id="#ffffffff">
<path fill="#ffffff" opacity="1.00" d=" M 19.22 14.04 C 20.05 10.68 24.42 11.65 25.86 14.05 C 27.82 14.70 29.97 15.09 31.57 16.51 C 35.12 19.29 35.49 25.07 40.05 26.71 C 41.33 27.07 43.40 28.37 41.98 29.86 C 39.70 32.20 36.20 32.84 33.34 34.29 C 28.81 35.97 24.61 38.70 19.81 39.51 C 17.12 38.46 19.28 35.92 19.47 34.00 C 19.49 30.51 17.49 27.43 17.04 24.02 C 16.65 20.48 19.39 17.60 19.22 14.04 Z" />
<path fill="#ffffff" opacity="1.00" d=" M 28.37 37.76 C 30.51 36.76 32.70 35.88 34.88 34.97 C 35.51 36.92 35.94 39.70 33.57 40.66 C 31.24 41.92 29.20 39.75 28.37 37.76 Z" />
</g>
</svg>
