<?xml version="1.0" encoding="UTF-8" ?>
<!DOCTYPE svg PUBLIC "-//W3C//DTD SVG 1.1//EN" "http://www.w3.org/Graphics/SVG/1.1/DTD/svg11.dtd">
<svg width="54pt" height="54pt" viewBox="0 0 54 54" version="1.1" xmlns="http://www.w3.org/2000/svg">
<g id="#14b587ff">
<path fill="#14b587" opacity="1.00" d=" M 25.54 0.00 L 28.35 0.00 C 41.65 0.47 53.19 11.87 54.00 25.12 L 54.00 27.62 C 53.96 41.37 42.06 53.54 28.34 54.00 L 25.64 54.00 C 12.19 53.53 0.51 41.85 0.00 28.41 L 0.00 25.65 C 0.48 12.22 12.11 0.54 25.54 0.00 M 20.21 18.21 C 18.00 20.62 15.34 22.65 13.50 25.38 C 11.84 28.70 14.94 31.96 17.70 33.40 C 21.10 34.81 23.57 31.43 25.70 29.38 C 26.99 30.65 28.28 31.92 29.55 33.21 C 28.33 35.70 30.70 37.20 32.98 36.24 C 32.42 37.67 32.46 40.40 34.64 39.86 C 37.11 38.03 39.01 35.58 41.28 33.53 C 40.61 32.71 39.91 31.91 39.20 31.13 C 37.74 32.37 36.54 34.51 34.31 34.23 C 35.05 33.16 35.80 32.10 36.56 31.05 C 36.14 30.55 35.28 29.54 34.85 29.04 C 33.94 29.76 33.00 30.45 32.06 31.12 C 30.73 29.75 29.38 28.41 28.02 27.07 C 29.82 25.04 32.84 23.12 32.31 19.99 C 31.64 17.47 29.46 15.35 27.03 14.49 C 24.09 13.74 22.08 16.44 20.21 18.21 Z" />
<path fill="#14b587" opacity="1.00" d=" M 16.33 26.97 C 19.04 23.26 22.49 20.04 26.13 17.24 C 27.17 18.52 29.84 19.72 28.81 21.74 C 26.37 24.67 23.60 27.35 20.74 29.86 C 18.92 31.50 16.50 28.75 16.33 26.97 Z" />
</g>
<g id="#ffffffff">
<path fill="#ffffff" opacity="1.00" d=" M 20.21 18.21 C 22.08 16.44 24.09 13.74 27.03 14.49 C 29.46 15.35 31.64 17.47 32.31 19.99 C 32.84 23.12 29.82 25.04 28.02 27.07 C 29.38 28.41 30.73 29.75 32.06 31.12 C 33.00 30.45 33.94 29.76 34.85 29.04 C 35.28 29.54 36.14 30.55 36.56 31.05 C 35.80 32.10 35.05 33.16 34.31 34.23 C 36.54 34.51 37.74 32.37 39.20 31.13 C 39.91 31.91 40.61 32.71 41.28 33.53 C 39.01 35.58 37.11 38.03 34.64 39.86 C 32.46 40.40 32.42 37.67 32.98 36.24 C 30.70 37.20 28.33 35.70 29.55 33.21 C 28.28 31.92 26.99 30.65 25.70 29.38 C 23.57 31.43 21.10 34.81 17.70 33.40 C 14.94 31.96 11.84 28.70 13.50 25.38 C 15.34 22.65 18.00 20.62 20.21 18.21 M 16.33 26.97 C 16.50 28.75 18.92 31.50 20.74 29.86 C 23.60 27.35 26.37 24.67 28.81 21.74 C 29.84 19.72 27.17 18.52 26.13 17.24 C 22.49 20.04 19.04 23.26 16.33 26.97 Z" />
</g>
</svg>
