<?xml version="1.0" encoding="UTF-8" ?>
<!DOCTYPE svg PUBLIC "-//W3C//DTD SVG 1.1//EN" "http://www.w3.org/Graphics/SVG/1.1/DTD/svg11.dtd">
<svg width="54pt" height="54pt" viewBox="0 0 54 54" version="1.1" xmlns="http://www.w3.org/2000/svg">
<g id="#33b8ccff">
<path fill="#33b8cc" opacity="1.00" d=" M 25.37 0.00 L 28.58 0.00 C 41.67 0.61 52.93 11.71 54.00 24.72 L 54.00 29.07 C 53.08 41.96 42.14 52.96 29.27 54.00 L 25.39 54.00 C 12.11 53.38 0.65 41.89 0.00 28.62 L 0.00 25.40 C 0.63 12.13 12.09 0.64 25.37 0.00 M 21.19 17.22 C 18.67 19.99 15.64 22.32 13.48 25.40 C 11.85 28.74 14.95 31.95 17.70 33.40 C 21.10 34.81 23.57 31.43 25.70 29.38 C 26.99 30.64 28.27 31.90 29.52 33.19 C 29.32 34.36 29.35 35.53 29.83 36.64 C 30.65 36.51 32.28 36.26 33.10 36.13 C 32.92 36.88 32.56 38.37 32.38 39.12 C 32.95 39.32 34.10 39.71 34.67 39.90 C 36.94 38.00 39.05 35.89 40.97 33.62 C 40.89 32.48 40.28 31.73 39.14 31.38 C 37.58 32.36 36.44 34.52 34.32 34.22 C 35.09 33.12 35.87 32.03 36.66 30.95 C 35.88 30.34 35.12 29.72 34.36 29.09 C 33.62 29.79 32.88 30.49 32.13 31.18 C 30.77 29.80 29.40 28.43 28.02 27.07 C 29.48 25.46 31.40 24.09 32.19 21.99 C 33.09 18.84 30.31 16.24 27.88 14.77 C 25.31 13.48 22.85 15.40 21.19 17.22 Z" />
<path fill="#33b8cc" opacity="1.00" d=" M 16.31 26.94 C 19.10 23.30 22.44 20.01 26.12 17.27 C 27.19 18.48 29.85 19.76 28.81 21.74 C 26.37 24.65 23.61 27.32 20.77 29.84 C 18.96 31.54 16.50 28.74 16.31 26.94 Z" />
</g>
<g id="#ffffffff">
<path fill="#ffffff" opacity="1.00" d=" M 21.19 17.22 C 22.85 15.40 25.31 13.48 27.88 14.77 C 30.31 16.24 33.09 18.84 32.19 21.99 C 31.40 24.09 29.48 25.46 28.02 27.07 C 29.40 28.43 30.77 29.80 32.13 31.18 C 32.88 30.49 33.62 29.79 34.36 29.09 C 35.12 29.72 35.88 30.34 36.66 30.95 C 35.87 32.03 35.09 33.12 34.32 34.22 C 36.44 34.52 37.58 32.36 39.14 31.38 C 40.28 31.73 40.89 32.48 40.97 33.62 C 39.05 35.89 36.94 38.00 34.67 39.90 C 34.10 39.71 32.95 39.32 32.38 39.12 C 32.56 38.37 32.92 36.88 33.10 36.13 C 32.28 36.26 30.65 36.51 29.83 36.64 C 29.35 35.53 29.32 34.36 29.52 33.19 C 28.27 31.90 26.99 30.64 25.70 29.38 C 23.57 31.43 21.10 34.81 17.70 33.40 C 14.95 31.95 11.85 28.74 13.48 25.40 C 15.64 22.32 18.67 19.99 21.19 17.22 M 16.31 26.94 C 16.50 28.74 18.96 31.54 20.77 29.84 C 23.61 27.32 26.37 24.65 28.81 21.74 C 29.85 19.76 27.19 18.48 26.12 17.27 C 22.44 20.01 19.10 23.30 16.31 26.94 Z" />
</g>
</svg>
