<?xml version="1.0" encoding="UTF-8" ?>
<!DOCTYPE svg PUBLIC "-//W3C//DTD SVG 1.1//EN" "http://www.w3.org/Graphics/SVG/1.1/DTD/svg11.dtd">
<svg width="54pt" height="54pt" viewBox="0 0 54 54" version="1.1" xmlns="http://www.w3.org/2000/svg">
<g id="#14b587ff">
<path fill="#14b587" opacity="1.00" d=" M 25.57 0.00 L 28.32 0.00 C 41.70 0.45 53.33 11.99 54.00 25.34 L 54.00 27.61 C 53.97 41.37 42.04 53.57 28.30 54.00 L 25.68 54.00 C 12.21 53.55 0.52 41.86 0.00 28.41 L 0.00 25.70 C 0.45 12.24 12.11 0.52 25.57 0.00 M 12.10 14.18 C 11.87 14.40 11.40 14.84 11.17 15.06 C 10.86 20.33 10.85 25.65 11.17 30.92 C 11.40 31.14 11.86 31.60 12.09 31.83 C 20.70 32.27 29.35 31.84 37.98 32.03 C 39.58 31.77 41.87 32.63 42.83 30.89 C 43.15 25.64 43.15 20.35 42.83 15.10 C 42.60 14.87 42.16 14.41 41.94 14.18 C 32.01 13.87 22.03 13.87 12.10 14.18 M 10.51 33.04 C 11.31 33.91 11.28 36.16 12.89 35.93 C 22.27 36.06 31.67 36.05 41.05 35.94 C 42.71 36.22 42.67 33.93 43.49 33.04 C 37.95 32.97 32.54 34.50 26.99 34.03 C 21.44 34.51 16.04 32.96 10.51 33.04 M 10.52 37.05 C 11.31 37.93 11.28 40.17 12.88 39.93 C 22.27 40.06 31.67 40.05 41.06 39.94 C 42.69 40.20 42.69 37.94 43.49 37.05 C 37.95 36.89 32.56 38.54 27.00 38.03 C 21.45 38.54 16.05 36.90 10.52 37.05 Z" />
<path fill="#14b587" opacity="1.00" d=" M 17.82 16.04 C 23.94 15.97 30.05 15.98 36.17 16.03 C 37.49 17.96 39.09 19.66 40.96 21.06 C 40.97 22.35 40.97 23.65 40.96 24.94 C 39.11 26.35 37.50 28.06 36.18 29.97 C 30.06 30.02 23.95 30.02 17.83 29.97 C 16.51 28.05 14.89 26.35 13.04 24.94 C 13.03 23.65 13.03 22.35 13.04 21.06 C 14.91 19.67 16.51 17.97 17.82 16.04 M 25.26 18.32 C 21.94 19.40 20.88 24.17 23.48 26.54 C 26.05 29.38 31.30 27.77 31.89 24.01 C 32.83 20.35 28.73 16.83 25.26 18.32 Z" />
</g>
<g id="#ffffffff">
<path fill="#ffffff" opacity="1.00" d=" M 12.10 14.18 C 22.03 13.87 32.01 13.87 41.94 14.18 C 42.16 14.41 42.60 14.87 42.83 15.10 C 43.15 20.35 43.15 25.64 42.83 30.89 C 41.87 32.63 39.58 31.77 37.98 32.03 C 29.35 31.84 20.70 32.27 12.09 31.83 C 11.86 31.60 11.40 31.14 11.17 30.92 C 10.85 25.65 10.86 20.33 11.17 15.06 C 11.40 14.84 11.87 14.40 12.10 14.18 M 17.82 16.04 C 16.51 17.97 14.91 19.67 13.04 21.06 C 13.03 22.35 13.03 23.65 13.04 24.94 C 14.89 26.35 16.51 28.05 17.83 29.97 C 23.95 30.02 30.06 30.02 36.18 29.97 C 37.50 28.06 39.11 26.35 40.96 24.94 C 40.97 23.65 40.97 22.35 40.96 21.06 C 39.09 19.66 37.49 17.96 36.17 16.03 C 30.05 15.98 23.94 15.97 17.82 16.04 Z" />
<path fill="#ffffff" opacity="1.00" d=" M 25.26 18.32 C 28.73 16.83 32.83 20.35 31.89 24.01 C 31.30 27.77 26.05 29.38 23.48 26.54 C 20.88 24.17 21.94 19.40 25.26 18.32 Z" />
<path fill="#ffffff" opacity="1.00" d=" M 10.51 33.04 C 16.04 32.96 21.44 34.51 26.99 34.03 C 32.54 34.50 37.95 32.97 43.49 33.04 C 42.67 33.93 42.71 36.22 41.05 35.94 C 31.67 36.05 22.27 36.06 12.89 35.93 C 11.28 36.16 11.31 33.91 10.51 33.04 Z" />
<path fill="#ffffff" opacity="1.00" d=" M 10.52 37.05 C 16.05 36.90 21.45 38.54 27.00 38.03 C 32.56 38.54 37.95 36.89 43.49 37.05 C 42.69 37.94 42.69 40.20 41.06 39.94 C 31.67 40.05 22.27 40.06 12.88 39.93 C 11.28 40.17 11.31 37.93 10.52 37.05 Z" />
</g>
</svg>
