<?xml version="1.0" encoding="UTF-8" ?>
<!DOCTYPE svg PUBLIC "-//W3C//DTD SVG 1.1//EN" "http://www.w3.org/Graphics/SVG/1.1/DTD/svg11.dtd">
<svg width="54pt" height="54pt" viewBox="0 0 54 54" version="1.1" xmlns="http://www.w3.org/2000/svg">
<g id="#33b8ccff">
<path fill="#33b8cc" opacity="1.00" d=" M 25.36 0.00 L 28.60 0.00 C 41.67 0.62 52.91 11.69 54.00 24.68 L 54.00 29.12 C 53.05 41.97 42.14 52.94 29.30 54.00 L 25.40 54.00 C 12.12 53.38 0.65 41.90 0.00 28.63 L 0.00 25.40 C 0.64 12.13 12.08 0.65 25.36 0.00 M 12.06 14.17 C 11.84 14.39 11.39 14.85 11.16 15.08 C 10.87 20.33 10.86 25.63 11.16 30.88 C 11.38 31.12 11.83 31.60 12.05 31.84 C 22.00 32.11 31.99 32.12 41.93 31.84 C 42.16 31.60 42.61 31.13 42.84 30.89 C 43.14 25.63 43.13 20.33 42.84 15.08 C 42.60 14.85 42.12 14.39 41.87 14.16 C 31.95 13.89 21.98 13.88 12.06 14.17 M 10.64 33.07 C 11.28 34.05 11.23 36.21 12.93 35.94 C 22.29 36.05 31.66 36.05 41.03 35.94 C 42.79 36.28 42.66 34.03 43.37 33.08 C 39.18 32.62 35.14 34.22 30.96 34.04 C 27.29 33.92 23.60 34.17 19.93 33.94 C 16.86 33.45 13.78 32.80 10.64 33.07 M 10.63 37.07 C 11.33 38.02 11.19 40.24 12.92 39.94 C 22.29 40.05 31.67 40.05 41.04 39.94 C 42.78 40.25 42.68 38.04 43.37 37.07 C 40.21 36.79 37.12 37.46 34.02 37.94 C 30.37 38.16 26.70 37.92 23.04 38.04 C 18.86 38.22 14.82 36.63 10.63 37.07 Z" />
<path fill="#33b8cc" opacity="1.00" d=" M 13.03 21.02 C 14.96 19.68 16.56 17.97 17.84 16.01 C 23.96 16.00 30.09 15.98 36.22 16.02 C 37.44 18.01 39.05 19.69 40.97 21.01 C 40.97 22.34 40.97 23.66 40.97 24.99 C 39.07 26.33 37.45 28.01 36.21 29.97 C 30.10 30.02 23.98 29.99 17.87 30.00 C 16.56 28.05 14.95 26.35 13.03 24.98 C 13.03 23.66 13.03 22.34 13.03 21.02 M 25.16 18.35 C 21.65 19.57 20.90 24.80 23.94 26.94 C 26.65 29.28 31.33 27.50 31.90 24.00 C 32.84 20.30 28.64 16.77 25.16 18.35 Z" />
</g>
<g id="#ffffffff">
<path fill="#ffffff" opacity="1.00" d=" M 12.06 14.17 C 21.98 13.88 31.95 13.89 41.87 14.16 C 42.12 14.39 42.60 14.85 42.84 15.08 C 43.13 20.33 43.14 25.63 42.84 30.89 C 42.61 31.13 42.16 31.60 41.93 31.84 C 31.99 32.12 22.00 32.11 12.05 31.84 C 11.83 31.60 11.38 31.12 11.16 30.88 C 10.86 25.63 10.87 20.33 11.16 15.08 C 11.39 14.85 11.84 14.39 12.06 14.17 M 13.03 21.02 C 13.03 22.34 13.03 23.66 13.03 24.98 C 14.95 26.35 16.56 28.05 17.87 30.00 C 23.98 29.99 30.10 30.02 36.21 29.97 C 37.45 28.01 39.07 26.33 40.97 24.99 C 40.97 23.66 40.97 22.34 40.97 21.01 C 39.05 19.69 37.44 18.01 36.22 16.02 C 30.09 15.98 23.96 16.00 17.84 16.01 C 16.56 17.97 14.96 19.68 13.03 21.02 Z" />
<path fill="#ffffff" opacity="1.00" d=" M 25.16 18.35 C 28.64 16.77 32.84 20.30 31.90 24.00 C 31.33 27.50 26.65 29.28 23.94 26.94 C 20.90 24.80 21.65 19.57 25.16 18.35 Z" />
<path fill="#ffffff" opacity="1.00" d=" M 10.64 33.07 C 13.78 32.80 16.86 33.45 19.93 33.94 C 23.60 34.17 27.29 33.92 30.96 34.04 C 35.14 34.22 39.18 32.62 43.37 33.08 C 42.66 34.03 42.79 36.28 41.03 35.94 C 31.66 36.05 22.29 36.05 12.93 35.94 C 11.23 36.21 11.28 34.05 10.64 33.07 Z" />
<path fill="#ffffff" opacity="1.00" d=" M 10.63 37.07 C 14.82 36.63 18.86 38.22 23.04 38.04 C 26.70 37.92 30.37 38.16 34.02 37.94 C 37.12 37.46 40.21 36.79 43.37 37.07 C 42.68 38.04 42.78 40.25 41.04 39.94 C 31.67 40.05 22.29 40.05 12.92 39.94 C 11.19 40.24 11.33 38.02 10.63 37.07 Z" />
</g>
</svg>
