<?xml version="1.0" encoding="UTF-8" ?>
<!DOCTYPE svg PUBLIC "-//W3C//DTD SVG 1.1//EN" "http://www.w3.org/Graphics/SVG/1.1/DTD/svg11.dtd">
<svg width="54pt" height="54pt" viewBox="0 0 54 54" version="1.1" xmlns="http://www.w3.org/2000/svg">
<g id="#14b587ff">
<path fill="#14b587" opacity="1.00" d=" M 25.37 0.00 L 28.55 0.00 C 41.66 0.59 52.94 11.71 54.00 24.73 L 54.00 27.70 C 53.91 41.34 42.17 53.39 28.57 54.00 L 24.89 54.00 C 11.82 53.06 0.66 41.75 0.00 28.64 L 0.00 24.97 C 0.91 11.87 12.22 0.64 25.37 0.00 M 13.58 18.07 C 17.30 21.38 21.26 24.42 25.18 27.48 C 29.18 24.40 33.12 21.25 37.01 18.03 C 29.20 18.00 21.39 17.93 13.58 18.07 M 26.43 27.69 C 25.31 28.51 23.92 27.83 22.99 27.07 C 19.62 24.50 16.41 21.71 13.03 19.16 C 13.11 24.06 12.71 28.99 13.20 33.88 C 13.43 34.11 13.89 34.58 14.12 34.81 C 19.23 35.29 24.39 34.88 29.52 35.00 C 29.99 32.42 32.11 31.74 34.45 31.74 C 35.48 30.75 36.70 30.01 37.99 29.43 C 38.02 25.87 38.01 22.31 37.94 18.75 C 33.98 21.57 30.43 24.93 26.43 27.69 M 36.55 30.95 C 36.31 31.46 35.81 32.47 35.57 32.97 C 34.07 33.01 32.58 33.05 31.08 33.10 C 31.08 34.37 31.08 35.64 31.09 36.91 C 32.58 36.95 34.07 36.99 35.57 37.03 C 35.81 37.53 36.30 38.54 36.55 39.04 C 39.29 38.63 41.37 36.45 43.64 35.00 C 41.37 33.55 39.31 31.39 36.55 30.95 Z" />
</g>
<g id="#ffffffff">
<path fill="#ffffff" opacity="1.00" d=" M 13.58 18.07 C 21.39 17.93 29.20 18.00 37.01 18.03 C 33.12 21.25 29.18 24.40 25.18 27.48 C 21.26 24.42 17.30 21.38 13.58 18.07 Z" />
<path fill="#ffffff" opacity="1.00" d=" M 26.43 27.69 C 30.43 24.93 33.98 21.57 37.94 18.75 C 38.01 22.31 38.02 25.87 37.99 29.43 C 36.70 30.01 35.48 30.75 34.45 31.74 C 32.11 31.74 29.99 32.42 29.52 35.00 C 24.39 34.88 19.23 35.29 14.12 34.81 C 13.89 34.58 13.43 34.11 13.20 33.88 C 12.71 28.99 13.11 24.06 13.03 19.16 C 16.41 21.71 19.62 24.50 22.99 27.07 C 23.92 27.83 25.31 28.51 26.43 27.69 Z" />
<path fill="#ffffff" opacity="1.00" d=" M 36.55 30.95 C 39.31 31.39 41.37 33.55 43.64 35.00 C 41.37 36.45 39.29 38.63 36.55 39.04 C 36.30 38.54 35.81 37.53 35.57 37.03 C 34.07 36.99 32.58 36.95 31.09 36.91 C 31.08 35.64 31.08 34.37 31.08 33.10 C 32.58 33.05 34.07 33.01 35.57 32.97 C 35.81 32.47 36.31 31.46 36.55 30.95 Z" />
</g>
</svg>
