<?xml version="1.0" encoding="UTF-8" ?>
<!DOCTYPE svg PUBLIC "-//W3C//DTD SVG 1.1//EN" "http://www.w3.org/Graphics/SVG/1.1/DTD/svg11.dtd">
<svg width="54pt" height="54pt" viewBox="0 0 54 54" version="1.1" xmlns="http://www.w3.org/2000/svg">
<g id="#33b8ccff">
<path fill="#33b8cc" opacity="1.00" d=" M 25.53 0.00 L 28.39 0.00 C 41.64 0.50 53.12 11.82 54.00 25.01 L 54.00 28.63 C 53.35 41.81 42.05 53.20 28.89 54.00 L 25.55 54.00 C 12.16 53.48 0.55 41.85 0.00 28.47 L 0.00 25.65 C 0.48 12.22 12.11 0.54 25.53 0.00 M 19.62 9.65 C 16.61 10.84 16.30 14.46 15.66 17.17 C 14.42 21.23 20.64 22.84 19.80 26.79 C 17.25 29.00 12.61 28.63 11.30 32.21 C 11.01 34.32 10.19 37.26 12.09 38.81 C 17.08 39.35 22.12 38.76 27.12 39.02 C 29.88 39.21 32.20 41.55 35.08 40.91 C 39.66 40.44 43.02 35.45 41.74 31.02 C 40.83 27.19 36.83 24.48 32.94 25.07 C 30.76 25.28 29.09 26.83 27.37 28.01 C 23.84 24.75 29.47 22.06 30.45 19.04 C 30.40 16.43 29.73 13.77 28.58 11.42 C 26.57 8.72 22.54 8.50 19.62 9.65 Z" />
<path fill="#33b8cc" opacity="1.00" d=" M 32.16 28.19 C 35.55 27.04 39.94 29.17 39.91 33.05 C 40.50 36.77 36.64 39.81 33.12 38.80 C 28.11 37.98 27.35 29.88 32.16 28.19 M 33.54 38.03 C 33.88 38.02 34.55 38.00 34.89 37.99 C 34.83 35.91 34.76 33.83 34.59 31.76 C 32.69 33.28 33.78 35.97 33.54 38.03 Z" />
</g>
<g id="#ffffffff">
<path fill="#ffffff" opacity="1.00" d=" M 19.62 9.65 C 22.54 8.50 26.57 8.72 28.58 11.42 C 29.73 13.77 30.40 16.43 30.45 19.04 C 29.47 22.06 23.84 24.75 27.37 28.01 C 29.09 26.83 30.76 25.28 32.94 25.07 C 36.83 24.48 40.83 27.19 41.74 31.02 C 43.02 35.45 39.66 40.44 35.08 40.91 C 32.20 41.55 29.88 39.21 27.12 39.02 C 22.12 38.76 17.08 39.35 12.09 38.81 C 10.19 37.26 11.01 34.32 11.30 32.21 C 12.61 28.63 17.25 29.00 19.80 26.79 C 20.64 22.84 14.42 21.23 15.66 17.17 C 16.30 14.46 16.61 10.84 19.62 9.65 M 32.16 28.19 C 27.35 29.88 28.11 37.98 33.12 38.80 C 36.64 39.81 40.50 36.77 39.91 33.05 C 39.94 29.17 35.55 27.04 32.16 28.19 Z" />
<path fill="#ffffff" opacity="1.00" d=" M 33.54 38.03 C 33.78 35.97 32.69 33.28 34.59 31.76 C 34.76 33.83 34.83 35.91 34.89 37.99 C 34.55 38.00 33.88 38.02 33.54 38.03 Z" />
</g>
</svg>
