<?xml version="1.0" encoding="UTF-8" ?>
<!DOCTYPE svg PUBLIC "-//W3C//DTD SVG 1.1//EN" "http://www.w3.org/Graphics/SVG/1.1/DTD/svg11.dtd">
<svg width="54pt" height="54pt" viewBox="0 0 54 54" version="1.1" xmlns="http://www.w3.org/2000/svg">
<g id="#33b8ccff">
<path fill="#33b8cc" opacity="1.00" d=" M 25.50 0.00 L 28.40 0.00 C 41.68 0.50 53.20 11.89 54.00 25.13 L 54.00 28.63 C 53.35 41.83 42.02 53.23 28.83 54.00 L 25.57 54.00 C 12.16 53.49 0.54 41.84 0.00 28.44 L 0.00 25.60 C 0.51 12.20 12.11 0.56 25.50 0.00 M 28.51 15.33 C 28.10 14.00 27.64 12.68 26.80 11.56 C 25.90 13.73 24.85 15.84 23.68 17.89 C 20.86 19.14 18.09 20.49 15.31 21.83 C 14.63 25.50 13.10 28.94 10.89 31.94 C 11.91 33.93 13.40 36.15 15.96 36.00 C 18.54 36.19 20.09 33.97 21.11 31.95 C 19.22 29.31 17.92 26.34 16.73 23.34 C 19.69 21.86 22.67 20.33 25.93 19.61 C 26.04 25.25 26.02 30.89 25.97 36.52 C 23.49 37.54 21.52 39.41 20.55 41.93 C 24.85 42.04 29.15 42.04 33.45 41.92 C 32.48 39.41 30.50 37.53 28.03 36.52 C 28.00 31.26 27.93 25.99 28.09 20.72 C 28.88 19.50 29.66 18.28 30.44 17.05 C 32.61 15.94 34.82 14.88 37.05 13.88 C 35.94 16.71 34.64 19.47 32.89 21.96 C 33.93 23.95 35.44 26.18 38.00 26.00 C 40.57 26.17 42.09 23.95 43.10 21.94 C 40.75 18.70 39.08 15.00 38.61 11.01 C 35.28 12.53 31.98 14.14 28.51 15.33 Z" />
<path fill="#33b8cc" opacity="1.00" d=" M 26.13 15.87 C 27.82 14.02 30.61 18.35 27.90 19.16 C 26.14 21.01 23.36 16.63 26.13 15.87 Z" />
<path fill="#33b8cc" opacity="1.00" d=" M 35.00 21.00 C 35.99 18.75 36.99 16.50 37.99 14.25 C 39.00 16.49 40.00 18.75 41.00 21.00 C 39.00 21.00 37.00 21.00 35.00 21.00 Z" />
<path fill="#33b8cc" opacity="1.00" d=" M 13.00 31.00 C 13.99 28.75 14.99 26.50 15.99 24.25 C 17.01 26.49 18.00 28.75 19.00 31.00 C 17.00 31.00 15.00 31.00 13.00 31.00 Z" />
</g>
<g id="#ffffffff">
<path fill="#ffffff" opacity="1.00" d=" M 28.51 15.33 C 31.98 14.14 35.28 12.53 38.61 11.01 C 39.08 15.00 40.75 18.70 43.10 21.94 C 42.09 23.95 40.57 26.17 38.00 26.00 C 35.44 26.18 33.93 23.95 32.89 21.96 C 34.64 19.47 35.94 16.71 37.05 13.88 C 34.82 14.88 32.61 15.94 30.44 17.05 C 29.66 18.28 28.88 19.50 28.09 20.72 C 27.93 25.99 28.00 31.26 28.03 36.52 C 30.50 37.53 32.48 39.41 33.45 41.92 C 29.15 42.04 24.85 42.04 20.55 41.93 C 21.52 39.41 23.49 37.54 25.97 36.52 C 26.02 30.89 26.04 25.25 25.93 19.61 C 22.67 20.33 19.69 21.86 16.73 23.34 C 17.92 26.34 19.22 29.31 21.11 31.95 C 20.09 33.97 18.54 36.19 15.96 36.00 C 13.40 36.15 11.91 33.93 10.89 31.94 C 13.10 28.94 14.63 25.50 15.31 21.83 C 18.09 20.49 20.86 19.14 23.68 17.89 C 24.85 15.84 25.90 13.73 26.80 11.56 C 27.64 12.68 28.10 14.00 28.51 15.33 M 26.13 15.87 C 23.36 16.63 26.14 21.01 27.90 19.16 C 30.61 18.35 27.82 14.02 26.13 15.87 M 35.00 21.00 C 37.00 21.00 39.00 21.00 41.00 21.00 C 40.00 18.75 39.00 16.49 37.99 14.25 C 36.99 16.50 35.99 18.75 35.00 21.00 M 13.00 31.00 C 15.00 31.00 17.00 31.00 19.00 31.00 C 18.00 28.75 17.01 26.49 15.99 24.25 C 14.99 26.50 13.99 28.75 13.00 31.00 Z" />
</g>
</svg>
