<?xml version="1.0" encoding="UTF-8" ?>
<!DOCTYPE svg PUBLIC "-//W3C//DTD SVG 1.1//EN" "http://www.w3.org/Graphics/SVG/1.1/DTD/svg11.dtd">
<svg width="54pt" height="54pt" viewBox="0 0 54 54" version="1.1" xmlns="http://www.w3.org/2000/svg">
<g id="#33b8ccff">
<path fill="#33b8cc" opacity="1.00" d=" M 25.54 0.00 L 28.30 0.00 C 41.66 0.44 53.28 11.94 54.00 25.26 L 54.00 28.49 C 53.44 41.79 41.97 53.33 28.68 54.00 L 25.66 54.00 C 12.21 53.55 0.52 41.86 0.00 28.42 L 0.00 25.73 C 0.43 12.27 12.09 0.54 25.54 0.00 M 36.40 9.85 C 36.21 10.35 35.81 11.34 35.62 11.84 C 27.93 15.00 19.84 17.15 12.08 20.13 C 10.48 20.43 11.32 22.36 11.74 23.27 C 20.01 20.60 28.21 17.73 36.43 14.90 C 36.94 15.25 37.96 15.94 38.47 16.29 C 39.47 14.79 40.42 13.26 41.47 11.79 C 39.81 11.06 38.07 10.54 36.40 9.85 M 35.00 19.08 C 35.13 25.67 34.75 32.27 35.17 38.85 C 36.32 40.60 39.58 40.52 40.83 38.91 C 41.25 31.62 40.88 24.29 41.00 16.98 C 39.00 17.68 37.00 18.38 35.00 19.08 M 27.00 21.85 C 27.13 27.52 26.74 33.22 27.17 38.88 C 28.37 40.58 31.65 40.55 32.84 38.86 C 33.24 32.51 32.89 26.13 32.99 19.77 C 31.00 20.46 29.00 21.15 27.00 21.85 M 19.08 24.52 C 19.04 29.30 18.77 34.10 19.17 38.86 C 20.33 40.59 23.62 40.54 24.83 38.89 C 25.25 33.46 24.88 28.01 25.00 22.57 C 23.03 23.22 21.06 23.90 19.08 24.52 M 11.01 27.37 C 11.08 31.19 10.77 35.02 11.16 38.83 C 12.28 40.62 15.60 40.52 16.84 38.89 C 17.25 34.39 16.89 29.85 17.00 25.34 C 15.00 26.02 13.01 26.70 11.01 27.37 Z" />
</g>
<g id="#ffffffff">
<path fill="#ffffff" opacity="1.00" d=" M 36.40 9.85 C 38.07 10.54 39.81 11.06 41.47 11.79 C 40.42 13.26 39.47 14.79 38.47 16.29 C 37.96 15.94 36.94 15.25 36.43 14.90 C 28.21 17.73 20.01 20.60 11.74 23.27 C 11.32 22.36 10.48 20.43 12.08 20.13 C 19.84 17.15 27.93 15.00 35.62 11.84 C 35.81 11.34 36.21 10.35 36.40 9.85 Z" />
<path fill="#ffffff" opacity="1.00" d=" M 35.00 19.08 C 37.00 18.38 39.00 17.68 41.00 16.98 C 40.88 24.29 41.25 31.62 40.83 38.91 C 39.58 40.52 36.32 40.60 35.17 38.85 C 34.75 32.27 35.13 25.67 35.00 19.08 Z" />
<path fill="#ffffff" opacity="1.00" d=" M 27.00 21.85 C 29.00 21.15 31.00 20.46 32.99 19.77 C 32.89 26.13 33.24 32.51 32.84 38.86 C 31.65 40.55 28.37 40.58 27.17 38.88 C 26.74 33.22 27.13 27.52 27.00 21.85 Z" />
<path fill="#ffffff" opacity="1.00" d=" M 19.08 24.52 C 21.06 23.90 23.03 23.22 25.00 22.57 C 24.88 28.01 25.25 33.46 24.83 38.89 C 23.62 40.54 20.33 40.59 19.17 38.86 C 18.77 34.10 19.04 29.30 19.08 24.52 Z" />
<path fill="#ffffff" opacity="1.00" d=" M 11.01 27.37 C 13.01 26.70 15.00 26.02 17.00 25.34 C 16.89 29.85 17.25 34.39 16.84 38.89 C 15.60 40.52 12.28 40.62 11.16 38.83 C 10.77 35.02 11.08 31.19 11.01 27.37 Z" />
</g>
</svg>
