<?xml version="1.0" encoding="UTF-8" ?>
<!DOCTYPE svg PUBLIC "-//W3C//DTD SVG 1.1//EN" "http://www.w3.org/Graphics/SVG/1.1/DTD/svg11.dtd">
<svg width="54pt" height="54pt" viewBox="0 0 54 54" version="1.1" xmlns="http://www.w3.org/2000/svg">
<g id="#14b587ff">
<path fill="#14b587" opacity="1.00" d=" M 25.41 0.00 L 28.49 0.00 C 41.65 0.56 53.01 11.75 54.00 24.84 L 54.00 27.66 C 53.93 41.34 42.14 53.44 28.50 54.00 L 25.48 54.00 C 12.15 53.43 0.61 41.89 0.00 28.56 L 0.00 25.49 C 0.58 12.17 12.08 0.62 25.41 0.00 M 28.25 15.41 C 28.08 14.42 27.72 12.43 27.54 11.44 C 26.70 12.31 26.09 13.35 25.57 14.43 C 24.92 15.58 24.26 16.73 23.61 17.88 C 20.80 19.19 18.00 20.52 15.21 21.88 C 14.69 25.56 13.07 28.97 10.88 31.95 C 11.94 33.95 13.45 36.21 16.05 36.01 C 18.60 36.15 20.09 33.93 21.10 31.93 C 19.20 29.31 17.92 26.33 16.72 23.34 C 19.68 21.83 22.71 20.39 25.94 19.58 C 26.05 25.23 25.99 30.88 25.99 36.54 C 23.48 37.48 21.52 39.44 20.55 41.93 C 24.85 42.04 29.15 42.04 33.45 41.93 C 32.48 39.43 30.52 37.47 28.01 36.54 C 28.01 31.27 27.94 26.00 28.08 20.73 C 28.88 19.51 29.68 18.28 30.45 17.04 C 32.63 15.93 34.83 14.88 37.06 13.88 C 35.92 16.68 34.69 19.48 32.89 21.94 C 33.92 23.94 35.42 26.17 37.98 26.01 C 40.57 26.19 42.07 23.94 43.12 21.94 C 40.80 18.69 38.89 14.96 38.74 10.89 C 35.32 12.58 31.86 14.18 28.25 15.41 Z" />
<path fill="#14b587" opacity="1.00" d=" M 26.08 15.88 C 27.80 14.01 30.66 18.37 27.88 19.16 C 26.19 21.01 23.37 16.69 26.08 15.88 Z" />
<path fill="#14b587" opacity="1.00" d=" M 35.00 21.00 C 36.00 18.75 36.99 16.49 37.99 14.24 C 39.00 16.49 40.00 18.74 41.00 21.00 C 39.00 21.00 37.00 21.00 35.00 21.00 Z" />
<path fill="#14b587" opacity="1.00" d=" M 13.00 31.00 C 14.00 28.75 15.00 26.50 15.99 24.24 C 17.00 26.49 18.00 28.74 19.00 31.00 C 17.00 31.00 15.00 31.00 13.00 31.00 Z" />
</g>
<g id="#ffffffff">
<path fill="#ffffff" opacity="1.00" d=" M 28.25 15.41 C 31.86 14.18 35.32 12.58 38.74 10.89 C 38.89 14.96 40.80 18.69 43.12 21.94 C 42.07 23.94 40.57 26.19 37.98 26.01 C 35.42 26.17 33.92 23.94 32.89 21.94 C 34.69 19.48 35.92 16.68 37.06 13.88 C 34.83 14.88 32.63 15.93 30.45 17.04 C 29.68 18.28 28.88 19.51 28.08 20.73 C 27.94 26.00 28.01 31.27 28.01 36.54 C 30.52 37.47 32.48 39.43 33.45 41.93 C 29.15 42.04 24.85 42.04 20.55 41.93 C 21.52 39.44 23.48 37.48 25.99 36.54 C 25.99 30.88 26.05 25.23 25.94 19.58 C 22.71 20.39 19.68 21.83 16.72 23.34 C 17.92 26.33 19.20 29.31 21.10 31.93 C 20.09 33.93 18.60 36.15 16.05 36.01 C 13.45 36.21 11.94 33.95 10.88 31.95 C 13.07 28.97 14.69 25.56 15.21 21.88 C 18.00 20.52 20.80 19.19 23.61 17.88 C 24.26 16.73 24.92 15.58 25.57 14.43 C 26.09 13.35 26.70 12.31 27.54 11.44 C 27.72 12.43 28.08 14.42 28.25 15.41 M 26.08 15.88 C 23.37 16.69 26.19 21.01 27.88 19.16 C 30.66 18.37 27.80 14.01 26.08 15.88 M 35.00 21.00 C 37.00 21.00 39.00 21.00 41.00 21.00 C 40.00 18.74 39.00 16.49 37.99 14.24 C 36.99 16.49 36.00 18.75 35.00 21.00 M 13.00 31.00 C 15.00 31.00 17.00 31.00 19.00 31.00 C 18.00 28.74 17.00 26.49 15.99 24.24 C 15.00 26.50 14.00 28.75 13.00 31.00 Z" />
</g>
</svg>
