<?xml version="1.0" encoding="UTF-8" ?>
<!DOCTYPE svg PUBLIC "-//W3C//DTD SVG 1.1//EN" "http://www.w3.org/Graphics/SVG/1.1/DTD/svg11.dtd">
<svg width="54pt" height="54pt" viewBox="0 0 54 54" version="1.1" xmlns="http://www.w3.org/2000/svg">
<g id="#14b587ff">
<path fill="#14b587" opacity="1.00" d=" M 25.41 0.00 L 28.53 0.00 C 41.66 0.58 52.98 11.74 54.00 24.80 L 54.00 27.72 C 53.90 41.36 42.16 53.41 28.56 54.00 L 24.97 54.00 C 11.85 53.11 0.62 41.74 0.00 28.58 L 0.00 24.99 C 0.90 11.87 12.24 0.62 25.41 0.00 M 36.29 9.87 C 36.14 10.37 35.84 11.38 35.69 11.88 C 27.50 15.18 18.83 17.27 10.73 20.83 C 11.02 21.43 11.59 22.62 11.87 23.21 C 20.13 20.58 28.30 17.69 36.50 14.87 C 36.99 15.23 37.99 15.95 38.49 16.31 C 39.46 14.81 40.42 13.31 41.44 11.84 C 39.76 11.08 38.05 10.39 36.29 9.87 M 35.00 19.07 C 35.11 25.67 34.77 32.28 35.16 38.87 C 36.33 40.59 39.68 40.56 40.85 38.85 C 41.21 31.57 40.90 24.27 40.99 16.99 C 39.00 17.68 37.00 18.38 35.00 19.07 M 27.00 21.86 C 27.12 27.52 26.77 33.20 27.16 38.85 C 28.31 40.60 31.69 40.56 32.85 38.84 C 33.21 32.50 32.90 26.13 32.99 19.77 C 30.99 20.46 28.99 21.15 27.00 21.86 M 19.08 24.53 C 19.03 29.29 18.80 34.07 19.15 38.82 C 20.24 40.62 23.65 40.55 24.85 38.88 C 25.22 33.45 24.89 28.00 25.00 22.56 C 23.03 23.24 21.06 23.90 19.08 24.53 M 11.02 27.36 C 11.08 31.20 10.79 35.05 11.16 38.88 C 12.34 40.58 15.67 40.56 16.85 38.85 C 17.22 34.36 16.89 29.84 17.00 25.34 C 15.01 26.02 13.02 26.70 11.02 27.36 Z" />
</g>
<g id="#ffffffff">
<path fill="#ffffff" opacity="1.00" d=" M 36.29 9.87 C 38.05 10.39 39.76 11.08 41.44 11.84 C 40.42 13.31 39.46 14.81 38.49 16.31 C 37.99 15.95 36.99 15.23 36.50 14.87 C 28.30 17.69 20.13 20.58 11.87 23.21 C 11.59 22.62 11.02 21.43 10.73 20.83 C 18.83 17.27 27.50 15.18 35.69 11.88 C 35.84 11.38 36.14 10.37 36.29 9.87 Z" />
<path fill="#ffffff" opacity="1.00" d=" M 35.00 19.07 C 37.00 18.38 39.00 17.68 40.99 16.99 C 40.90 24.27 41.21 31.57 40.85 38.85 C 39.68 40.56 36.33 40.59 35.16 38.87 C 34.77 32.28 35.11 25.67 35.00 19.07 Z" />
<path fill="#ffffff" opacity="1.00" d=" M 27.00 21.86 C 28.99 21.15 30.99 20.46 32.99 19.77 C 32.90 26.13 33.21 32.50 32.85 38.84 C 31.69 40.56 28.31 40.60 27.16 38.85 C 26.77 33.20 27.12 27.52 27.00 21.86 Z" />
<path fill="#ffffff" opacity="1.00" d=" M 19.08 24.53 C 21.06 23.90 23.03 23.24 25.00 22.56 C 24.89 28.00 25.22 33.45 24.85 38.88 C 23.65 40.55 20.24 40.62 19.15 38.82 C 18.80 34.07 19.03 29.29 19.08 24.53 Z" />
<path fill="#ffffff" opacity="1.00" d=" M 11.02 27.36 C 13.02 26.70 15.01 26.02 17.00 25.34 C 16.89 29.84 17.22 34.36 16.85 38.85 C 15.67 40.56 12.34 40.58 11.16 38.88 C 10.79 35.05 11.08 31.20 11.02 27.36 Z" />
</g>
</svg>
