<?xml version="1.0" encoding="UTF-8" ?>
<!DOCTYPE svg PUBLIC "-//W3C//DTD SVG 1.1//EN" "http://www.w3.org/Graphics/SVG/1.1/DTD/svg11.dtd">
<svg width="54pt" height="54pt" viewBox="0 0 54 54" version="1.1" xmlns="http://www.w3.org/2000/svg">
<g id="#33b8ccff">
<path fill="#33b8cc" opacity="1.00" d=" M 25.51 0.00 L 28.38 0.00 C 41.62 0.48 53.10 11.80 54.00 24.98 L 54.00 28.68 C 53.33 41.82 42.08 53.15 28.96 54.00 L 25.55 54.00 C 12.16 53.48 0.55 41.85 0.00 28.46 L 0.00 25.61 C 0.51 12.21 12.11 0.55 25.51 0.00 M 24.25 10.41 C 20.78 11.29 20.30 15.24 19.69 18.17 C 18.33 22.16 24.66 23.87 23.80 27.75 C 21.17 30.14 15.79 29.66 15.11 33.97 C 15.11 35.88 14.23 38.58 16.15 39.84 C 23.11 40.16 30.10 40.02 37.07 39.92 C 39.93 39.69 38.93 35.90 38.89 33.97 C 38.21 29.68 32.87 30.12 30.21 27.78 C 29.31 23.88 35.67 22.17 34.31 18.17 C 33.82 16.24 33.61 14.15 32.58 12.40 C 30.71 9.88 27.06 9.59 24.25 10.41 Z" />
</g>
<g id="#ffffffff">
<path fill="#ffffff" opacity="1.00" d=" M 24.25 10.41 C 27.06 9.59 30.71 9.88 32.58 12.40 C 33.61 14.15 33.82 16.24 34.31 18.17 C 35.67 22.17 29.31 23.88 30.21 27.78 C 32.87 30.12 38.21 29.68 38.89 33.97 C 38.93 35.90 39.93 39.69 37.07 39.92 C 30.10 40.02 23.11 40.16 16.15 39.84 C 14.23 38.58 15.11 35.88 15.11 33.97 C 15.79 29.66 21.17 30.14 23.80 27.75 C 24.66 23.87 18.33 22.16 19.69 18.17 C 20.30 15.24 20.78 11.29 24.25 10.41 Z" />
</g>
</svg>
