<?xml version="1.0" encoding="UTF-8" ?>
<!DOCTYPE svg PUBLIC "-//W3C//DTD SVG 1.1//EN" "http://www.w3.org/Graphics/SVG/1.1/DTD/svg11.dtd">
<svg width="54pt" height="54pt" viewBox="0 0 54 54" version="1.1" xmlns="http://www.w3.org/2000/svg">
<g id="#33b8ccff">
<path fill="#33b8cc" opacity="1.00" d=" M 25.58 0.00 L 28.27 0.00 C 41.66 0.42 53.32 11.96 54.00 25.32 L 54.00 28.41 C 53.49 41.76 41.97 53.36 28.64 54.00 L 25.69 54.00 C 12.22 53.56 0.50 41.85 0.00 28.39 L 0.00 25.77 C 0.41 12.28 12.10 0.51 25.58 0.00 M 12.38 15.49 C 10.79 16.41 11.05 18.43 10.98 19.99 C 11.05 25.03 10.86 30.08 11.07 35.12 C 11.00 36.61 12.36 38.00 13.85 37.92 C 21.58 38.15 29.32 37.90 37.05 38.03 C 39.05 37.95 42.04 38.45 42.81 35.96 C 43.25 30.29 42.93 24.57 42.99 18.88 C 43.21 17.13 42.14 14.97 40.14 15.08 C 32.43 14.85 24.71 15.10 16.99 14.97 C 15.47 15.09 13.78 14.76 12.38 15.49 Z" />
<path fill="#33b8cc" opacity="1.00" d=" M 13.09 17.09 C 22.36 16.94 31.64 16.94 40.91 17.09 C 41.05 23.36 41.05 29.64 40.92 35.91 C 31.64 36.06 22.36 36.06 13.09 35.91 C 12.95 29.64 12.95 23.36 13.09 17.09 M 18.64 21.70 C 17.45 24.19 19.34 26.54 20.98 28.25 C 23.46 27.04 25.36 23.98 23.82 21.32 C 22.80 19.09 19.36 19.39 18.64 21.70 M 29.19 21.03 C 29.19 21.52 29.19 22.48 29.19 22.97 C 32.40 23.01 35.61 23.01 38.81 22.97 C 38.81 22.48 38.80 21.52 38.80 21.03 C 35.60 20.99 32.39 20.99 29.19 21.03 M 29.19 25.03 C 29.19 25.52 29.19 26.48 29.19 26.97 C 32.40 27.01 35.61 27.01 38.81 26.97 C 38.81 26.48 38.80 25.52 38.80 25.03 C 35.60 24.99 32.39 24.99 29.19 25.03 M 15.18 32.76 C 19.29 32.82 23.41 32.81 27.52 32.77 C 27.41 30.27 26.60 27.93 25.02 25.98 C 23.90 26.78 22.98 27.96 21.64 28.41 C 19.92 28.66 18.94 26.86 17.73 26.01 C 15.98 27.87 15.27 30.26 15.18 32.76 M 29.19 29.03 C 29.19 29.51 29.19 30.48 29.19 30.97 C 32.39 31.01 35.60 31.01 38.81 30.97 C 38.81 30.48 38.81 29.52 38.80 29.03 C 35.60 28.99 32.40 28.99 29.19 29.03 Z" />
</g>
<g id="#ffffffff">
<path fill="#ffffff" opacity="1.00" d=" M 12.38 15.49 C 13.78 14.76 15.47 15.09 16.99 14.97 C 24.71 15.10 32.43 14.85 40.14 15.08 C 42.14 14.97 43.21 17.13 42.99 18.88 C 42.93 24.57 43.25 30.29 42.81 35.96 C 42.04 38.45 39.05 37.95 37.05 38.03 C 29.32 37.90 21.58 38.15 13.85 37.92 C 12.36 38.00 11.00 36.61 11.07 35.12 C 10.86 30.08 11.05 25.03 10.98 19.99 C 11.05 18.43 10.79 16.41 12.38 15.49 M 13.09 17.09 C 12.95 23.36 12.95 29.64 13.09 35.91 C 22.36 36.06 31.64 36.06 40.92 35.91 C 41.05 29.64 41.05 23.36 40.91 17.09 C 31.64 16.94 22.36 16.94 13.09 17.09 Z" />
<path fill="#ffffff" opacity="1.00" d=" M 18.64 21.70 C 19.36 19.39 22.80 19.09 23.82 21.32 C 25.36 23.98 23.46 27.04 20.98 28.25 C 19.34 26.54 17.45 24.19 18.64 21.70 Z" />
<path fill="#ffffff" opacity="1.00" d=" M 29.19 21.03 C 32.39 20.99 35.60 20.99 38.80 21.03 C 38.80 21.52 38.81 22.48 38.81 22.97 C 35.61 23.01 32.40 23.01 29.19 22.97 C 29.19 22.48 29.19 21.52 29.19 21.03 Z" />
<path fill="#ffffff" opacity="1.00" d=" M 29.19 25.03 C 32.39 24.99 35.60 24.99 38.80 25.03 C 38.80 25.52 38.81 26.48 38.81 26.97 C 35.61 27.01 32.40 27.01 29.19 26.97 C 29.19 26.48 29.19 25.52 29.19 25.03 Z" />
<path fill="#ffffff" opacity="1.00" d=" M 15.18 32.76 C 15.27 30.26 15.98 27.87 17.73 26.01 C 18.94 26.86 19.92 28.66 21.64 28.41 C 22.98 27.96 23.90 26.78 25.02 25.98 C 26.60 27.93 27.41 30.27 27.52 32.77 C 23.41 32.81 19.29 32.82 15.18 32.76 Z" />
<path fill="#ffffff" opacity="1.00" d=" M 29.19 29.03 C 32.40 28.99 35.60 28.99 38.80 29.03 C 38.81 29.52 38.81 30.48 38.81 30.97 C 35.60 31.01 32.39 31.01 29.19 30.97 C 29.19 30.48 29.19 29.51 29.19 29.03 Z" />
</g>
</svg>
