<?xml version="1.0" encoding="UTF-8" ?>
<!DOCTYPE svg PUBLIC "-//W3C//DTD SVG 1.1//EN" "http://www.w3.org/Graphics/SVG/1.1/DTD/svg11.dtd">
<svg width="54pt" height="54pt" viewBox="0 0 54 54" version="1.1" xmlns="http://www.w3.org/2000/svg">
<g id="#33b8ccff">
<path fill="#33b8cc" opacity="1.00" d=" M 25.35 0.00 L 28.59 0.00 C 41.67 0.62 52.91 11.70 54.00 24.69 L 54.00 29.13 C 53.04 41.99 42.13 52.94 29.29 54.00 L 25.38 54.00 C 12.11 53.37 0.66 41.91 0.00 28.65 L 0.00 25.40 C 0.64 12.13 12.08 0.66 25.35 0.00 M 21.87 11.86 C 20.32 13.98 19.85 16.66 19.53 19.21 C 19.60 22.70 24.59 24.19 23.78 27.85 C 21.50 29.39 18.66 29.84 16.41 31.44 C 14.53 33.37 14.83 36.40 15.18 38.85 C 15.92 40.31 17.69 39.87 19.01 40.02 C 23.04 40.15 27.08 39.77 31.10 40.06 C 33.86 40.30 36.25 42.43 39.10 41.91 C 42.95 41.47 46.06 37.87 45.99 34.01 C 46.10 29.71 42.24 25.88 37.95 26.01 C 35.35 25.85 33.33 27.67 31.32 29.02 C 27.36 24.91 35.76 22.46 34.33 18.10 C 33.80 15.37 33.27 11.81 30.32 10.62 C 27.59 9.58 24.06 9.72 21.87 11.86 Z" />
<path fill="#33b8cc" opacity="1.00" d=" M 36.19 29.34 C 39.67 27.77 43.87 31.35 42.89 35.04 C 42.29 38.51 37.66 40.26 34.96 37.95 C 31.88 35.81 32.66 30.56 36.19 29.34 M 37.88 31.12 C 36.86 32.01 35.90 32.97 35.02 34.00 C 35.93 35.07 36.93 36.08 38.01 36.98 C 39.06 36.05 40.05 35.05 40.98 34.00 C 40.01 33.16 38.99 31.46 37.88 31.12 Z" />
</g>
<g id="#fcfcfdff">
<path fill="#fcfcfd" opacity="1.00" d=" M 21.87 11.86 C 24.06 9.72 27.59 9.58 30.32 10.62 C 33.27 11.81 33.80 15.37 34.33 18.10 C 35.76 22.46 27.36 24.91 31.32 29.02 C 33.33 27.67 35.35 25.85 37.95 26.01 C 42.24 25.88 46.10 29.71 45.99 34.01 C 46.06 37.87 42.95 41.47 39.10 41.91 C 36.25 42.43 33.86 40.30 31.10 40.06 C 27.08 39.77 23.04 40.15 19.01 40.02 C 17.69 39.87 15.92 40.31 15.18 38.85 C 14.83 36.40 14.53 33.37 16.41 31.44 C 18.66 29.84 21.50 29.39 23.78 27.85 C 24.59 24.19 19.60 22.70 19.53 19.21 C 19.85 16.66 20.32 13.98 21.87 11.86 M 36.19 29.34 C 32.66 30.56 31.88 35.81 34.96 37.95 C 37.66 40.26 42.29 38.51 42.89 35.04 C 43.87 31.35 39.67 27.77 36.19 29.34 Z" />
<path fill="#fcfcfd" opacity="1.00" d=" M 37.88 31.12 C 38.99 31.46 40.01 33.16 40.98 34.00 C 40.05 35.05 39.06 36.05 38.01 36.98 C 36.93 36.08 35.93 35.07 35.02 34.00 C 35.90 32.97 36.86 32.01 37.88 31.12 Z" />
</g>
</svg>
