<?xml version="1.0" encoding="UTF-8" ?>
<!DOCTYPE svg PUBLIC "-//W3C//DTD SVG 1.1//EN" "http://www.w3.org/Graphics/SVG/1.1/DTD/svg11.dtd">
<svg width="54pt" height="54pt" viewBox="0 0 54 54" version="1.1" xmlns="http://www.w3.org/2000/svg">
<g id="#33b8ccff">
<path fill="#33b8cc" opacity="1.00" d=" M 25.45 0.00 L 28.46 0.00 C 41.64 0.54 53.03 11.76 54.00 24.87 L 54.00 28.85 C 53.22 41.88 42.11 53.07 29.10 54.00 L 25.49 54.00 C 12.14 53.44 0.59 41.87 0.00 28.53 L 0.00 25.52 C 0.56 12.17 12.10 0.60 25.45 0.00 M 17.01 16.94 C 17.08 23.63 16.73 30.36 17.21 37.05 C 18.84 40.34 23.32 38.62 26.22 38.88 C 25.49 35.70 21.43 37.39 19.09 36.89 C 18.94 29.63 18.97 22.37 19.07 15.11 C 24.34 14.93 29.62 14.96 34.90 15.07 C 35.17 22.41 34.86 29.75 35.01 37.08 C 35.49 37.29 36.46 37.73 36.94 37.94 C 37.01 30.93 37.05 23.92 36.99 16.92 C 37.22 15.13 36.12 12.93 34.06 13.08 C 29.36 12.91 24.63 12.90 19.92 13.08 C 17.86 12.95 16.75 15.13 17.01 16.94 M 21.06 17.35 C 21.68 18.10 22.66 18.37 23.98 18.14 C 24.51 18.29 28.25 17.95 26.32 17.07 C 24.61 16.85 22.68 16.58 21.06 17.35 M 21.00 21.00 L 21.00 22.00 C 25.00 22.00 29.00 22.00 33.00 22.00 L 33.00 21.00 C 29.00 21.00 25.00 21.00 21.00 21.00 M 21.00 24.00 L 21.00 25.00 C 25.00 25.00 29.00 25.00 33.00 25.00 L 33.00 24.00 C 29.00 24.00 25.00 24.00 21.00 24.00 M 21.00 27.00 L 21.00 28.00 C 25.00 28.00 29.00 28.00 33.00 28.00 L 33.00 27.00 C 29.00 27.00 25.00 27.00 21.00 27.00 M 21.08 30.34 C 21.68 31.10 22.64 31.36 23.98 31.14 C 24.49 31.27 28.23 30.98 26.36 30.08 C 24.64 29.85 22.71 29.59 21.08 30.34 M 29.06 32.18 C 28.99 34.41 28.93 36.63 28.94 38.86 C 28.37 38.27 27.21 37.08 26.64 36.48 C 27.01 39.44 28.07 42.22 29.24 44.94 C 30.56 44.97 31.88 45.00 33.19 45.02 C 33.88 42.74 34.53 40.45 35.13 38.15 C 33.77 37.83 32.41 37.48 31.05 37.16 C 31.02 35.50 30.97 33.84 30.94 32.18 C 30.47 32.18 29.53 32.18 29.06 32.18 Z" />
</g>
<g id="#ffffffff">
<path fill="#ffffff" opacity="1.00" d=" M 17.01 16.94 C 16.75 15.13 17.86 12.95 19.92 13.08 C 24.63 12.90 29.36 12.91 34.06 13.08 C 36.12 12.93 37.22 15.13 36.99 16.92 C 37.05 23.92 37.01 30.93 36.94 37.94 C 36.46 37.73 35.49 37.29 35.01 37.08 C 34.86 29.75 35.17 22.41 34.90 15.07 C 29.62 14.96 24.34 14.93 19.07 15.11 C 18.97 22.37 18.94 29.63 19.09 36.89 C 21.43 37.39 25.49 35.70 26.22 38.88 C 23.32 38.62 18.84 40.34 17.21 37.05 C 16.73 30.36 17.08 23.63 17.01 16.94 Z" />
<path fill="#ffffff" opacity="1.00" d=" M 21.06 17.35 C 22.68 16.58 24.61 16.85 26.32 17.07 C 28.25 17.95 24.51 18.29 23.98 18.14 C 22.66 18.37 21.68 18.10 21.06 17.35 Z" />
<path fill="#ffffff" opacity="1.00" d=" M 21.00 21.00 C 25.00 21.00 29.00 21.00 33.00 21.00 L 33.00 22.00 C 29.00 22.00 25.00 22.00 21.00 22.00 L 21.00 21.00 Z" />
<path fill="#ffffff" opacity="1.00" d=" M 21.00 24.00 C 25.00 24.00 29.00 24.00 33.00 24.00 L 33.00 25.00 C 29.00 25.00 25.00 25.00 21.00 25.00 L 21.00 24.00 Z" />
<path fill="#ffffff" opacity="1.00" d=" M 21.00 27.00 C 25.00 27.00 29.00 27.00 33.00 27.00 L 33.00 28.00 C 29.00 28.00 25.00 28.00 21.00 28.00 L 21.00 27.00 Z" />
<path fill="#ffffff" opacity="1.00" d=" M 21.08 30.34 C 22.71 29.59 24.64 29.85 26.36 30.08 C 28.23 30.98 24.49 31.27 23.98 31.14 C 22.64 31.36 21.68 31.10 21.08 30.34 Z" />
<path fill="#ffffff" opacity="1.00" d=" M 29.06 32.18 C 29.53 32.18 30.47 32.18 30.94 32.18 C 30.97 33.84 31.02 35.50 31.05 37.16 C 32.41 37.48 33.77 37.83 35.13 38.15 C 34.53 40.45 33.88 42.74 33.19 45.02 C 31.88 45.00 30.56 44.97 29.24 44.94 C 28.07 42.22 27.01 39.44 26.64 36.48 C 27.21 37.08 28.37 38.27 28.94 38.86 C 28.93 36.63 28.99 34.41 29.06 32.18 Z" />
</g>
</svg>
