<?xml version="1.0" encoding="UTF-8" ?>
<!DOCTYPE svg PUBLIC "-//W3C//DTD SVG 1.1//EN" "http://www.w3.org/Graphics/SVG/1.1/DTD/svg11.dtd">
<svg width="512pt" height="512pt" viewBox="0 0 512 512" version="1.1" xmlns="http://www.w3.org/2000/svg">
<g id="#3c5a99ff">
<path fill="#3c5a99" opacity="1.00" d=" M 5.87 12.90 C 11.33 4.65 21.47 0.88 31.02 0.53 C 181.66 0.55 332.31 0.52 482.95 0.54 C 490.55 1.07 498.45 3.44 504.10 8.79 C 508.31 12.79 510.32 18.40 512.00 23.82 L 512.00 489.85 C 510.08 494.96 508.42 500.48 504.26 504.28 C 500.38 508.42 494.86 510.22 489.65 512.00 L 354.00 512.00 C 354.00 446.07 353.99 380.13 354.01 314.20 C 376.09 314.21 398.16 314.19 420.24 314.21 C 421.75 303.20 422.94 292.15 424.44 281.15 C 426.23 273.60 426.66 265.83 427.76 258.17 C 428.63 251.12 429.64 244.08 430.26 237.00 C 404.84 237.00 379.42 237.00 354.00 237.00 C 353.99 219.66 354.02 202.32 353.98 184.99 C 354.28 175.25 356.05 164.54 363.67 157.70 C 371.98 151.28 382.90 150.53 393.01 150.21 C 406.34 150.18 419.66 150.22 432.99 150.20 C 433.01 127.19 433.00 104.18 433.00 81.17 C 425.40 79.94 417.69 80.08 410.07 79.08 C 394.22 79.22 378.33 76.75 362.51 78.68 C 351.37 79.44 340.28 81.66 329.88 85.78 C 320.89 90.04 312.13 94.95 304.48 101.36 C 300.39 105.98 296.07 110.40 292.24 115.24 C 284.61 125.89 280.45 138.47 276.93 150.96 C 274.72 161.48 273.74 172.28 274.00 183.03 C 274.00 201.02 274.00 219.01 274.00 237.00 C 251.91 237.01 229.82 236.99 207.73 237.00 C 207.73 262.73 207.72 288.46 207.73 314.19 C 229.82 314.20 251.90 314.20 273.99 314.20 C 274.01 380.13 273.99 446.06 274.00 512.00 L 23.72 512.00 C 17.92 510.16 11.92 507.86 7.88 503.08 C 3.25 497.52 1.00 490.20 0.60 483.06 C 0.60 332.04 0.59 181.01 0.60 29.99 C 0.88 23.98 2.79 18.06 5.87 12.90 Z" />
</g>
<g id="#ffffffff">
<path fill="#ffffff" opacity="1.00" d=" M 362.51 78.68 C 378.33 76.75 394.22 79.22 410.07 79.08 C 417.69 80.08 425.40 79.94 433.00 81.17 C 433.00 104.18 433.01 127.19 432.99 150.20 C 419.66 150.22 406.34 150.18 393.01 150.21 C 382.90 150.53 371.98 151.28 363.67 157.70 C 356.05 164.54 354.28 175.25 353.98 184.99 C 354.02 202.32 353.99 219.66 354.00 237.00 C 379.42 237.00 404.84 237.00 430.26 237.00 C 429.64 244.08 428.63 251.12 427.76 258.17 C 426.66 265.83 426.23 273.60 424.44 281.15 C 422.94 292.15 421.75 303.20 420.24 314.21 C 398.16 314.19 376.09 314.21 354.01 314.20 C 353.99 380.13 354.00 446.07 354.00 512.00 L 274.00 512.00 C 273.99 446.06 274.01 380.13 273.99 314.20 C 251.90 314.20 229.82 314.20 207.73 314.19 C 207.72 288.46 207.73 262.73 207.73 237.00 C 229.82 236.99 251.91 237.01 274.00 237.00 C 274.00 219.01 274.00 201.02 274.00 183.03 C 273.74 172.28 274.72 161.48 276.93 150.96 C 280.45 138.47 284.61 125.89 292.24 115.24 C 296.07 110.40 300.39 105.98 304.48 101.36 C 312.13 94.95 320.89 90.04 329.88 85.78 C 340.28 81.66 351.37 79.44 362.51 78.68 Z" />
</g>
</svg>
