<?xml version="1.0" encoding="UTF-8" ?>
<!DOCTYPE svg PUBLIC "-//W3C//DTD SVG 1.1//EN" "http://www.w3.org/Graphics/SVG/1.1/DTD/svg11.dtd">
<svg width="989pt" height="989pt" viewBox="0 0 989 989" version="1.1" xmlns="http://www.w3.org/2000/svg">
<g id="#265590ff">
<path fill="#265590" opacity="1.00" d=" M 93.56 6.79 C 98.03 6.23 102.53 6.02 107.03 6.00 C 364.70 6.00 622.38 6.01 880.05 6.00 C 891.38 5.77 902.77 7.08 913.60 10.46 C 942.83 19.36 967.22 42.46 977.74 71.13 C 982.00 82.58 984.07 94.80 984.00 107.01 C 984.00 360.01 984.00 613.02 984.00 866.02 C 983.89 879.06 984.71 892.28 981.75 905.09 C 975.39 935.69 953.63 962.49 925.09 975.17 C 911.91 981.16 897.41 984.10 882.95 984.00 C 623.95 983.99 364.96 984.01 105.97 983.99 C 84.51 984.03 63.11 976.93 46.00 963.98 C 25.24 948.50 10.88 924.68 7.15 899.03 C 5.63 889.77 6.05 880.37 6.00 871.03 C 6.00 616.03 6.00 361.02 6.00 106.01 C 5.93 81.69 15.12 57.49 31.41 39.42 C 47.29 21.52 69.79 9.64 93.56 6.79 M 482.46 30.25 C 412.41 31.85 342.79 50.03 280.87 82.84 C 224.53 112.52 174.58 154.14 134.94 203.96 C 87.40 263.56 54.90 335.08 41.49 410.15 C 26.38 493.77 34.31 581.56 65.01 660.85 C 92.43 732.44 138.09 796.91 196.37 846.69 C 250.48 893.19 315.61 926.76 384.90 943.78 C 449.25 959.55 516.99 961.14 582.03 948.62 C 625.95 940.09 668.62 925.08 708.16 904.15 C 776.55 868.12 835.46 814.49 878.06 750.02 C 902.00 714.04 920.41 674.56 933.77 633.51 C 747.87 633.29 561.97 633.51 376.06 633.40 C 374.34 633.35 372.63 633.46 370.95 633.81 C 366.54 631.63 364.59 626.56 364.43 621.90 C 364.43 553.60 364.43 485.31 364.43 417.01 C 364.57 376.29 364.15 335.55 364.67 294.85 C 358.71 294.80 352.75 294.77 346.80 294.84 C 346.68 295.38 346.44 296.45 346.32 296.98 C 346.36 410.30 346.32 523.62 346.34 636.94 C 346.51 639.38 348.33 641.28 349.30 643.44 C 350.47 646.42 353.31 648.10 355.95 649.64 C 358.98 649.56 361.90 650.81 364.99 650.35 C 543.97 650.34 722.95 650.33 901.93 650.36 C 894.19 670.39 885.18 689.96 874.65 708.69 C 830.12 788.47 760.07 853.87 677.06 892.16 C 628.43 914.86 575.49 928.24 521.95 931.56 C 460.92 935.45 399.02 926.35 341.79 904.71 C 271.91 878.57 209.25 833.82 161.34 776.68 C 127.63 736.67 101.19 690.49 83.80 641.18 C 82.41 637.89 81.24 634.42 81.17 630.81 C 80.46 629.49 79.36 628.36 79.18 626.81 C 77.70 620.86 75.17 615.24 73.75 609.28 C 55.39 541.54 53.54 469.46 68.15 400.83 C 82.16 335.17 111.50 272.83 153.23 220.24 C 184.31 181.07 222.00 147.11 264.41 120.59 C 322.87 83.91 390.22 61.49 459.03 56.04 C 531.16 50.03 604.83 62.42 670.92 92.04 C 735.24 120.50 792.14 165.16 835.78 220.25 C 882.82 279.54 914.12 351.22 925.44 426.07 C 934.26 483.76 931.77 543.24 917.60 599.88 C 926.03 599.86 934.46 600.02 942.88 599.80 C 956.14 541.93 958.61 481.58 949.62 422.89 C 939.31 354.08 913.03 287.77 873.64 230.43 C 831.59 169.09 774.61 118.00 708.84 83.22 C 639.66 46.35 560.80 27.99 482.46 30.25 M 756.74 295.17 C 756.77 396.61 756.77 498.06 756.74 599.51 C 762.94 599.64 769.15 599.58 775.35 599.55 C 775.40 580.88 775.13 562.17 775.48 543.54 C 790.60 525.60 805.92 507.82 821.07 489.90 C 843.45 526.50 865.99 563.01 888.44 599.57 C 895.22 599.40 902.04 599.95 908.80 599.26 C 883.26 558.13 857.55 517.11 832.00 476.00 C 853.85 448.99 876.04 422.24 897.77 395.16 C 890.65 395.28 883.52 395.12 876.39 395.26 C 844.18 435.10 811.94 474.92 779.72 514.76 C 778.39 516.47 777.06 518.21 775.37 519.58 C 775.28 444.77 775.34 369.95 775.34 295.14 C 769.14 295.14 762.94 295.09 756.74 295.17 M 441.46 320.30 C 441.18 325.44 441.22 330.61 441.42 335.75 C 441.66 335.94 442.12 336.33 442.35 336.52 C 447.76 336.75 453.20 336.62 458.62 336.54 C 459.98 331.52 459.03 326.11 459.20 320.95 C 458.92 320.61 458.34 319.94 458.06 319.60 C 454.05 319.39 450.03 319.62 446.02 319.50 C 444.54 319.72 442.53 318.99 441.46 320.30 M 166.52 390.91 C 156.42 392.59 146.61 396.33 138.20 402.20 C 124.49 411.70 114.34 425.76 108.20 441.16 C 99.36 462.93 97.24 486.87 98.84 510.15 C 100.72 532.59 106.81 555.36 120.30 573.72 C 129.92 587.10 144.02 597.39 160.01 601.63 C 168.67 604.17 177.77 603.96 186.69 603.60 C 203.65 602.04 219.68 593.70 231.21 581.24 C 245.58 565.85 253.63 545.47 257.04 524.91 C 259.10 513.06 259.75 501.00 259.33 488.98 C 258.45 470.22 254.99 451.26 246.50 434.36 C 238.84 418.39 226.26 404.41 210.10 396.79 C 196.60 390.49 181.20 388.52 166.52 390.91 M 593.14 395.41 C 579.26 400.95 567.41 410.43 556.59 420.55 C 554.15 422.68 552.16 425.34 549.39 427.06 C 549.08 425.72 548.74 424.40 548.72 423.03 C 548.53 413.74 547.61 404.49 547.36 395.21 C 542.03 395.20 536.69 395.18 531.36 395.23 C 531.47 463.34 531.40 531.45 531.40 599.56 C 537.53 599.61 543.68 599.53 549.82 599.61 C 549.95 548.32 549.80 497.03 549.89 445.74 L 550.19 444.98 C 555.93 438.81 562.23 433.16 568.53 427.55 C 578.12 419.49 588.72 412.01 601.04 408.89 C 612.66 405.99 625.21 406.10 636.50 410.29 C 645.69 413.74 652.86 421.41 656.65 430.36 C 661.85 441.83 662.64 454.60 663.35 466.97 C 663.36 511.18 663.32 555.39 663.37 599.60 C 669.47 599.55 675.57 599.58 681.68 599.58 C 681.67 554.72 681.67 509.86 681.67 465.00 C 681.16 448.99 679.49 432.45 672.14 417.95 C 666.75 407.08 657.31 398.17 645.77 394.17 C 628.85 388.23 609.76 388.65 593.14 395.41 M 441.14 395.22 C 441.26 463.34 441.17 531.46 441.19 599.57 C 446.66 599.57 452.13 599.59 457.60 599.56 C 457.60 531.45 457.53 463.34 457.64 395.23 C 452.14 395.18 446.64 395.19 441.14 395.22 M 280.33 484.25 C 279.32 484.86 278.07 485.70 278.18 487.06 C 278.05 490.68 278.00 494.33 278.22 497.95 C 278.85 499.41 280.29 500.78 282.00 500.54 C 296.01 500.55 310.02 500.53 324.03 500.55 C 326.43 500.82 328.43 498.36 328.21 496.06 C 328.25 493.36 328.26 490.65 328.19 487.96 C 328.32 485.71 326.20 483.78 324.02 483.82 C 311.02 483.73 298.02 483.85 285.01 483.77 C 283.46 483.89 281.74 483.47 280.33 484.25 Z" />
<path fill="#265590" opacity="1.00" d=" M 170.44 403.69 C 185.93 401.58 202.39 405.51 214.58 415.46 C 228.44 426.43 236.46 443.12 240.73 459.94 C 244.77 475.40 245.12 491.50 244.51 507.39 C 243.37 525.32 239.39 543.42 230.40 559.15 C 222.53 573.08 209.66 584.70 193.97 588.84 C 181.65 591.97 168.18 591.43 156.43 586.37 C 141.48 580.05 130.37 567.01 123.63 552.53 C 114.77 533.06 112.10 511.30 112.70 490.08 C 113.68 468.18 118.25 445.42 131.47 427.44 C 140.59 414.71 154.83 405.69 170.44 403.69 Z" />
</g>
<g id="#ffffffff">
<path fill="#ffffff" opacity="1.00" d=" M 482.46 30.25 C 560.80 27.99 639.66 46.35 708.84 83.22 C 774.61 118.00 831.59 169.09 873.64 230.43 C 913.03 287.77 939.31 354.08 949.62 422.89 C 958.61 481.58 956.14 541.93 942.88 599.80 C 934.46 600.02 926.03 599.86 917.60 599.88 C 931.77 543.24 934.26 483.76 925.44 426.07 C 914.12 351.22 882.82 279.54 835.78 220.25 C 792.14 165.16 735.24 120.50 670.92 92.04 C 604.83 62.42 531.16 50.03 459.03 56.04 C 390.22 61.49 322.87 83.91 264.41 120.59 C 222.00 147.11 184.31 181.07 153.23 220.24 C 111.50 272.83 82.16 335.17 68.15 400.83 C 53.54 469.46 55.39 541.54 73.75 609.28 C 75.17 615.24 77.70 620.86 79.18 626.81 C 79.36 628.36 80.46 629.49 81.17 630.81 C 81.24 634.42 82.41 637.89 83.80 641.18 C 101.19 690.49 127.63 736.67 161.34 776.68 C 209.25 833.82 271.91 878.57 341.79 904.71 C 399.02 926.35 460.92 935.45 521.95 931.56 C 575.49 928.24 628.43 914.86 677.06 892.16 C 760.07 853.87 830.12 788.47 874.65 708.69 C 885.18 689.96 894.19 670.39 901.93 650.36 C 722.95 650.33 543.97 650.34 364.99 650.35 C 361.90 650.81 358.98 649.56 355.95 649.64 C 353.31 648.10 350.47 646.42 349.30 643.44 C 348.33 641.28 346.51 639.38 346.34 636.94 C 346.32 523.62 346.36 410.30 346.32 296.98 C 346.44 296.45 346.68 295.38 346.80 294.84 C 352.75 294.77 358.71 294.80 364.67 294.85 C 364.15 335.55 364.57 376.29 364.43 417.01 C 364.43 485.31 364.43 553.60 364.43 621.90 C 364.59 626.56 366.54 631.63 370.95 633.81 C 372.63 633.46 374.34 633.35 376.06 633.40 C 561.97 633.51 747.87 633.29 933.77 633.51 C 920.41 674.56 902.00 714.04 878.06 750.02 C 835.46 814.49 776.55 868.12 708.16 904.15 C 668.62 925.08 625.95 940.09 582.03 948.62 C 516.99 961.14 449.25 959.55 384.90 943.78 C 315.61 926.76 250.48 893.19 196.37 846.69 C 138.09 796.91 92.43 732.44 65.01 660.85 C 34.31 581.56 26.38 493.77 41.49 410.15 C 54.90 335.08 87.40 263.56 134.94 203.96 C 174.58 154.14 224.53 112.52 280.87 82.84 C 342.79 50.03 412.41 31.85 482.46 30.25 Z" />
<path fill="#ffffff" opacity="1.00" d=" M 756.74 295.17 C 762.94 295.09 769.14 295.14 775.34 295.14 C 775.34 369.95 775.28 444.77 775.37 519.58 C 777.06 518.21 778.39 516.47 779.72 514.76 C 811.94 474.92 844.18 435.10 876.39 395.26 C 883.52 395.12 890.65 395.28 897.77 395.16 C 876.04 422.24 853.85 448.99 832.00 476.00 C 857.55 517.11 883.26 558.13 908.80 599.26 C 902.04 599.95 895.22 599.40 888.44 599.57 C 865.99 563.01 843.45 526.50 821.07 489.90 C 805.92 507.82 790.60 525.60 775.48 543.54 C 775.13 562.17 775.40 580.88 775.35 599.55 C 769.15 599.58 762.94 599.64 756.74 599.51 C 756.77 498.06 756.77 396.61 756.74 295.17 Z" />
<path fill="#ffffff" opacity="1.00" d=" M 166.52 390.91 C 181.20 388.52 196.60 390.49 210.10 396.79 C 226.26 404.41 238.84 418.39 246.50 434.36 C 254.99 451.26 258.45 470.22 259.33 488.98 C 259.75 501.00 259.10 513.06 257.04 524.91 C 253.63 545.47 245.58 565.85 231.21 581.24 C 219.68 593.70 203.65 602.04 186.69 603.60 C 177.77 603.96 168.67 604.17 160.01 601.63 C 144.02 597.39 129.92 587.10 120.30 573.72 C 106.81 555.36 100.72 532.59 98.84 510.15 C 97.24 486.87 99.36 462.93 108.20 441.16 C 114.34 425.76 124.49 411.70 138.20 402.20 C 146.61 396.33 156.42 392.59 166.52 390.91 M 170.44 403.69 C 154.83 405.69 140.59 414.71 131.47 427.44 C 118.25 445.42 113.68 468.18 112.70 490.08 C 112.10 511.30 114.77 533.06 123.63 552.53 C 130.37 567.01 141.48 580.05 156.43 586.37 C 168.18 591.43 181.65 591.97 193.97 588.84 C 209.66 584.70 222.53 573.08 230.40 559.15 C 239.39 543.42 243.37 525.32 244.51 507.39 C 245.12 491.50 244.77 475.40 240.73 459.94 C 236.46 443.12 228.44 426.43 214.58 415.46 C 202.39 405.51 185.93 401.58 170.44 403.69 Z" />
<path fill="#ffffff" opacity="1.00" d=" M 593.14 395.41 C 609.76 388.65 628.85 388.23 645.77 394.17 C 657.31 398.17 666.75 407.08 672.14 417.95 C 679.49 432.45 681.16 448.99 681.67 465.00 C 681.67 509.86 681.67 554.72 681.68 599.58 C 675.57 599.58 669.47 599.55 663.37 599.60 C 663.32 555.39 663.36 511.18 663.35 466.97 C 662.64 454.60 661.85 441.83 656.65 430.36 C 652.86 421.41 645.69 413.74 636.50 410.29 C 625.21 406.10 612.66 405.99 601.04 408.89 C 588.72 412.01 578.12 419.49 568.53 427.55 C 562.23 433.16 555.93 438.81 550.19 444.98 L 549.89 445.74 C 549.80 497.03 549.95 548.32 549.82 599.61 C 543.68 599.53 537.53 599.61 531.40 599.56 C 531.40 531.45 531.47 463.34 531.36 395.23 C 536.69 395.18 542.03 395.20 547.36 395.21 C 547.61 404.49 548.53 413.74 548.72 423.03 C 548.74 424.40 549.08 425.72 549.39 427.06 C 552.16 425.34 554.15 422.68 556.59 420.55 C 567.41 410.43 579.26 400.95 593.14 395.41 Z" />
<path fill="#ffffff" opacity="1.00" d=" M 441.14 395.22 C 446.64 395.19 452.14 395.18 457.64 395.23 C 457.53 463.34 457.60 531.45 457.60 599.56 C 452.13 599.59 446.66 599.57 441.19 599.57 C 441.17 531.46 441.26 463.34 441.14 395.22 Z" />
</g>
<g id="#00b487ff">
<path fill="#00b487" opacity="1.00" d=" M 441.46 320.30 C 442.53 318.99 444.54 319.72 446.02 319.50 C 450.03 319.62 454.05 319.39 458.06 319.60 C 458.34 319.94 458.92 320.61 459.20 320.95 C 459.03 326.11 459.98 331.52 458.62 336.54 C 453.20 336.62 447.76 336.75 442.35 336.52 C 442.12 336.33 441.66 335.94 441.42 335.75 C 441.22 330.61 441.18 325.44 441.46 320.30 Z" />
</g>
<g id="#33b5cbff">
<path fill="#33b5cb" opacity="1.00" d=" M 280.33 484.25 C 281.74 483.47 283.46 483.89 285.01 483.77 C 298.02 483.85 311.02 483.73 324.02 483.82 C 326.20 483.78 328.32 485.71 328.19 487.96 C 328.26 490.65 328.25 493.36 328.21 496.06 C 328.43 498.36 326.43 500.82 324.03 500.55 C 310.02 500.53 296.01 500.55 282.00 500.54 C 280.29 500.78 278.85 499.41 278.22 497.95 C 278.00 494.33 278.05 490.68 278.18 487.06 C 278.07 485.70 279.32 484.86 280.33 484.25 Z" />
</g>
</svg>
