<?xml version="1.0" encoding="UTF-8" ?>
<!DOCTYPE svg PUBLIC "-//W3C//DTD SVG 1.1//EN" "http://www.w3.org/Graphics/SVG/1.1/DTD/svg11.dtd">
<svg width="512pt" height="512pt" viewBox="0 0 512 512" version="1.1" xmlns="http://www.w3.org/2000/svg">
<g id="#007bb5ff">
<path fill="#007bb5" opacity="1.00" d=" M 29.76 0.00 L 482.07 0.00 C 497.71 0.81 511.18 14.34 512.00 29.96 L 512.00 481.40 C 511.57 497.48 497.52 511.55 481.43 512.00 L 30.61 512.00 C 14.82 511.58 1.00 498.09 0.00 482.36 L 0.00 30.13 C 0.71 14.49 14.14 0.95 29.76 0.00 M 137.42 96.67 C 130.22 98.15 123.61 102.23 119.03 107.96 C 109.53 119.36 109.73 137.37 119.47 148.56 C 128.76 160.04 146.31 163.41 159.18 156.17 C 172.42 149.32 179.29 132.57 174.53 118.41 C 170.07 103.08 153.00 93.03 137.42 96.67 M 112.00 176.00 C 112.00 250.67 112.00 325.33 112.00 400.00 C 133.33 400.00 154.67 400.00 176.00 400.00 C 176.00 325.33 176.00 250.67 176.00 176.00 C 154.67 176.00 133.33 176.00 112.00 176.00 M 208.00 176.00 C 208.00 250.67 208.00 325.33 208.00 400.00 C 229.33 400.00 250.67 400.00 272.00 400.00 C 272.00 357.32 272.00 314.64 272.00 271.96 C 271.96 263.48 273.99 254.39 280.20 248.23 C 286.36 241.99 295.50 239.95 304.01 240.00 C 312.49 239.95 321.57 242.07 327.73 248.27 C 333.95 254.43 336.04 263.54 336.00 272.04 C 336.00 314.69 335.99 357.35 336.00 400.00 C 357.33 400.00 378.67 400.00 400.00 400.00 C 400.00 369.00 400.00 338.00 400.00 307.00 C 399.96 287.70 400.35 268.35 398.34 249.12 C 396.32 230.66 392.44 211.24 380.39 196.49 C 370.79 184.59 355.79 178.36 340.87 176.76 C 330.13 175.55 319.23 175.81 308.53 177.28 C 298.88 178.75 288.85 181.65 281.68 188.62 C 276.35 193.72 273.61 200.83 272.01 207.89 C 271.99 197.26 272.01 186.63 272.00 176.00 C 250.67 176.00 229.33 176.00 208.00 176.00 Z" />
</g>
<g id="#ffffffff">
<path fill="#ffffff" opacity="1.00" d=" M 137.42 96.67 C 153.00 93.03 170.07 103.08 174.53 118.41 C 179.29 132.57 172.42 149.32 159.18 156.17 C 146.31 163.41 128.76 160.04 119.47 148.56 C 109.73 137.37 109.53 119.36 119.03 107.96 C 123.61 102.23 130.22 98.15 137.42 96.67 Z" />
<path fill="#ffffff" opacity="1.00" d=" M 112.00 176.00 C 133.33 176.00 154.67 176.00 176.00 176.00 C 176.00 250.67 176.00 325.33 176.00 400.00 C 154.67 400.00 133.33 400.00 112.00 400.00 C 112.00 325.33 112.00 250.67 112.00 176.00 Z" />
<path fill="#ffffff" opacity="1.00" d=" M 208.00 176.00 C 229.33 176.00 250.67 176.00 272.00 176.00 C 272.01 186.63 271.99 197.26 272.01 207.89 C 273.61 200.83 276.35 193.72 281.68 188.62 C 288.85 181.65 298.88 178.75 308.53 177.28 C 319.23 175.81 330.13 175.55 340.87 176.76 C 355.79 178.36 370.79 184.59 380.39 196.49 C 392.44 211.24 396.32 230.66 398.34 249.12 C 400.35 268.35 399.96 287.70 400.00 307.00 C 400.00 338.00 400.00 369.00 400.00 400.00 C 378.67 400.00 357.33 400.00 336.00 400.00 C 335.99 357.35 336.00 314.69 336.00 272.04 C 336.04 263.54 333.95 254.43 327.73 248.27 C 321.57 242.07 312.49 239.95 304.01 240.00 C 295.50 239.95 286.36 241.99 280.20 248.23 C 273.99 254.39 271.96 263.48 272.00 271.96 C 272.00 314.64 272.00 357.32 272.00 400.00 C 250.67 400.00 229.33 400.00 208.00 400.00 C 208.00 325.33 208.00 250.67 208.00 176.00 Z" />
</g>
</svg>
