<?xml version="1.0" encoding="UTF-8" ?>
<!DOCTYPE svg PUBLIC "-//W3C//DTD SVG 1.1//EN" "http://www.w3.org/Graphics/SVG/1.1/DTD/svg11.dtd">
<svg width="512pt" height="512pt" viewBox="0 0 512 512" version="1.1" xmlns="http://www.w3.org/2000/svg">
<g id="#00abf1ff">
<path fill="#00abf1" opacity="1.00" d=" M 26.76 0.00 L 487.46 0.00 C 488.37 0.63 489.36 1.08 490.45 1.34 C 491.46 1.68 492.49 1.97 493.53 2.21 C 494.54 2.73 495.52 3.30 496.47 3.92 C 496.98 3.96 497.98 4.05 498.49 4.09 C 502.37 6.99 506.54 9.96 508.80 14.39 C 509.32 15.80 510.00 17.16 510.75 18.47 C 511.06 19.61 511.48 20.72 512.00 21.78 L 512.00 491.46 C 511.31 492.36 510.90 493.38 510.79 494.53 C 510.27 495.49 509.75 496.45 509.23 497.41 C 508.13 501.19 504.83 503.53 502.25 506.27 C 500.97 507.74 499.18 508.53 497.42 509.23 C 496.46 509.74 495.50 510.26 494.54 510.76 C 493.38 511.05 492.28 511.47 491.22 512.00 L 21.51 512.00 C 19.36 510.52 16.68 510.06 14.40 508.79 C 9.95 506.57 7.01 502.35 4.09 498.49 C 4.05 497.99 3.96 496.98 3.92 496.48 C 3.31 495.51 2.74 494.53 2.21 493.53 C 1.97 492.49 1.68 491.47 1.37 490.46 C 0.93 489.37 0.47 488.29 -0.00 487.23 L 0.00 25.79 C 0.67 24.71 1.31 23.61 1.94 22.51 C 1.97 21.50 2.01 20.48 2.05 19.47 C 2.68 18.49 3.31 17.51 3.93 16.53 C 3.97 16.03 4.05 15.02 4.08 14.51 C 6.82 10.33 10.33 6.81 14.51 4.09 C 15.02 4.05 16.02 3.96 16.52 3.92 C 17.02 3.59 18.02 2.93 18.51 2.59 C 20.18 2.14 21.88 1.85 23.54 1.37 C 24.62 0.93 25.69 0.47 26.76 0.00 M 303.14 115.16 C 298.95 116.22 295.66 119.16 291.75 120.84 C 282.29 126.38 274.45 134.55 268.86 143.95 C 266.99 146.92 266.07 150.36 264.33 153.39 C 261.33 158.48 260.69 164.47 259.71 170.18 C 258.11 178.75 259.16 187.50 260.53 196.02 C 255.35 196.00 250.23 195.14 245.10 194.55 C 238.79 193.23 232.11 193.25 226.17 190.52 C 216.59 188.05 207.18 184.86 198.07 181.00 C 194.39 178.84 190.05 177.97 186.70 175.26 C 178.47 170.25 169.58 166.11 162.45 159.51 C 153.72 153.44 146.04 145.99 138.71 138.34 C 134.31 134.09 131.04 128.74 126.39 124.78 C 116.30 145.05 115.57 169.98 125.57 190.43 C 127.95 196.86 132.94 201.61 136.99 206.95 C 139.88 210.25 143.47 212.81 146.59 215.88 C 136.38 215.24 126.12 212.63 117.35 207.21 C 116.67 212.28 118.90 217.01 119.15 222.02 C 121.23 232.23 125.27 242.10 131.45 250.52 C 137.68 257.63 144.34 264.71 152.92 268.97 C 157.90 272.31 164.16 272.70 169.30 275.61 C 159.84 277.64 150.03 278.10 140.47 276.53 C 146.72 297.99 164.44 316.36 186.45 321.64 C 190.50 324.23 195.75 323.29 200.33 323.98 C 195.66 330.04 188.02 332.58 182.11 337.18 C 179.22 339.55 175.53 340.47 172.27 342.17 C 160.88 347.70 148.36 350.07 136.08 352.75 C 128.37 353.57 120.60 354.24 112.85 353.57 C 110.52 353.33 108.18 352.80 105.84 353.27 C 111.49 356.66 117.11 360.12 123.09 362.92 C 138.07 371.66 155.00 376.44 171.91 379.86 C 193.24 384.65 215.65 384.38 237.03 380.07 C 252.07 377.37 266.82 373.12 280.76 366.83 C 287.40 362.62 294.79 359.74 301.30 355.30 C 309.24 349.71 317.04 343.89 324.40 337.57 C 328.50 332.92 333.08 328.71 337.40 324.25 C 343.86 316.67 349.67 308.56 355.42 300.45 C 359.79 294.27 362.40 287.05 366.78 280.89 C 372.34 268.99 377.08 256.70 380.57 244.04 C 382.59 240.65 382.66 236.63 383.71 232.91 C 385.45 226.73 386.01 220.33 387.03 214.01 C 388.92 202.52 388.73 190.83 388.73 179.22 C 395.86 173.25 403.31 167.41 408.87 159.83 C 413.25 155.19 417.60 150.19 420.08 144.26 C 416.23 145.47 413.06 148.18 409.06 148.96 C 401.02 151.92 392.53 153.56 384.06 154.64 C 393.41 147.86 402.13 139.57 406.99 128.89 C 408.69 124.83 411.68 121.31 412.34 116.86 C 401.95 123.71 390.21 128.33 378.27 131.58 C 376.10 133.00 373.43 133.03 370.96 133.56 C 369.22 129.85 365.50 127.91 362.47 125.43 C 351.62 116.74 337.97 111.55 323.99 111.66 C 316.88 111.45 309.91 113.17 303.14 115.16 Z" />
</g>
<g id="#ffffffff">
<path fill="#ffffff" opacity="1.00" d=" M 303.14 115.16 C 309.91 113.17 316.88 111.45 323.99 111.66 C 337.97 111.55 351.62 116.74 362.47 125.43 C 365.50 127.91 369.22 129.85 370.96 133.56 C 373.43 133.03 376.10 133.00 378.27 131.58 C 390.21 128.33 401.95 123.71 412.34 116.86 C 411.68 121.31 408.69 124.83 406.99 128.89 C 402.13 139.57 393.41 147.86 384.06 154.64 C 392.53 153.56 401.02 151.92 409.06 148.96 C 413.06 148.18 416.23 145.47 420.08 144.26 C 417.60 150.19 413.25 155.19 408.87 159.83 C 403.31 167.41 395.86 173.25 388.73 179.22 C 388.73 190.83 388.92 202.52 387.03 214.01 C 386.01 220.33 385.45 226.73 383.71 232.91 C 382.66 236.63 382.59 240.65 380.57 244.04 C 377.08 256.70 372.34 268.99 366.78 280.89 C 362.40 287.05 359.79 294.27 355.42 300.45 C 349.67 308.56 343.86 316.67 337.40 324.25 C 333.08 328.71 328.50 332.92 324.40 337.57 C 317.04 343.89 309.24 349.71 301.30 355.30 C 294.79 359.74 287.40 362.62 280.76 366.83 C 266.82 373.12 252.07 377.37 237.03 380.07 C 215.65 384.38 193.24 384.65 171.91 379.86 C 155.00 376.44 138.07 371.66 123.09 362.92 C 117.11 360.12 111.49 356.66 105.84 353.27 C 108.18 352.80 110.52 353.33 112.85 353.57 C 120.60 354.24 128.37 353.57 136.08 352.75 C 148.36 350.07 160.88 347.70 172.27 342.17 C 175.53 340.47 179.22 339.55 182.11 337.18 C 188.02 332.58 195.66 330.04 200.33 323.98 C 195.75 323.29 190.50 324.23 186.45 321.64 C 164.44 316.36 146.72 297.99 140.47 276.53 C 150.03 278.10 159.84 277.64 169.30 275.61 C 164.16 272.70 157.90 272.31 152.92 268.97 C 144.34 264.71 137.68 257.63 131.45 250.52 C 125.27 242.10 121.23 232.23 119.15 222.02 C 118.90 217.01 116.67 212.28 117.35 207.21 C 126.12 212.63 136.38 215.24 146.59 215.88 C 143.47 212.81 139.88 210.25 136.99 206.95 C 132.94 201.61 127.95 196.86 125.57 190.43 C 115.57 169.98 116.30 145.05 126.39 124.78 C 131.04 128.74 134.31 134.09 138.71 138.34 C 146.04 145.99 153.72 153.44 162.45 159.51 C 169.58 166.11 178.47 170.25 186.70 175.26 C 190.05 177.97 194.39 178.84 198.07 181.00 C 207.18 184.86 216.59 188.05 226.17 190.52 C 232.11 193.25 238.79 193.23 245.10 194.55 C 250.23 195.14 255.35 196.00 260.53 196.02 C 259.16 187.50 258.11 178.75 259.71 170.18 C 260.69 164.47 261.33 158.48 264.33 153.39 C 266.07 150.36 266.99 146.92 268.86 143.95 C 274.45 134.55 282.29 126.38 291.75 120.84 C 295.66 119.16 298.95 116.22 303.14 115.16 Z" />
</g>
</svg>
