<?xml version="1.0" encoding="UTF-8" ?>
<!DOCTYPE svg PUBLIC "-//W3C//DTD SVG 1.1//EN" "http://www.w3.org/Graphics/SVG/1.1/DTD/svg11.dtd">
<svg width="512pt" height="512pt" viewBox="0 0 512 512" version="1.1" xmlns="http://www.w3.org/2000/svg">
<g id="#5175b5ff">
<path fill="#5175b5" opacity="1.00" d=" M 25.08 0.00 L 486.98 0.00 L 488.70 0.77 C 475.80 1.25 462.89 0.89 449.99 1.00 C 310.65 1.01 171.31 0.99 31.97 1.01 C 30.25 0.96 28.54 0.83 26.83 0.67 L 25.08 0.00 Z" />
</g>
<g id="#6a94d6ff">
<path fill="#6a94d6" opacity="1.00" d=" M 22.45 1.59 C 23.90 1.26 25.36 0.95 26.83 0.67 C 28.54 0.83 30.25 0.96 31.97 1.01 C 171.31 0.99 310.65 1.01 449.99 1.00 C 462.89 0.89 475.80 1.25 488.70 0.77 C 491.39 1.64 494.07 2.55 496.62 3.80 C 497.07 3.89 497.98 4.07 498.44 4.16 C 505.39 8.34 510.54 15.20 512.00 23.25 L 512.00 490.81 C 511.56 491.99 511.13 493.19 510.73 494.39 C 507.95 501.87 501.91 507.93 494.43 510.71 C 493.22 511.12 492.02 511.55 490.83 512.00 L 23.22 512.00 C 19.42 511.08 15.73 509.59 12.40 507.54 C 9.04 505.13 6.52 501.79 4.17 498.44 C 4.07 497.98 3.89 497.06 3.80 496.61 C 2.29 493.44 1.22 490.09 0.00 486.81 L 0.00 26.63 C 0.55 25.24 1.11 23.85 1.68 22.47 C 2.30 19.70 3.42 17.09 4.36 14.42 C 6.87 10.32 10.32 6.88 14.42 4.37 C 17.09 3.43 19.71 2.32 22.45 1.59 M 240.00 102.89 C 236.57 103.82 233.01 104.00 229.51 104.50 C 233.70 105.44 237.92 103.85 242.13 103.75 C 255.04 101.62 268.15 103.05 281.02 104.70 C 286.18 105.31 291.27 107.14 296.51 106.65 C 288.69 104.98 280.77 103.93 272.92 102.42 C 267.99 101.55 263.00 102.40 258.04 102.30 C 252.03 102.29 245.91 101.43 240.00 102.89 M 225.36 105.26 C 225.31 106.69 227.81 106.53 228.54 105.72 C 228.58 104.30 226.08 104.45 225.36 105.26 M 214.75 108.08 C 218.07 107.66 221.38 107.08 224.63 106.26 C 221.23 106.00 217.86 106.72 214.75 108.08 M 295.91 107.26 C 301.68 108.87 307.32 111.35 313.35 111.77 C 307.62 110.06 301.95 107.40 295.91 107.26 M 211.28 108.41 C 210.73 108.45 207.69 109.45 209.41 110.04 C 211.21 109.96 213.24 109.65 214.71 108.55 C 214.41 107.23 212.16 108.35 211.28 108.41 M 206.24 110.12 C 206.54 113.43 209.16 108.46 206.24 110.12 M 199.79 112.95 C 201.37 113.18 204.17 112.69 204.72 111.09 C 203.14 110.64 200.34 111.38 199.79 112.95 M 314.41 112.24 C 314.93 112.79 314.93 112.79 314.41 112.24 M 197.39 113.08 C 197.50 116.41 200.39 111.57 197.39 113.08 M 315.97 113.16 C 316.04 114.52 318.71 115.45 319.81 114.74 C 319.87 113.13 317.15 112.86 315.97 113.16 M 177.40 123.42 C 172.01 126.11 167.04 129.52 162.34 133.26 C 148.30 143.00 136.61 155.69 126.50 169.38 C 122.87 174.22 120.43 179.82 116.82 184.68 C 111.27 194.85 107.25 205.80 104.06 216.93 C 99.44 230.09 98.65 244.19 98.10 258.00 C 98.73 271.97 99.72 286.20 104.55 299.45 C 106.83 307.74 109.97 315.75 113.53 323.58 C 115.74 329.03 119.65 333.52 122.27 338.76 C 128.90 349.44 137.32 358.88 146.10 367.83 C 155.34 375.72 164.75 383.60 175.43 389.52 C 179.64 391.58 183.73 393.86 187.80 396.19 C 201.51 402.38 216.06 406.74 230.96 408.88 C 236.66 409.55 242.21 411.40 248.01 411.03 C 257.93 410.65 268.09 412.11 277.74 409.12 C 276.74 406.88 277.16 404.63 278.90 402.90 C 278.95 401.26 278.99 399.62 279.03 397.98 C 277.61 398.00 276.19 398.03 274.77 398.06 C 271.03 392.95 266.83 388.00 261.37 384.66 C 258.26 382.77 255.00 380.91 252.69 378.03 C 251.43 374.46 252.44 370.61 254.45 367.54 C 256.80 366.43 259.91 365.61 260.89 362.91 C 261.76 359.67 261.66 356.28 262.00 352.97 C 258.68 352.53 255.35 352.81 252.03 352.86 C 248.31 351.76 244.85 349.92 241.15 348.75 C 239.44 345.06 238.18 340.82 234.46 338.62 C 227.02 331.63 216.49 330.41 207.44 326.52 C 202.41 324.54 200.07 318.95 194.97 317.06 C 192.46 316.09 190.62 314.11 189.08 311.98 C 191.37 307.33 188.83 302.44 186.60 298.33 C 183.42 293.10 183.29 286.77 180.89 281.21 C 180.05 281.52 179.20 281.83 178.36 282.14 C 179.76 288.04 180.07 294.46 183.88 299.47 C 178.27 297.20 177.33 290.94 175.11 286.04 C 173.55 281.72 172.73 277.17 171.22 272.83 C 168.62 265.78 170.52 258.22 171.26 251.02 C 172.04 242.53 177.05 235.20 182.29 228.79 C 181.86 225.58 181.34 222.35 181.58 219.10 C 181.69 210.85 185.66 203.31 186.42 195.15 C 186.35 191.65 186.13 187.86 184.19 184.82 C 179.45 181.19 173.23 180.52 168.01 177.79 C 167.96 176.96 167.86 175.31 167.81 174.49 C 168.64 175.30 169.46 176.12 170.28 176.95 C 171.39 177.02 172.50 177.08 173.62 177.15 C 174.67 173.09 176.57 168.29 180.98 166.97 C 182.86 167.02 184.69 167.53 186.52 167.95 C 187.31 166.23 188.09 164.50 188.88 162.78 C 193.83 163.38 198.78 160.96 203.63 162.34 C 207.64 165.22 204.61 171.02 207.65 174.48 C 212.82 182.77 222.38 186.48 228.99 193.35 C 229.00 191.67 229.02 190.00 229.04 188.32 C 227.70 187.21 226.36 186.11 225.02 185.00 C 225.00 184.34 224.97 183.01 224.96 182.35 C 223.75 181.15 222.56 179.95 221.39 178.73 C 223.34 177.29 225.69 176.75 228.04 176.40 C 229.77 179.49 232.77 181.39 235.23 183.79 C 236.76 186.44 236.00 189.73 236.21 192.66 C 236.71 193.15 237.71 194.11 238.21 194.60 C 239.08 193.98 239.94 193.37 240.81 192.76 C 241.49 190.53 241.06 186.98 244.08 186.53 C 244.58 189.25 244.91 192.00 245.18 194.76 C 247.89 195.77 250.72 195.51 253.51 195.16 C 254.42 195.85 255.30 196.57 256.17 197.33 C 253.81 200.23 250.63 202.20 247.76 204.51 C 244.75 207.59 241.45 210.58 239.49 214.48 C 238.42 218.18 237.81 222.50 240.39 225.74 C 243.97 226.48 247.53 227.40 250.88 228.90 C 250.48 233.77 253.49 237.87 257.26 240.58 C 258.20 235.84 258.07 230.74 260.55 226.44 C 257.02 222.48 258.41 216.76 258.01 211.93 C 263.07 211.52 268.42 213.48 271.70 217.43 C 273.96 220.16 278.27 217.89 280.79 220.18 C 286.24 224.38 292.47 228.58 294.82 235.39 C 294.37 236.44 293.93 237.50 293.49 238.56 C 287.27 241.32 278.28 241.53 275.57 248.98 C 279.20 248.19 281.87 244.98 285.70 244.92 C 285.85 246.37 286.00 247.83 286.15 249.29 C 289.10 250.70 293.60 247.60 294.65 251.94 C 290.91 253.66 287.14 255.47 284.14 258.35 C 283.52 257.99 282.30 257.28 281.69 256.92 C 278.07 258.66 275.74 262.00 274.57 265.77 C 268.72 269.51 266.51 277.08 266.96 283.71 C 263.70 286.23 259.94 288.13 256.99 291.03 C 255.38 293.39 254.12 296.14 253.97 299.02 C 254.81 302.39 256.33 305.57 256.76 309.06 C 256.06 309.12 254.67 309.24 253.97 309.30 C 250.81 305.40 248.56 300.00 243.18 298.72 C 239.31 297.02 235.35 298.88 231.64 300.04 C 227.67 296.90 222.63 298.23 218.14 299.14 C 216.48 301.17 214.71 303.17 213.43 305.47 C 212.08 309.38 212.54 313.57 213.12 317.57 C 217.00 320.48 221.31 325.74 226.69 323.00 C 227.64 320.16 230.09 318.69 232.82 317.86 C 234.09 318.58 235.36 319.30 236.64 320.02 C 236.34 321.98 236.06 323.95 235.75 325.92 C 234.23 327.58 233.69 329.75 233.82 331.97 C 239.07 331.66 244.59 332.13 248.91 335.47 C 248.59 338.46 247.92 341.40 246.81 344.20 C 248.68 346.60 251.13 348.65 254.01 349.67 C 256.86 350.09 259.77 350.19 262.57 350.93 C 266.30 348.09 269.70 344.70 274.21 343.07 C 276.73 343.93 279.28 344.72 281.85 345.45 C 284.42 344.26 287.21 343.76 290.03 343.90 C 294.45 344.06 298.80 343.22 303.02 341.95 C 307.32 343.60 311.53 345.63 316.12 346.36 C 321.21 347.38 326.44 346.93 331.60 346.98 C 333.76 349.76 335.96 352.52 338.38 355.09 C 344.28 353.90 350.44 353.63 356.06 351.28 C 358.37 350.53 360.55 349.07 363.04 349.05 C 364.90 349.89 366.57 351.10 368.29 352.20 C 364.74 357.11 360.06 361.51 358.54 367.57 C 357.80 369.88 357.80 372.40 356.80 374.62 C 353.89 377.17 350.28 378.77 347.46 381.45 C 341.80 386.64 334.36 389.03 327.92 393.03 C 321.75 397.11 314.38 398.69 307.94 402.25 C 313.82 400.81 319.35 398.24 324.86 395.79 C 333.38 390.69 342.79 386.95 350.33 380.34 C 362.05 372.29 372.26 362.24 381.13 351.18 C 386.12 345.55 390.03 339.12 393.83 332.66 C 398.46 326.48 401.12 319.17 404.12 312.13 C 408.81 299.25 413.40 286.13 414.21 272.32 C 408.92 273.67 407.08 278.99 404.62 283.22 C 398.49 283.50 393.96 278.50 391.59 273.37 C 386.28 262.80 384.33 250.72 385.49 238.99 C 386.48 232.65 382.52 227.11 380.24 221.50 C 381.27 218.93 382.43 216.41 383.76 213.98 C 383.52 212.38 383.28 210.78 383.02 209.19 C 381.02 212.81 380.29 217.30 376.72 219.84 C 374.85 218.73 372.97 217.64 371.08 216.55 C 371.01 215.51 370.93 214.46 370.86 213.41 C 368.54 211.71 366.57 209.55 367.10 206.44 C 368.08 205.30 369.07 204.15 370.05 203.01 C 370.03 201.38 370.01 199.76 370.00 198.14 C 367.05 197.34 364.02 196.91 360.96 196.86 C 359.31 193.78 360.11 190.28 359.88 186.97 C 358.45 182.71 356.03 178.47 351.75 176.56 C 350.53 172.96 350.23 169.16 349.36 165.49 C 347.23 161.22 343.86 157.45 343.42 152.49 C 339.58 150.94 335.74 149.32 332.23 147.09 C 331.82 147.54 331.01 148.43 330.61 148.88 C 331.08 149.46 332.03 150.62 332.50 151.20 C 331.38 152.04 330.27 152.88 329.15 153.72 C 335.46 155.50 339.38 160.91 344.62 164.37 C 343.21 164.99 341.81 165.63 340.41 166.26 C 339.92 167.26 339.44 168.26 338.96 169.27 C 336.36 168.62 333.72 167.99 331.37 166.67 C 327.34 164.62 327.25 158.93 323.13 156.91 C 317.08 153.63 309.68 151.81 306.08 145.37 C 309.82 143.18 314.05 142.15 318.32 141.71 C 318.13 139.31 316.61 137.78 314.46 136.93 C 314.05 137.45 313.23 138.48 312.82 139.00 C 311.42 139.00 310.02 139.00 308.63 139.01 C 308.75 138.23 309.00 136.67 309.12 135.89 C 307.93 135.46 306.75 135.03 305.57 134.59 C 304.47 133.06 303.58 131.29 301.94 130.25 C 297.20 127.03 292.17 124.27 287.43 121.06 C 285.43 122.59 283.72 125.16 280.94 125.12 C 277.66 124.61 274.42 123.58 271.07 123.75 C 267.11 123.54 263.78 126.10 259.90 126.42 C 255.64 127.26 251.42 125.68 247.34 124.64 C 247.21 123.90 246.97 122.43 246.84 121.70 C 244.87 121.62 242.89 121.55 240.92 121.51 C 236.86 125.30 230.88 123.38 225.99 125.16 C 225.98 126.38 225.98 127.61 225.99 128.83 C 222.80 130.29 219.35 130.97 215.86 131.09 C 214.52 132.70 213.61 134.58 214.41 136.73 C 211.17 138.17 207.59 138.36 204.14 138.95 C 203.83 140.82 203.51 142.69 203.18 144.55 C 197.61 149.36 193.52 156.85 185.57 157.92 C 186.66 156.11 187.79 154.32 188.94 152.54 C 188.53 151.81 188.13 151.07 187.72 150.34 C 186.51 150.42 185.30 150.50 184.08 150.59 C 182.82 148.47 181.58 146.34 180.37 144.20 C 183.38 139.63 189.34 138.72 192.12 134.01 C 191.91 132.09 191.69 130.16 191.46 128.24 C 194.39 126.96 197.27 125.56 200.11 124.08 C 200.06 122.04 200.11 120.00 199.86 117.97 C 198.74 116.45 197.16 115.35 195.76 114.11 C 189.23 116.38 183.55 120.37 177.40 123.42 M 321.18 115.33 C 327.05 118.33 332.52 122.30 338.85 124.35 C 335.06 121.62 330.66 119.92 326.76 117.35 C 325.02 116.49 323.24 114.97 321.18 115.33 M 338.26 123.72 C 341.29 126.80 345.35 128.49 348.68 131.20 C 352.85 134.67 357.74 137.21 361.57 141.10 C 366.96 146.13 373.51 150.75 376.18 157.90 C 377.80 161.66 376.02 166.15 378.24 169.72 C 379.54 171.14 381.45 171.73 383.10 172.64 C 382.51 173.85 382.59 175.74 381.15 176.29 C 378.28 177.11 375.24 177.25 372.43 178.35 C 374.59 179.50 376.83 180.51 379.09 181.46 C 379.04 182.08 378.93 183.32 378.88 183.95 C 376.76 183.98 374.64 184.00 372.53 184.04 C 373.63 188.35 374.85 192.64 375.30 197.08 C 377.62 201.31 379.09 206.53 383.71 208.88 C 384.22 203.25 383.83 197.58 384.14 191.93 C 386.03 192.25 387.91 192.61 389.79 192.98 C 389.58 190.68 389.48 188.37 389.01 186.11 C 387.90 183.76 386.05 181.87 384.51 179.82 C 385.32 178.60 386.59 177.56 386.91 176.08 C 386.53 173.30 385.99 170.54 385.86 167.73 C 390.10 172.24 391.67 178.69 396.43 182.74 C 394.56 179.80 392.65 176.89 390.98 173.84 C 385.64 165.16 379.02 157.36 371.91 150.09 C 368.08 145.17 362.98 141.52 358.33 137.44 C 351.78 132.67 345.56 127.33 338.26 123.72 M 395.79 182.15 C 398.77 187.94 400.85 194.18 404.13 199.81 C 401.98 193.68 399.75 187.37 395.79 182.15 M 404.15 199.96 C 403.76 201.44 404.30 204.24 405.92 204.65 C 406.42 203.16 405.69 200.40 404.15 199.96 M 406.20 205.92 C 405.81 207.48 406.29 210.28 407.81 210.93 C 408.27 209.36 407.78 206.50 406.20 205.92 M 407.94 211.57 C 408.42 215.00 409.49 218.31 411.00 221.42 C 410.93 217.91 409.58 214.62 407.94 211.57 M 411.15 222.42 C 410.27 223.65 410.51 224.36 411.85 224.56 C 412.72 223.32 412.48 222.61 411.15 222.42 M 412.22 226.43 C 411.45 227.61 411.54 229.43 412.39 230.56 C 413.81 230.29 413.64 226.62 412.22 226.43 M 413.24 236.09 C 415.08 247.81 413.78 259.70 414.31 271.47 C 415.50 267.43 414.65 263.19 414.71 259.05 C 414.41 252.98 415.49 246.89 414.57 240.85 C 414.09 237.55 413.94 234.22 413.49 230.92 C 413.17 232.62 412.93 234.36 413.24 236.09 M 294.10 405.84 C 299.11 405.75 303.86 403.78 308.44 401.94 C 303.50 402.55 298.83 404.38 294.10 405.84 M 278.10 408.89 C 283.77 408.95 289.32 407.41 294.80 406.11 C 289.12 406.07 283.61 407.72 278.10 408.89 Z" />
<path fill="#6a94d6" opacity="1.00" d=" M 264.57 164.91 C 266.68 162.73 268.87 160.13 272.08 159.72 C 274.89 159.34 277.72 159.75 280.51 160.03 C 283.03 162.71 286.39 164.31 289.93 165.17 C 296.14 166.67 300.51 171.68 305.01 175.86 C 305.00 177.73 304.99 179.60 304.97 181.47 C 303.51 183.09 301.10 184.44 301.21 186.93 C 301.01 191.53 300.83 196.13 300.72 200.73 C 301.70 204.46 305.72 205.77 309.03 206.64 C 304.97 207.52 301.17 209.53 297.02 209.96 C 294.19 208.92 291.67 207.22 289.05 205.76 C 288.96 204.64 288.87 203.53 288.79 202.42 C 287.56 201.76 286.33 201.11 285.10 200.46 C 283.86 196.77 285.00 192.00 281.80 189.21 C 277.44 185.08 272.16 182.12 267.11 178.94 C 263.98 176.94 262.60 173.43 261.50 170.05 C 259.04 173.06 258.05 176.83 257.07 180.51 C 254.19 179.09 251.68 177.03 250.44 173.99 C 251.71 171.19 252.91 168.23 252.06 165.11 C 254.83 163.97 260.30 160.65 261.37 165.35 C 262.43 165.20 263.50 165.06 264.57 164.91 Z" />
<path fill="#6a94d6" opacity="1.00" d=" M 337.05 175.27 C 337.84 174.81 338.65 174.34 339.45 173.88 C 343.11 179.26 349.92 179.94 355.25 182.79 C 357.98 184.17 356.18 187.56 356.28 189.87 C 352.31 188.51 348.51 186.73 344.59 185.25 C 345.31 188.72 349.23 190.09 349.95 193.63 C 346.18 193.14 343.23 190.19 342.46 186.53 C 341.49 182.41 339.01 178.95 337.05 175.27 Z" />
<path fill="#6a94d6" opacity="1.00" d=" M 310.37 181.13 C 312.80 179.33 315.18 177.40 318.06 176.36 C 319.11 177.24 320.20 178.08 321.18 179.04 C 321.20 183.20 318.47 186.46 315.92 189.43 C 311.87 188.65 310.61 184.76 310.37 181.13 Z" />
<path fill="#6a94d6" opacity="1.00" d=" M 246.79 187.11 C 247.93 186.22 249.07 185.33 250.20 184.44 C 255.15 185.27 259.40 188.02 263.86 190.12 C 267.25 191.48 266.99 196.31 270.33 197.72 C 273.22 199.03 276.08 200.83 276.98 204.10 C 276.00 206.47 274.70 208.69 273.69 211.04 C 272.80 211.33 271.91 211.63 271.02 211.92 C 267.12 209.97 262.80 209.20 258.63 208.02 C 262.07 206.30 264.17 202.24 262.45 198.57 C 260.30 193.77 253.64 195.34 250.50 191.66 C 249.22 190.18 248.02 188.64 246.79 187.11 Z" />
<path fill="#6a94d6" opacity="1.00" d=" M 246.17 317.24 C 252.37 316.57 257.94 320.10 264.03 320.54 C 266.83 320.62 269.19 322.05 271.30 323.76 C 269.19 324.95 266.81 326.37 264.29 325.77 C 260.59 323.90 257.72 320.47 253.55 319.55 C 251.07 318.81 248.04 319.37 246.17 317.24 Z" />
<path fill="#6a94d6" opacity="1.00" d=" M 272.30 326.77 C 273.21 323.09 277.81 323.79 280.73 323.77 C 282.40 325.26 284.05 326.77 285.93 328.01 C 281.34 328.53 276.64 328.52 272.30 326.77 Z" />
</g>
<g id="#fdfdfeff">
<path fill="#fdfdfe" opacity="1.00" d=" M 240.00 102.89 C 245.91 101.43 252.03 102.29 258.04 102.30 C 263.00 102.40 267.99 101.55 272.92 102.42 C 280.77 103.93 288.69 104.98 296.51 106.65 C 291.27 107.14 286.18 105.31 281.02 104.70 C 268.15 103.05 255.04 101.62 242.13 103.75 C 237.92 103.85 233.70 105.44 229.51 104.50 C 233.01 104.00 236.57 103.82 240.00 102.89 Z" />
<path fill="#fdfdfe" opacity="1.00" d=" M 214.75 108.08 C 217.86 106.72 221.23 106.00 224.63 106.26 C 221.38 107.08 218.07 107.66 214.75 108.08 Z" />
<path fill="#fdfdfe" opacity="1.00" d=" M 295.91 107.26 C 301.95 107.40 307.62 110.06 313.35 111.77 C 307.32 111.35 301.68 108.87 295.91 107.26 Z" />
<path fill="#fdfdfe" opacity="1.00" d=" M 211.28 108.41 C 212.16 108.35 214.41 107.23 214.71 108.55 C 213.24 109.65 211.21 109.96 209.41 110.04 C 207.69 109.45 210.73 108.45 211.28 108.41 Z" />
<path fill="#fdfdfe" opacity="1.00" d=" M 199.79 112.95 C 200.34 111.38 203.14 110.64 204.72 111.09 C 204.17 112.69 201.37 113.18 199.79 112.95 Z" />
<path fill="#fdfdfe" opacity="1.00" d=" M 177.40 123.42 C 183.55 120.37 189.23 116.38 195.76 114.11 C 197.16 115.35 198.74 116.45 199.86 117.97 C 200.11 120.00 200.06 122.04 200.11 124.08 C 197.27 125.56 194.39 126.96 191.46 128.24 C 191.69 130.16 191.91 132.09 192.12 134.01 C 189.34 138.72 183.38 139.63 180.37 144.20 C 181.58 146.34 182.82 148.47 184.08 150.59 C 185.30 150.50 186.51 150.42 187.72 150.34 C 188.13 151.07 188.53 151.81 188.94 152.54 C 187.79 154.32 186.66 156.11 185.57 157.92 C 193.52 156.85 197.61 149.36 203.18 144.55 C 203.51 142.69 203.83 140.82 204.14 138.95 C 207.59 138.36 211.17 138.17 214.41 136.73 C 213.61 134.58 214.52 132.70 215.86 131.09 C 219.35 130.97 222.80 130.29 225.99 128.83 C 225.98 127.61 225.98 126.38 225.99 125.16 C 230.88 123.38 236.86 125.30 240.92 121.51 C 242.89 121.55 244.87 121.62 246.84 121.70 C 246.97 122.43 247.21 123.90 247.34 124.64 C 251.42 125.68 255.64 127.26 259.90 126.42 C 263.78 126.10 267.11 123.54 271.07 123.75 C 274.42 123.58 277.66 124.61 280.94 125.12 C 283.72 125.16 285.43 122.59 287.43 121.06 C 292.17 124.27 297.20 127.03 301.94 130.25 C 303.58 131.29 304.47 133.06 305.57 134.59 C 306.75 135.03 307.93 135.46 309.12 135.89 C 309.00 136.67 308.75 138.23 308.63 139.01 C 310.02 139.00 311.42 139.00 312.82 139.00 C 313.23 138.48 314.05 137.45 314.46 136.93 C 316.61 137.78 318.13 139.31 318.32 141.71 C 314.05 142.15 309.82 143.18 306.08 145.37 C 309.68 151.81 317.08 153.63 323.13 156.91 C 327.25 158.93 327.34 164.62 331.37 166.67 C 333.72 167.99 336.36 168.62 338.96 169.27 C 339.44 168.26 339.92 167.26 340.41 166.26 C 341.81 165.63 343.21 164.99 344.62 164.37 C 339.38 160.91 335.46 155.50 329.15 153.72 C 330.27 152.88 331.38 152.04 332.50 151.20 C 332.03 150.62 331.08 149.46 330.61 148.88 C 331.01 148.43 331.82 147.54 332.23 147.09 C 335.74 149.32 339.58 150.94 343.42 152.49 C 343.86 157.45 347.23 161.22 349.36 165.49 C 350.23 169.16 350.53 172.96 351.75 176.56 C 356.03 178.47 358.45 182.71 359.88 186.97 C 360.11 190.28 359.31 193.78 360.96 196.86 C 364.02 196.91 367.05 197.34 370.00 198.14 C 370.01 199.76 370.03 201.38 370.05 203.01 C 369.07 204.15 368.08 205.30 367.10 206.44 C 366.57 209.55 368.54 211.71 370.86 213.41 C 370.93 214.46 371.01 215.51 371.08 216.55 C 372.97 217.64 374.85 218.73 376.72 219.84 C 380.29 217.30 381.02 212.81 383.02 209.19 C 383.28 210.78 383.52 212.38 383.76 213.98 C 382.43 216.41 381.27 218.93 380.24 221.50 C 382.52 227.11 386.48 232.65 385.49 238.99 C 384.33 250.72 386.28 262.80 391.59 273.37 C 393.96 278.50 398.49 283.50 404.62 283.22 C 407.08 278.99 408.92 273.67 414.21 272.32 C 413.40 286.13 408.81 299.25 404.12 312.13 C 401.12 319.17 398.46 326.48 393.83 332.66 C 390.03 339.12 386.12 345.55 381.13 351.18 C 372.26 362.24 362.05 372.29 350.33 380.34 C 342.79 386.95 333.38 390.69 324.86 395.79 C 319.35 398.24 313.82 400.81 307.94 402.25 C 314.38 398.69 321.75 397.11 327.92 393.03 C 334.36 389.03 341.80 386.64 347.46 381.45 C 350.28 378.77 353.89 377.17 356.80 374.62 C 357.80 372.40 357.80 369.88 358.54 367.57 C 360.06 361.51 364.74 357.11 368.29 352.20 C 366.57 351.10 364.90 349.89 363.04 349.05 C 360.55 349.07 358.37 350.53 356.06 351.28 C 350.44 353.63 344.28 353.90 338.38 355.09 C 335.96 352.52 333.76 349.76 331.60 346.98 C 326.44 346.93 321.21 347.38 316.12 346.36 C 311.53 345.63 307.32 343.60 303.02 341.95 C 298.80 343.22 294.45 344.06 290.03 343.90 C 287.21 343.76 284.42 344.26 281.85 345.45 C 279.28 344.72 276.73 343.93 274.21 343.07 C 269.70 344.70 266.30 348.09 262.57 350.93 C 259.77 350.19 256.86 350.09 254.01 349.67 C 251.13 348.65 248.68 346.60 246.81 344.20 C 247.92 341.40 248.59 338.46 248.91 335.47 C 244.59 332.13 239.07 331.66 233.82 331.97 C 233.69 329.75 234.23 327.58 235.75 325.92 C 236.06 323.95 236.34 321.98 236.64 320.02 C 235.36 319.30 234.09 318.58 232.82 317.86 C 230.09 318.69 227.64 320.16 226.69 323.00 C 221.31 325.74 217.00 320.48 213.12 317.57 C 212.54 313.57 212.08 309.38 213.43 305.47 C 214.71 303.17 216.48 301.17 218.14 299.14 C 222.63 298.23 227.67 296.90 231.64 300.04 C 235.35 298.88 239.31 297.02 243.18 298.72 C 248.56 300.00 250.81 305.40 253.97 309.30 C 254.67 309.24 256.06 309.12 256.76 309.06 C 256.33 305.57 254.81 302.39 253.97 299.02 C 254.12 296.14 255.38 293.39 256.99 291.03 C 259.94 288.13 263.70 286.23 266.96 283.71 C 266.51 277.08 268.72 269.51 274.57 265.77 C 275.74 262.00 278.07 258.66 281.69 256.92 C 282.30 257.28 283.52 257.99 284.14 258.35 C 287.14 255.47 290.91 253.66 294.65 251.94 C 293.60 247.60 289.10 250.70 286.15 249.29 C 286.00 247.83 285.85 246.37 285.70 244.92 C 281.87 244.98 279.20 248.19 275.57 248.98 C 278.28 241.53 287.27 241.32 293.49 238.56 C 293.93 237.50 294.37 236.44 294.82 235.39 C 292.47 228.58 286.24 224.38 280.79 220.18 C 278.27 217.89 273.96 220.16 271.70 217.43 C 268.42 213.48 263.07 211.52 258.01 211.93 C 258.41 216.76 257.02 222.48 260.55 226.44 C 258.07 230.74 258.20 235.84 257.26 240.58 C 253.49 237.87 250.48 233.77 250.88 228.90 C 247.53 227.40 243.97 226.48 240.39 225.74 C 237.81 222.50 238.42 218.18 239.49 214.48 C 241.45 210.58 244.75 207.59 247.76 204.51 C 250.63 202.20 253.81 200.23 256.17 197.33 C 255.30 196.57 254.42 195.85 253.51 195.16 C 250.72 195.51 247.89 195.77 245.18 194.76 C 244.91 192.00 244.58 189.25 244.08 186.53 C 241.06 186.98 241.49 190.53 240.81 192.76 C 239.94 193.37 239.08 193.98 238.21 194.60 C 237.71 194.11 236.71 193.15 236.21 192.66 C 236.00 189.73 236.76 186.44 235.23 183.79 C 232.77 181.39 229.77 179.49 228.04 176.40 C 225.69 176.75 223.34 177.29 221.39 178.73 C 222.56 179.95 223.75 181.15 224.96 182.35 C 224.97 183.01 225.00 184.34 225.02 185.00 C 226.36 186.11 227.70 187.21 229.04 188.32 C 229.02 190.00 229.00 191.67 228.99 193.35 C 222.38 186.48 212.82 182.77 207.65 174.48 C 204.61 171.02 207.64 165.22 203.63 162.34 C 198.78 160.96 193.83 163.38 188.88 162.78 C 188.09 164.50 187.31 166.23 186.52 167.95 C 184.69 167.53 182.86 167.02 180.98 166.97 C 176.57 168.29 174.67 173.09 173.62 177.15 C 172.50 177.08 171.39 177.02 170.28 176.95 C 169.46 176.12 168.64 175.30 167.81 174.49 C 167.86 175.31 167.96 176.96 168.01 177.79 C 173.23 180.52 179.45 181.19 184.19 184.82 C 186.13 187.86 186.35 191.65 186.42 195.15 C 185.66 203.31 181.69 210.85 181.58 219.10 C 181.34 222.35 181.86 225.58 182.29 228.79 C 177.05 235.20 172.04 242.53 171.26 251.02 C 170.52 258.22 168.62 265.78 171.22 272.83 C 172.73 277.17 173.55 281.72 175.11 286.04 C 177.33 290.94 178.27 297.20 183.88 299.47 C 180.07 294.46 179.76 288.04 178.36 282.14 C 179.20 281.83 180.05 281.52 180.89 281.21 C 183.29 286.77 183.42 293.10 186.60 298.33 C 188.83 302.44 191.37 307.33 189.08 311.98 C 190.62 314.11 192.46 316.09 194.97 317.06 C 200.07 318.95 202.41 324.54 207.44 326.52 C 216.49 330.41 227.02 331.63 234.46 338.62 C 238.18 340.82 239.44 345.06 241.15 348.75 C 244.85 349.92 248.31 351.76 252.03 352.86 C 255.35 352.81 258.68 352.53 262.00 352.97 C 261.66 356.28 261.76 359.67 260.89 362.91 C 259.91 365.61 256.80 366.43 254.45 367.54 C 252.44 370.61 251.43 374.46 252.69 378.03 C 255.00 380.91 258.26 382.77 261.37 384.66 C 266.83 388.00 271.03 392.95 274.77 398.06 C 276.19 398.03 277.61 398.00 279.03 397.98 C 278.99 399.62 278.95 401.26 278.90 402.90 C 277.16 404.63 276.74 406.88 277.74 409.12 C 268.09 412.11 257.93 410.65 248.01 411.03 C 242.21 411.40 236.66 409.55 230.96 408.88 C 216.06 406.74 201.51 402.38 187.80 396.19 C 183.73 393.86 179.64 391.58 175.43 389.52 C 164.75 383.60 155.34 375.72 146.10 367.83 C 137.32 358.88 128.90 349.44 122.27 338.76 C 119.65 333.52 115.74 329.03 113.53 323.58 C 109.97 315.75 106.83 307.74 104.55 299.45 C 99.72 286.20 98.73 271.97 98.10 258.00 C 98.65 244.19 99.44 230.09 104.06 216.93 C 107.25 205.80 111.27 194.85 116.82 184.68 C 120.43 179.82 122.87 174.22 126.50 169.38 C 136.61 155.69 148.30 143.00 162.34 133.26 C 167.04 129.52 172.01 126.11 177.40 123.42 M 264.57 164.91 C 263.50 165.06 262.43 165.20 261.37 165.35 C 260.30 160.65 254.83 163.97 252.06 165.11 C 252.91 168.23 251.71 171.19 250.44 173.99 C 251.68 177.03 254.19 179.09 257.07 180.51 C 258.05 176.83 259.04 173.06 261.50 170.05 C 262.60 173.43 263.98 176.94 267.11 178.94 C 272.16 182.12 277.44 185.08 281.80 189.21 C 285.00 192.00 283.86 196.77 285.10 200.46 C 286.33 201.11 287.56 201.76 288.79 202.42 C 288.87 203.53 288.96 204.64 289.05 205.76 C 291.67 207.22 294.19 208.92 297.02 209.96 C 301.17 209.53 304.97 207.52 309.03 206.64 C 305.72 205.77 301.70 204.46 300.72 200.73 C 300.83 196.13 301.01 191.53 301.21 186.93 C 301.10 184.44 303.51 183.09 304.97 181.47 C 304.99 179.60 305.00 177.73 305.01 175.86 C 300.51 171.68 296.14 166.67 289.93 165.17 C 286.39 164.31 283.03 162.71 280.51 160.03 C 277.72 159.75 274.89 159.34 272.08 159.72 C 268.87 160.13 266.68 162.73 264.57 164.91 M 337.05 175.27 C 339.01 178.95 341.49 182.41 342.46 186.53 C 343.23 190.19 346.18 193.14 349.95 193.63 C 349.23 190.09 345.31 188.72 344.59 185.25 C 348.51 186.73 352.31 188.51 356.28 189.87 C 356.18 187.56 357.98 184.17 355.25 182.79 C 349.92 179.94 343.11 179.26 339.45 173.88 C 338.65 174.34 337.84 174.81 337.05 175.27 M 310.37 181.13 C 310.61 184.76 311.87 188.65 315.92 189.43 C 318.47 186.46 321.20 183.20 321.18 179.04 C 320.20 178.08 319.11 177.24 318.06 176.36 C 315.18 177.40 312.80 179.33 310.37 181.13 M 246.79 187.11 C 248.02 188.64 249.22 190.18 250.50 191.66 C 253.64 195.34 260.30 193.77 262.45 198.57 C 264.17 202.24 262.07 206.30 258.63 208.02 C 262.80 209.20 267.12 209.97 271.02 211.92 C 271.91 211.63 272.80 211.33 273.69 211.04 C 274.70 208.69 276.00 206.47 276.98 204.10 C 276.08 200.83 273.22 199.03 270.33 197.72 C 266.99 196.31 267.25 191.48 263.86 190.12 C 259.40 188.02 255.15 185.27 250.20 184.44 C 249.07 185.33 247.93 186.22 246.79 187.11 M 246.17 317.24 C 248.04 319.37 251.07 318.81 253.55 319.55 C 257.72 320.47 260.59 323.90 264.29 325.77 C 266.81 326.37 269.19 324.95 271.30 323.76 C 269.19 322.05 266.83 320.62 264.03 320.54 C 257.94 320.10 252.37 316.57 246.17 317.24 M 272.30 326.77 C 276.64 328.52 281.34 328.53 285.93 328.01 C 284.05 326.77 282.40 325.26 280.73 323.77 C 277.81 323.79 273.21 323.09 272.30 326.77 Z" />
<path fill="#fdfdfe" opacity="1.00" d=" M 321.18 115.33 C 323.24 114.97 325.02 116.49 326.76 117.35 C 330.66 119.92 335.06 121.62 338.85 124.35 C 332.52 122.30 327.05 118.33 321.18 115.33 Z" />
<path fill="#fdfdfe" opacity="1.00" d=" M 338.26 123.72 C 345.56 127.33 351.78 132.67 358.33 137.44 C 362.98 141.52 368.08 145.17 371.91 150.09 C 379.02 157.36 385.64 165.16 390.98 173.84 C 392.65 176.89 394.56 179.80 396.43 182.74 C 391.67 178.69 390.10 172.24 385.86 167.73 C 385.99 170.54 386.53 173.30 386.91 176.08 C 386.59 177.56 385.32 178.60 384.51 179.82 C 386.05 181.87 387.90 183.76 389.01 186.11 C 389.48 188.37 389.58 190.68 389.79 192.98 C 387.91 192.61 386.03 192.25 384.14 191.93 C 383.83 197.58 384.22 203.25 383.71 208.88 C 379.09 206.53 377.62 201.31 375.30 197.08 C 374.85 192.64 373.63 188.35 372.53 184.04 C 374.64 184.00 376.76 183.98 378.88 183.95 C 378.93 183.32 379.04 182.08 379.09 181.46 C 376.83 180.51 374.59 179.50 372.43 178.35 C 375.24 177.25 378.28 177.11 381.15 176.29 C 382.59 175.74 382.51 173.85 383.10 172.64 C 381.45 171.73 379.54 171.14 378.24 169.72 C 376.02 166.15 377.80 161.66 376.18 157.90 C 373.51 150.75 366.96 146.13 361.57 141.10 C 357.74 137.21 352.85 134.67 348.68 131.20 C 345.35 128.49 341.29 126.80 338.26 123.72 Z" />
<path fill="#fdfdfe" opacity="1.00" d=" M 395.79 182.15 C 399.75 187.37 401.98 193.68 404.13 199.81 C 400.85 194.18 398.77 187.94 395.79 182.15 Z" />
<path fill="#fdfdfe" opacity="1.00" d=" M 404.15 199.96 C 405.69 200.40 406.42 203.16 405.92 204.65 C 404.30 204.24 403.76 201.44 404.15 199.96 Z" />
<path fill="#fdfdfe" opacity="1.00" d=" M 407.94 211.57 C 409.58 214.62 410.93 217.91 411.00 221.42 C 409.49 218.31 408.42 215.00 407.94 211.57 Z" />
<path fill="#fdfdfe" opacity="1.00" d=" M 413.24 236.09 C 412.93 234.36 413.17 232.62 413.49 230.92 C 413.94 234.22 414.09 237.55 414.57 240.85 C 415.49 246.89 414.41 252.98 414.71 259.05 C 414.65 263.19 415.50 267.43 414.31 271.47 C 413.78 259.70 415.08 247.81 413.24 236.09 Z" />
<path fill="#fdfdfe" opacity="1.00" d=" M 294.10 405.84 C 298.83 404.38 303.50 402.55 308.44 401.94 C 303.86 403.78 299.11 405.75 294.10 405.84 Z" />
<path fill="#fdfdfe" opacity="1.00" d=" M 278.10 408.89 C 283.61 407.72 289.12 406.07 294.80 406.11 C 289.32 407.41 283.77 408.95 278.10 408.89 Z" />
</g>
<g id="#dee7f6ff">
<path fill="#dee7f6" opacity="1.00" d=" M 225.36 105.26 C 226.08 104.45 228.58 104.30 228.54 105.72 C 227.81 106.53 225.31 106.69 225.36 105.26 Z" />
</g>
<g id="#e5ecf8ff">
<path fill="#e5ecf8" opacity="1.00" d=" M 206.24 110.12 C 209.16 108.46 206.54 113.43 206.24 110.12 Z" />
</g>
<g id="#fcfcfeff">
<path fill="#fcfcfe" opacity="1.00" d=" M 314.41 112.24 C 314.93 112.79 314.93 112.79 314.41 112.24 Z" />
</g>
<g id="#d9e3f5ff">
<path fill="#d9e3f5" opacity="1.00" d=" M 197.39 113.08 C 200.39 111.57 197.50 116.41 197.39 113.08 Z" />
</g>
<g id="#d0ddf2ff">
<path fill="#d0ddf2" opacity="1.00" d=" M 315.97 113.16 C 317.15 112.86 319.87 113.13 319.81 114.74 C 318.71 115.45 316.04 114.52 315.97 113.16 Z" />
</g>
<g id="#c8d7f0ff">
<path fill="#c8d7f0" opacity="1.00" d=" M 406.20 205.92 C 407.78 206.50 408.27 209.36 407.81 210.93 C 406.29 210.28 405.81 207.48 406.20 205.92 Z" />
</g>
<g id="#e7edf8ff">
<path fill="#e7edf8" opacity="1.00" d=" M 411.15 222.42 C 412.48 222.61 412.72 223.32 411.85 224.56 C 410.51 224.36 410.27 223.65 411.15 222.42 Z" />
</g>
<g id="#d4e0f3ff">
<path fill="#d4e0f3" opacity="1.00" d=" M 412.22 226.43 C 413.64 226.62 413.81 230.29 412.39 230.56 C 411.54 229.43 411.45 227.61 412.22 226.43 Z" />
</g>
</svg>
